<svg width="44" height="51" viewBox="0 0 44 51" fill="none" xmlns="http://www.w3.org/2000/svg">
<path d="M29 31L29.4961 31.8682L29.503 31.8643L29.5098 31.8603L29 31ZM42.5 22.9999H43.5C43.5 22.6406 43.3072 22.3089 42.9951 22.131C42.6829 21.9531 42.2993 21.9564 41.9902 22.1396L42.5 22.9999ZM42.5 47.4999L41.9902 48.3602C42.2993 48.5433 42.6829 48.5466 42.9951 48.3687C43.3072 48.1908 43.5 47.8592 43.5 47.4999H42.5ZM14.5 31L13.9902 31.8603L14.0096 31.8718L14.0294 31.8824L14.5 31ZM1 22.9999L1.50981 22.1396C1.19757 21.9546 0.809587 21.9532 0.49609 22.1361C0.182592 22.319 -0.00719735 22.6574 0.000208182 23.0203L1 22.9999ZM1.5 47.4999L0.500208 47.5203C0.507465 47.8759 0.703028 48.2008 1.01381 48.3737C1.3246 48.5466 1.70383 48.5415 2.0098 48.3602L1.5 47.4999ZM9 1V0C8.44772 0 8 0.447715 8 1L9 1ZM35 1H36C36 0.447715 35.5523 0 35 0V1ZM35 22V23C35.5523 23 36 22.5523 36 22H35ZM9 22H8C8 22.5523 8.44772 23 9 23V22ZM16.8047 6.33594L17.6947 5.87994C17.484 5.46883 17.0192 5.25549 16.5701 5.36383C16.1211 5.47217 15.8047 5.874 15.8047 6.33594H16.8047ZM26.2456 6.33594L27.2456 6.33868C27.2469 5.87704 26.932 5.47453 26.4836 5.36467C26.0352 5.25481 25.5699 5.46615 25.3576 5.87609L26.2456 6.33594ZM21.5 15.5L20.61 15.956C20.7808 16.2892 21.1234 16.4992 21.4978 16.5C21.8723 16.5008 22.2158 16.2924 22.388 15.9598L21.5 15.5ZM15.8047 17C15.8047 17.5523 16.2524 18 16.8047 18C17.357 18 17.8047 17.5523 17.8047 17H15.8047ZM25.2163 16.9973C25.2148 17.5495 25.6613 17.9985 26.2136 18C26.7658 18.0015 27.2148 17.555 27.2163 17.0027L25.2163 16.9973ZM21.9998 27.9999C24.8682 27.9999 26.866 29.2043 28.1246 31.4834L29.8754 30.5166C28.2501 27.5736 25.5657 25.9999 21.9998 25.9999V27.9999ZM28.5039 30.1318L21.5039 34.1318L22.4961 35.8682L29.4961 31.8682L28.5039 30.1318ZM29.5098 31.8603L43.0098 23.8602L41.9902 22.1396L28.4902 30.1397L29.5098 31.8603ZM41.5 22.9999V47.4999H43.5V22.9999H41.5ZM21.4592 35.8412L28.4592 40.3412L29.5408 38.6588L22.5408 34.1588L21.4592 35.8412ZM28.1252 39.0155C26.8616 41.2967 24.8517 42.4999 21.9998 42.4999V44.4999C25.5479 44.4999 28.244 42.9286 29.8748 39.9845L28.1252 39.0155ZM43.0098 46.6396L29.5098 38.6397L28.4902 40.3603L41.9902 48.3602L43.0098 46.6396ZM22.4706 34.1176L14.9706 30.1176L14.0294 31.8824L21.5294 35.8824L22.4706 34.1176ZM15.3136 31.5815C16.6957 29.6477 19.4868 27.9999 21.9998 27.9999V25.9999C18.7555 25.9999 15.3914 28.0331 13.6864 30.4185L15.3136 31.5815ZM15.0098 30.1397L1.50981 22.1396L0.490192 23.8602L13.9902 31.8603L15.0098 30.1397ZM0.000208182 23.0203L0.500208 47.5203L2.49979 47.4795L1.99979 22.9795L0.000208182 23.0203ZM21.9998 42.4999C19.5572 42.4999 17.2411 40.9196 15.8141 38.9193L14.1859 40.0807C15.8567 42.423 18.7135 44.4999 21.9998 44.4999V42.4999ZM15.5408 40.3412L22.5408 35.8412L21.4592 34.1588L14.4592 38.6588L15.5408 40.3412ZM2.0098 48.3602L15.5098 40.3603L14.4902 38.6397L0.990203 46.6396L2.0098 48.3602ZM10 22V1H8V22H10ZM35 21H22V23H35V21ZM22 21H9V23H22V21ZM22.9998 26.9999L23 22L21 22L20.9998 26.9998L22.9998 26.9999ZM9 2H22V0H9V2ZM22 2H35V0H22V2ZM25.3576 5.87609L20.612 15.0402L22.388 15.9598L27.1336 6.79579L25.3576 5.87609ZM22.39 15.044L17.6947 5.87994L15.9147 6.79193L20.61 15.956L22.39 15.044ZM34 1V11.5H36V1H34ZM34 11.5V22H36V11.5H34ZM15.8047 6.33594V17H17.8047V6.33594H15.8047ZM25.2456 6.33319L25.2163 16.9973L27.2163 17.0027L27.2456 6.33868L25.2456 6.33319Z" fill="white"/>
</svg>
