<svg width="46" height="52" viewBox="0 0 46 52" fill="none" xmlns="http://www.w3.org/2000/svg">
<path d="M22.9998 29.5C26.2169 29.5 29.058 31.2152 30.5 33.8263M22.9998 29.5C20.1211 29.5 17.5436 30.8733 16 33.0329M22.9998 29.5V20M22.9998 29.5L43.5 1H22.9998V11M30.5 33.8263C31.1012 34.9149 31.4592 36.1593 31.4998 37.5C31.5451 38.9938 31.1759 40.3979 30.5 41.6181M30.5 33.8263L43.5 25.5V50L30.5 41.6181M30.5 41.6181C29.0528 44.2307 26.1998 46 22.9998 46C20.1354 46 17.5489 44.5823 16 42.411M16 33.0329C15.0993 34.2931 14.5507 35.821 14.4998 37.5C14.4444 39.3291 15.0105 41.0239 16 42.411M16 33.0329L2 25.5L2.5 50L16 42.411M22.9998 20H14.4998M22.9998 20H31.4998M14.4998 20H31.4998M14.4998 20C14.4998 20 14.4998 11 22.9998 11M31.4998 20C31.4998 20 31.4998 11 22.9998 11" stroke="white" stroke-width="2"/>
</svg>
