<svg width="44" height="46" viewBox="0 0 44 46" fill="none" xmlns="http://www.w3.org/2000/svg">
<path d="M42.5 20H43.5C43.5 19.6425 43.3091 19.3121 42.9993 19.1336C42.6895 18.9551 42.308 18.9555 41.9986 19.1348L42.5 20ZM42.5 44.5L42.01 45.3717C42.3196 45.5458 42.6984 45.5425 43.005 45.3631C43.3116 45.1838 43.5 44.8552 43.5 44.5H42.5ZM1 20L1.47383 19.1194C1.16072 18.9509 0.781698 18.9614 0.47835 19.1468C0.175002 19.3323 -0.0070466 19.6649 0.000208182 20.0204L1 20ZM1.5 44.5L0.500208 44.5204C0.507382 44.8719 0.698615 45.1938 1.00387 45.3682C1.30913 45.5427 1.68356 45.544 1.99003 45.3717L1.5 44.5ZM10.4998 20H9.49982C9.49982 20.5523 9.94753 21 10.4998 21V20ZM33.4998 20V21C34.0521 21 34.4998 20.5523 34.4998 20H33.4998ZM10.4998 3.5V2.5C9.94753 2.5 9.49982 2.94772 9.49982 3.5H10.4998ZM33.4998 3.5H34.4998C34.4998 2.94772 34.0521 2.5 33.4998 2.5V3.5ZM21.9998 25C25.0689 25 27.4429 25.8765 28.6246 28.0163L30.3754 27.0495C28.6732 23.9672 25.365 23 21.9998 23V25ZM28.9883 26.6738L21.4881 31.1408L22.5115 32.8592L30.0117 28.3921L28.9883 26.6738ZM30.0014 28.3982L43.0014 20.8652L41.9986 19.1348L28.9986 26.6677L30.0014 28.3982ZM41.5 20V44.5H43.5V20H41.5ZM21.4255 32.8186L28.4257 37.7296L29.5743 36.0924L22.5741 31.1814L21.4255 32.8186ZM28.1252 36.4265C27.4945 37.5652 26.6914 38.3118 25.7186 38.7866C24.7293 39.2695 23.5047 39.5 21.9998 39.5V41.5C23.6949 41.5 25.2468 41.2424 26.5958 40.5839C27.9613 39.9174 29.0584 38.8695 29.8748 37.3955L28.1252 36.4265ZM42.99 43.6283L29.49 36.0393L28.51 37.7827L42.01 45.3717L42.99 43.6283ZM22.5378 31.157L15.538 26.6899L14.462 28.3759L21.4619 32.843L22.5378 31.157ZM15.8136 28.1144C17.1679 26.2195 19.4414 25 21.9998 25V23C18.8009 23 15.9192 24.5271 14.1864 26.9514L15.8136 28.1144ZM15.4738 26.6523L1.47383 19.1194L0.526171 20.8806L14.5262 28.4135L15.4738 26.6523ZM0.000208182 20.0204L0.500208 44.5204L2.49979 44.4796L1.99979 19.9796L0.000208182 20.0204ZM21.9998 39.5C19.4671 39.5 17.1803 38.2455 15.8141 36.3303L14.1859 37.4917C15.9175 39.9191 18.8037 41.5 21.9998 41.5V39.5ZM15.5743 37.7296L22.5742 32.8186L21.4255 31.1814L14.4257 36.0924L15.5743 37.7296ZM1.99003 45.3717L15.49 37.7827L14.51 36.0393L1.00997 43.6283L1.99003 45.3717ZM22.9998 24V20H20.9998V24H22.9998ZM33.4998 19H10.4998V21H33.4998V19ZM11.4998 20V3.5H9.49982V20H11.4998ZM32.4998 3.5V20H34.4998V3.5H32.4998ZM21.9998 19H16.2498V21H21.9998V19ZM16.2498 19H10.4998V21H16.2498V19ZM10.4998 4.5H16.2498V2.5H10.4998V4.5ZM21.9998 21H27.7498V19H21.9998V21ZM27.7498 21H33.4998V19H27.7498V21ZM16.2498 4.5H27.7498V2.5H16.2498V4.5ZM27.7498 4.5H33.4998V2.5H27.7498V4.5ZM17.2498 20V13.75H15.2498V20H17.2498ZM17.2498 13.75V3.5H15.2498V13.75H17.2498ZM28.7498 20V13.75H26.7498V20H28.7498ZM28.7498 13.75V3.5H26.7498V13.75H28.7498ZM16.2498 14.75H21.9998V12.75H16.2498V14.75ZM21.9998 14.75H27.7498V12.75H21.9998V14.75ZM20.9998 13.75L20.9998 20L22.9998 20L22.9998 13.75L20.9998 13.75Z" fill="white"/>
</svg>
