<svg width="44" height="49" viewBox="0 0 44 49" fill="none" xmlns="http://www.w3.org/2000/svg">
<path d="M21.9998 26.9999L20.9998 26.9998V26.9999H21.9998ZM42.5 22.9999H43.5C43.5 22.6415 43.3083 22.3106 42.9974 22.1324C42.6865 21.9541 42.3041 21.9558 41.9948 22.1369L42.5 22.9999ZM42.5 47.4999L41.9794 48.3537C42.2881 48.5419 42.6743 48.5488 42.9896 48.3718C43.3048 48.1948 43.5 47.8614 43.5 47.4999H42.5ZM1 22.9999L1.49614 22.1316C1.18347 21.953 0.798886 21.9562 0.489277 22.1401C0.179667 22.3241 -0.00713962 22.6602 0.000208182 23.0203L1 22.9999ZM1.5 47.4999L0.500208 47.5203C0.507511 47.8781 0.70549 48.2048 1.01934 48.3768C1.33318 48.5488 1.71504 48.54 2.02061 48.3537L1.5 47.4999ZM9 1.5V0.5C8.44772 0.5 8 0.947715 8 1.5L9 1.5ZM35 1.5H36C36 0.947715 35.5523 0.5 35 0.5V1.5ZM35 22.5V23.5C35.5523 23.5 36 23.0523 36 22.5H35ZM9 22.5H8C8 23.0523 8.44772 23.5 9 23.5V22.5ZM23.7148 14.5502L22.7692 14.8753L22.7754 14.8933L22.7823 14.9112L23.7148 14.5502ZM23.4072 14.1254L22.7504 14.8794L22.7575 14.8856L22.7646 14.8916L23.4072 14.1254ZM21.708 13.3417L21.4004 14.2932L21.4079 14.2956L21.708 13.3417ZM20.3311 12.8143L19.9172 13.7247L19.9211 13.7264L20.3311 12.8143ZM19.1885 12.1332L18.561 12.9118L18.5673 12.9169L18.5737 12.9219L19.1885 12.1332ZM18.4121 11.2177L17.5304 11.6896L17.5356 11.6991L18.4121 11.2177ZM18.4268 8.80066L19.3065 9.27618L19.3091 9.27125L18.4268 8.80066ZM19.2471 7.86316L19.8399 8.66853L19.8471 8.66316L19.2471 7.86316ZM20.4922 7.25525L20.2111 6.29557L20.2084 6.29635L20.4922 7.25525ZM25.502 8.6322L24.6648 9.17924L24.6686 9.185L25.502 8.6322ZM25.9927 10.3241V11.3241H26.9927V10.3241H25.9927ZM23.8101 10.3241H22.8101V11.3241H23.8101V10.3241ZM23.6123 9.50378L22.729 9.9725L22.7347 9.98334L22.7407 9.99405L23.6123 9.50378ZM23.0264 8.93982L22.5592 9.82404L22.5661 9.82757L23.0264 8.93982ZM21.0928 8.91052L21.4973 9.82506L21.5046 9.82183L21.5118 9.81848L21.0928 8.91052ZM20.5215 9.37195L21.3536 9.92669L21.3599 9.91694L20.5215 9.37195ZM20.4629 10.5072L19.6054 11.0217L19.6116 11.0321L19.6181 11.0423L20.4629 10.5072ZM22.4551 11.6058L22.1591 12.5611L22.1655 12.563L22.4551 11.6058ZM23.9858 12.1991L23.5386 13.0935L23.5426 13.0955L23.9858 12.1991ZM20.5728 17.7948L20.3065 18.7587L20.3151 18.761L20.5728 17.7948ZM19.1738 17.1576L18.6102 17.9836L18.6147 17.9867L19.1738 17.1576ZM17.8042 14.5135V13.5135H16.8042V14.5135H17.8042ZM20.0088 14.5135H21.0088V13.5135H20.0088V14.5135ZM20.5947 15.9125L19.988 16.7075L19.998 16.7149L20.5947 15.9125ZM21.2686 16.2201L21.0303 17.1913L21.0345 17.1923L21.2686 16.2201ZM23.0703 16.1542L22.6742 15.2359L22.6676 15.2389L23.0703 16.1542ZM23.6196 15.7074L22.7777 15.1677L22.7728 15.1755L22.768 15.1833L23.6196 15.7074ZM22.505 35.8629L43.0052 23.8629L41.9948 22.1369L21.4946 34.1369L22.505 35.8629ZM41.5 22.9999V47.4999H43.5V22.9999H41.5ZM43.0206 46.6461L22.5204 34.1461L21.4792 35.8537L41.9794 48.3537L43.0206 46.6461ZM22.496 34.1316L1.49614 22.1316L0.503858 23.8681L21.5037 35.8681L22.496 34.1316ZM0.000208182 23.0203L0.500208 47.5203L2.49979 47.4795L1.99979 22.9795L0.000208182 23.0203ZM2.02061 48.3537L22.5204 35.8537L21.4792 34.1461L0.979389 46.6461L2.02061 48.3537ZM10 22.5V1.5H8V22.5H10ZM35 21.5H22V23.5H35V21.5ZM22 21.5H9V23.5H22V21.5ZM9 2.5H22V0.5H9V2.5ZM22 2.5H35V0.5H22V2.5ZM34 1.5V12H36V1.5H34ZM34 12V22.5H36V12H34ZM21 22.5L20.9998 26.9998L22.9998 26.9999L23 22.5L21 22.5ZM24.8027 15.0629C24.8027 14.77 24.7576 14.4738 24.6474 14.1892L22.7823 14.9112C22.7893 14.9293 22.8027 14.9749 22.8027 15.0629H24.8027ZM24.6605 14.2251C24.5371 13.8661 24.313 13.5799 24.0498 13.3592L22.7646 14.8916C22.7854 14.909 22.7904 14.917 22.7877 14.9133C22.7864 14.9114 22.7834 14.9071 22.7799 14.9003C22.7763 14.8934 22.7725 14.885 22.7692 14.8753L24.6605 14.2251ZM24.064 13.3713C23.8157 13.155 23.5117 12.979 23.1911 12.8302L22.3489 14.6442C22.5752 14.7493 22.696 14.8321 22.7504 14.8794L24.064 13.3713ZM23.1911 12.8302C22.864 12.6783 22.4654 12.5316 22.0081 12.3878L21.4079 14.2956C21.8197 14.4252 22.1292 14.5422 22.3489 14.6442L23.1911 12.8302ZM22.0156 12.3901C21.5647 12.2444 21.1401 12.0816 20.741 11.9022L19.9211 13.7264C20.3912 13.9377 20.8845 14.1264 21.4004 14.2932L22.0156 12.3901ZM20.7449 11.904C20.3782 11.7373 20.0663 11.5495 19.8032 11.3445L18.5737 12.9219C18.9747 13.2344 19.4245 13.5007 19.9173 13.7247L20.7449 11.904ZM19.816 11.3546C19.584 11.1676 19.4124 10.9615 19.2886 10.7362L17.5356 11.6991C17.7927 12.1671 18.1386 12.5714 18.561 12.9118L19.816 11.3546ZM19.2938 10.7458C19.198 10.5668 19.1338 10.3311 19.1338 10.0092H17.1338C17.1338 10.6051 17.2551 11.1751 17.5304 11.6895L19.2938 10.7458ZM19.1338 10.0092C19.1338 9.71691 19.1965 9.47965 19.3065 9.27618L17.5471 8.32514C17.2664 8.84432 17.1338 9.41272 17.1338 10.0092H19.1338ZM19.3091 9.27125C19.4305 9.04367 19.6022 8.84343 19.8399 8.6685L18.6543 7.05782C18.1888 7.40047 17.8137 7.82523 17.5444 8.33007L19.3091 9.27125ZM19.8471 8.66316C20.0915 8.47982 20.3962 8.32653 20.7759 8.21415L20.2084 6.29635C19.6312 6.46717 19.1057 6.71916 18.6471 7.06316L19.8471 8.66316ZM20.7733 8.21492C21.1534 8.10359 21.5871 8.04285 22.0815 8.04285V6.04285C21.4236 6.04285 20.7978 6.1237 20.2111 6.29558L20.7733 8.21492ZM22.0815 8.04285C22.7478 8.04285 23.2795 8.16261 23.7045 8.368L24.5748 6.5673C23.8279 6.20628 22.9875 6.04285 22.0815 6.04285V8.04285ZM23.7045 8.368C24.1445 8.58066 24.4522 8.85377 24.6648 9.17923L26.3391 8.08518C25.9072 7.42431 25.3067 6.92105 24.5748 6.5673L23.7045 8.368ZM24.6686 9.185C24.8791 9.50225 24.9927 9.87101 24.9927 10.3241H26.9927C26.9927 9.50765 26.7791 8.74848 26.3353 8.07941L24.6686 9.185ZM25.9927 9.3241H23.8101V11.3241H25.9927V9.3241ZM24.8101 10.3241C24.8101 9.86794 24.7127 9.42028 24.4839 9.01352L22.7407 9.99405C22.7756 10.056 22.8101 10.1553 22.8101 10.3241H24.8101ZM24.4957 9.03507C24.2643 8.5991 23.9124 8.27282 23.4867 8.05206L22.5661 9.82757C22.6677 9.88026 22.7064 9.92995 22.729 9.9725L24.4957 9.03507ZM23.4935 8.05563C23.0491 7.82088 22.5486 7.73474 22.0449 7.73474V9.73474C22.3323 9.73474 22.486 9.78533 22.5592 9.82401L23.4935 8.05563ZM22.0449 7.73474C21.5688 7.73474 21.0975 7.80697 20.6737 8.00256L21.5118 9.81848C21.5959 9.7797 21.7593 9.73474 22.0449 9.73474V7.73474ZM20.6883 7.99599C20.2915 8.17149 19.9346 8.43997 19.683 8.82696L21.3599 9.91694C21.3623 9.9133 21.3863 9.87416 21.4973 9.82506L20.6883 7.99599ZM19.6894 8.81725C19.4478 9.17965 19.3311 9.58926 19.3311 10.0165H21.3311C21.3311 9.96518 21.3412 9.94511 21.3535 9.92665L19.6894 8.81725ZM19.3311 10.0165C19.3311 10.3675 19.4188 10.7107 19.6054 11.0217L21.3204 9.99271C21.3218 9.9951 21.3236 9.99854 21.3255 10.0028C21.3273 10.0071 21.3287 10.0114 21.3298 10.0152C21.332 10.0235 21.3311 10.025 21.3311 10.0165H19.3311ZM19.6181 11.0423C19.7977 11.3259 20.038 11.5528 20.2981 11.7356L21.448 10.0992C21.3468 10.028 21.3136 9.98152 21.3077 9.97215L19.6181 11.0423ZM20.2981 11.7356C20.5501 11.9126 20.8375 12.0642 21.1477 12.1963L21.9314 10.3562C21.7142 10.2637 21.5574 10.176 21.448 10.0992L20.2981 11.7356ZM21.1477 12.1963C21.4497 12.3249 21.788 12.446 22.1591 12.561L22.7511 10.6506C22.4288 10.5508 22.1568 10.4522 21.9314 10.3562L21.1477 12.1963ZM22.1655 12.563C22.7044 12.726 23.16 12.9042 23.5386 13.0935L24.4331 11.3047C23.9327 11.0545 23.3678 10.8372 22.7446 10.6487L22.1655 12.563ZM23.5426 13.0955C23.9204 13.2823 24.2084 13.4786 24.4228 13.6755L25.7754 12.2022C25.3942 11.8522 24.9399 11.5553 24.4291 11.3027L23.5426 13.0955ZM24.4228 13.6755C24.6253 13.8613 24.7646 14.0588 24.8565 14.2692L26.6894 13.4689C26.4785 12.9859 26.1687 12.5633 25.7754 12.2022L24.4228 13.6755ZM24.8565 14.2692C24.9446 14.4709 25 14.7244 25 15.0482H27C27 14.4931 26.9041 13.9605 26.6894 13.4689L24.8565 14.2692ZM25 15.0482C25 15.3796 24.9363 15.64 24.8322 15.8509L26.6258 16.7358C26.8831 16.2143 27 15.6446 27 15.0482H25ZM24.8322 15.8509C24.7247 16.0687 24.5691 16.2573 24.349 16.4208L25.5416 18.0263C26.0051 17.6819 26.3719 17.2503 26.6258 16.7358L24.8322 15.8509ZM24.349 16.4208C24.1198 16.591 23.8274 16.7348 23.454 16.8387L23.9903 18.7655C24.5642 18.6058 25.0872 18.3638 25.5416 18.0263L24.349 16.4208ZM23.454 16.8387C23.0825 16.9422 22.6449 16.9999 22.1328 16.9999V18.9999C22.7926 18.9999 23.4146 18.9258 23.9903 18.7655L23.454 16.8387ZM22.1328 16.9999C21.693 16.9999 21.2596 16.943 20.8304 16.8286L20.3151 18.761C20.9113 18.92 21.5179 18.9999 22.1328 18.9999V16.9999ZM20.839 16.8309C20.4253 16.7166 20.0588 16.5482 19.733 16.3285L18.6147 17.9867C19.1287 18.3333 19.6948 18.5898 20.3065 18.7587L20.839 16.8309ZM19.7375 16.3316C19.4493 16.135 19.2219 15.8878 19.0478 15.5806L17.3077 16.5666C17.6317 17.1383 18.0682 17.6138 18.6102 17.9836L19.7375 16.3316ZM19.0478 15.5806C18.8987 15.3176 18.8042 14.9741 18.8042 14.5135H16.8042C16.8042 15.2542 16.9587 15.9507 17.3077 16.5666L19.0478 15.5806ZM17.8042 15.5135H20.0088V13.5135H17.8042V15.5135ZM19.0088 14.5135C19.0088 14.9432 19.0744 15.3718 19.2496 15.7638L21.0756 14.9479C21.0457 14.8809 21.0088 14.748 21.0088 14.5135H19.0088ZM19.2496 15.7638C19.4149 16.1338 19.6595 16.4567 19.9881 16.7074L21.2014 15.1175C21.1588 15.085 21.1154 15.0369 21.0756 14.9479L19.2496 15.7638ZM19.998 16.7149C20.3079 16.9454 20.6579 17.0999 21.0303 17.1913L21.5068 15.2489C21.3616 15.2133 21.2624 15.1628 21.1914 15.11L19.998 16.7149ZM21.0345 17.1923C21.3854 17.2768 21.7531 17.3153 22.1328 17.3153V15.3153C21.8875 15.3153 21.6791 15.2903 21.5026 15.2479L21.0345 17.1923ZM22.1328 17.3153C22.5974 17.3153 23.0599 17.2513 23.4731 17.0695L22.6676 15.2389C22.5925 15.2719 22.4299 15.3153 22.1328 15.3153V17.3153ZM23.4664 17.0724C23.8633 16.9012 24.2252 16.6314 24.4713 16.2315L22.768 15.1833C22.7715 15.1776 22.7727 15.1786 22.7634 15.1861C22.7529 15.1946 22.7266 15.2134 22.6742 15.236L23.4664 17.0724ZM24.4615 16.2471C24.6929 15.8861 24.8027 15.4819 24.8027 15.0629H22.8027C22.8027 15.1224 22.7905 15.1478 22.7777 15.1677L24.4615 16.2471ZM20.9998 26.9999V34.9999H22.9998V26.9999H20.9998Z" fill="white"/>
</svg>
