<svg width="44" height="27" viewBox="0 0 44 27" fill="none" xmlns="http://www.w3.org/2000/svg">
<path d="M29.5 9L29.9706 9.88236L29.9978 9.86783L30.0241 9.85166L29.5 9ZM42.5 1H43.5C43.5 0.637718 43.3041 0.303768 42.9878 0.127046C42.6715 -0.0496761 42.2844 -0.0415294 41.9759 0.148342L42.5 1ZM42.5 25.5L41.9581 26.3404C42.2658 26.5388 42.6572 26.5532 42.9786 26.378C43.3 26.2028 43.5 25.866 43.5 25.5H42.5ZM29.5 17.1181L30.0419 16.2776L30.0122 16.2585L29.9813 16.2415L29.5 17.1181ZM1 1L1.47383 0.119383C1.16072 -0.0490908 0.781698 -0.0386367 0.47835 0.14684C0.175002 0.332317 -0.0070466 0.664919 0.000208182 1.0204L1 1ZM1.5 25.5L0.500208 25.5204C0.507465 25.876 0.703029 26.2009 1.01382 26.3739C1.3246 26.5468 1.70384 26.5416 2.0098 26.3603L1.5 25.5ZM21.9998 6C24.9381 6 27.3963 7.25929 28.6246 9.48343L30.3754 8.51657C28.7197 5.51857 25.4958 4 21.9998 4V6ZM29.0294 8.11764L21.5292 12.1176L22.4704 13.8824L29.9706 9.88236L29.0294 8.11764ZM30.0241 9.85166L43.0241 1.85166L41.9759 0.148342L28.9759 8.14834L30.0241 9.85166ZM41.5 1V25.5H43.5V1H41.5ZM21.5185 13.8766L29.0187 17.9946L29.9813 16.2415L22.4811 12.1234L21.5185 13.8766ZM28.6252 16.6335C27.3515 18.933 24.8306 20.5 21.9998 20.5V22.5C25.569 22.5 28.7541 20.5284 30.3748 17.6026L28.6252 16.6335ZM43.0419 24.6596L30.0419 16.2776L28.9581 17.9585L41.9581 26.3404L43.0419 24.6596ZM22.5378 12.157L15.538 7.68995L14.462 9.37589L21.4619 13.843L22.5378 12.157ZM15.8136 9.1144C17.1679 7.21953 19.4414 6 21.9998 6V4C18.8009 4 15.9192 5.5271 14.1864 7.95143L15.8136 9.1144ZM15.4738 7.6523L1.47383 0.119383L0.526171 1.88062L14.5262 9.41353L15.4738 7.6523ZM0.000208182 1.0204L0.500208 25.5204L2.49979 25.4796L1.99979 0.979596L0.000208182 1.0204ZM21.9998 20.5C19.5572 20.5 17.2411 18.9197 15.8141 16.9193L14.1859 18.0807C15.8567 20.4229 18.7135 22.5 21.9998 22.5V20.5ZM15.5408 18.3412L22.5406 13.8412L21.4591 12.1588L14.4592 16.6588L15.5408 18.3412ZM2.0098 26.3603L15.5098 18.3603L14.4902 16.6397L0.990198 24.6397L2.0098 26.3603Z" fill="white"/>
</svg>
