<svg width="45" height="47" viewBox="0 0 45 47" fill="none" xmlns="http://www.w3.org/2000/svg">
<path d="M22.9998 24C26.2169 24 29.058 25.7152 30.5 28.3263M22.9998 24C20.1211 24 17.5436 25.3733 16 27.5329M22.9998 24V20M30.5 28.3263C31.1012 29.4149 31.4592 30.6593 31.4998 32C31.5451 33.4938 31.1759 34.8979 30.5 36.1181M30.5 28.3263L43.5 20V44.5L30.5 36.1181M30.5 36.1181C29.0528 38.7307 26.1998 40.5 22.9998 40.5C20.1354 40.5 17.5489 39.0823 16 36.911M16 27.5329C15.0993 28.7931 14.5507 30.321 14.4998 32C14.4444 33.8291 15.0105 35.5239 16 36.911M16 27.5329L2 20L2.5 44.5L16 36.911M22.9998 20H17.2498M22.9998 20H28.7498M22.9998 20L22.9998 13.75M11.4998 20H34.4998M11.4998 20V3.5H17.2498M11.4998 20H17.2498M34.4998 20V3.5H28.7498M34.4998 20H28.7498M17.2498 20V13.75M17.2498 3.5H28.7498M17.2498 3.5V13.75M28.7498 20V13.75M28.7498 3.5V13.75M17.2498 13.75H22.9998M28.7498 13.75H22.9998" stroke="white" stroke-width="2"/>
</svg>
