<svg width="44" height="51" viewBox="0 0 44 51" fill="none" xmlns="http://www.w3.org/2000/svg">
<path d="M13.4998 37.5L12.5003 37.4697L13.4998 37.5ZM30.4998 37.5L31.4994 37.4697L30.4998 37.5ZM29.5 33.8263L28.6246 34.3097L29.5 33.8263ZM42.5 25.5H43.5C43.5 25.1345 43.3006 24.7981 42.9799 24.6227C42.6593 24.4473 42.2684 24.4608 41.9607 24.6579L42.5 25.5ZM42.5 50L41.9581 50.8404C42.2658 51.0388 42.6572 51.0532 42.9786 50.878C43.3 50.7028 43.5 50.366 43.5 50H42.5ZM1 25.5L1.47383 24.6194C1.16072 24.4509 0.781698 24.4614 0.47835 24.6468C0.175002 24.8323 -0.0070466 25.1649 0.000208182 25.5204L1 25.5ZM1.5 50L0.500208 50.0204C0.507382 50.3719 0.698615 50.6938 1.00387 50.8682C1.30913 51.0427 1.68356 51.044 1.99003 50.8717L1.5 50ZM13.4998 20H12.4998C12.4998 20.5523 12.9475 21 13.4998 21V20ZM30.4998 20V21C30.765 21 31.0194 20.8946 31.2069 20.7071C31.3945 20.5196 31.4998 20.2652 31.4998 20L30.4998 20ZM21.9998 1V0C21.4475 0 20.9998 0.447715 20.9998 1L21.9998 1ZM42.5 1L43.3118 1.58393C43.5309 1.27936 43.561 0.877778 43.3899 0.543893C43.2188 0.210008 42.8752 0 42.5 0V1ZM21.9998 30.5C24.8597 30.5 27.3619 32.0233 28.6246 34.3097L30.3754 33.3429C28.7541 30.4072 25.5742 28.5 21.9998 28.5V30.5ZM28.6246 34.3097C29.1503 35.2617 29.4645 36.351 29.5003 37.5303L31.4994 37.4697C31.4538 35.9676 31.0521 34.5682 30.3754 33.3429L28.6246 34.3097ZM30.0393 34.6684L43.0393 26.3421L41.9607 24.6579L28.9607 32.9842L30.0393 34.6684ZM41.5 25.5V50H43.5V25.5H41.5ZM29.5003 37.5303C29.5399 38.8372 29.2175 40.0642 28.6252 41.1335L30.3748 42.1026C31.1342 40.7316 31.5503 39.1504 31.4994 37.4697L29.5003 37.5303ZM28.6252 41.1335C27.3515 43.433 24.8306 45 21.9998 45V47C25.569 47 28.7541 45.0284 30.3748 42.1026L28.6252 41.1335ZM43.0419 49.1596L30.0419 40.7776L28.9581 42.4585L41.9581 50.8404L43.0419 49.1596ZM14.4994 37.5303C14.5441 36.0548 15.0249 34.7178 15.8136 33.6144L14.1864 32.4514C13.1737 33.8684 12.5573 35.5872 12.5003 37.4697L14.4994 37.5303ZM15.8136 33.6144C17.1679 31.7195 19.4414 30.5 21.9998 30.5V28.5C18.8009 28.5 15.9192 30.0271 14.1864 32.4514L15.8136 33.6144ZM15.4738 32.1523L1.47383 24.6194L0.526171 26.3806L14.5262 33.9135L15.4738 32.1523ZM0.000208182 25.5204L0.500208 50.0204L2.49979 49.9796L1.99979 25.4796L0.000208182 25.5204ZM21.9998 45C19.4671 45 17.1803 43.7455 15.8141 41.8303L14.1859 42.9917C15.9175 45.4191 18.8037 47 21.9998 47V45ZM15.8141 41.8303C14.9445 40.6112 14.4509 39.1292 14.4994 37.5303L12.5003 37.4697C12.4379 39.5291 13.0765 41.4365 14.1859 42.9917L15.8141 41.8303ZM1.99003 50.8717L15.49 43.2827L14.51 41.5393L1.00997 49.1283L1.99003 50.8717ZM22.9998 29.5V20H20.9998V29.5H22.9998ZM21.9998 19H13.4998V21H21.9998V19ZM21.9998 10C19.6877 10 17.8883 10.6157 16.5091 11.5893C15.139 12.5564 14.2431 13.834 13.6581 15.073C13.0742 16.3094 12.7873 17.5329 12.6448 18.4383C12.5731 18.8934 12.537 19.2748 12.5187 19.546C12.5095 19.6817 12.5048 19.7904 12.5024 19.8675C12.5012 19.906 12.5005 19.9367 12.5002 19.959C12.5 19.9701 12.4999 19.9791 12.4999 19.986C12.4999 19.9894 12.4998 19.9923 12.4998 19.9946C12.4998 19.9958 12.4998 19.9968 12.4998 19.9977C12.4998 19.9982 12.4998 19.9988 12.4998 19.999C12.4998 19.9995 12.4998 20 13.4998 20C14.4998 20 14.4998 20.0004 14.4998 20.0008C14.4998 20.0009 14.4998 20.0013 14.4998 20.0014C14.4998 20.0018 14.4998 20.002 14.4998 20.0021C14.4998 20.0022 14.4998 20.0019 14.4998 20.001C14.4998 19.9992 14.4999 19.9953 14.5 19.9894C14.5001 19.9776 14.5005 19.9578 14.5014 19.9304C14.5031 19.8756 14.5067 19.7909 14.5142 19.6806C14.5291 19.4596 14.5593 19.1378 14.6205 18.7492C14.7436 17.9671 14.9879 16.9406 15.4666 15.927C15.944 14.916 16.6419 13.9436 17.6624 13.2232C18.6739 12.5093 20.062 12 21.9998 12V10ZM21.9998 2H42.5V0H21.9998V2ZM22.9998 11V1H20.9998V11H22.9998ZM41.6882 0.416067L29.4499 17.4301L31.0735 18.5979L43.3118 1.58393L41.6882 0.416067ZM21.9998 12C24.6779 12 26.3323 12.9719 27.3964 14.1755C28.4926 15.4153 29.0275 16.9784 29.2823 18.2157L31.2412 17.8123C30.9502 16.3993 30.3134 14.4553 28.8947 12.8507C27.444 11.2099 25.2404 10 21.9998 10V12ZM29.2823 18.2157C29.392 18.7482 29.4466 19.2048 29.4736 19.5247C29.4871 19.6844 29.4937 19.809 29.4969 19.891C29.4984 19.932 29.4992 19.9622 29.4995 19.9807C29.4997 19.99 29.4998 19.9963 29.4998 19.9995C29.4998 20.0012 29.4998 20.002 29.4998 20.0021C29.4998 20.0021 29.4998 20.002 29.4998 20.0016C29.4998 20.0015 29.4998 20.0012 29.4998 20.001C29.4998 20.0008 29.4998 20.0007 29.4998 20.0005C29.4998 20.0004 29.4998 20.0003 29.4998 20.0003C29.4998 20.0001 29.4998 20 30.4998 20C31.4998 20 31.4998 19.9999 31.4998 19.9997C31.4998 19.9997 31.4998 19.9995 31.4998 19.9994C31.4998 19.9992 31.4998 19.999 31.4998 19.9987C31.4998 19.9982 31.4998 19.9977 31.4998 19.9971C31.4998 19.996 31.4998 19.9946 31.4998 19.9931C31.4998 19.9899 31.4998 19.986 31.4997 19.9813C31.4996 19.9718 31.4995 19.9591 31.4992 19.9434C31.4986 19.912 31.4975 19.8684 31.4953 19.8135C31.4911 19.7037 31.4828 19.5486 31.4665 19.3562C31.434 18.9722 31.3696 18.4357 31.2412 17.8123L29.2823 18.2157ZM28.0214 19.4161L21.188 28.9161L22.8116 30.0839L29.645 20.5839L28.0214 19.4161ZM30.4998 19H28.8332V21H30.4998V19ZM28.8332 19H13.4998V21H28.8332V19ZM21.9998 21H28.8332V19H21.9998V21Z" fill="white"/>
</svg>
