<svg width="44" height="36" viewBox="0 0 44 36" fill="none" xmlns="http://www.w3.org/2000/svg">
<path d="M21.9998 22.4999L29 18.5M21.9998 22.4999L29.5 27M21.9998 22.4999L15 18.5M21.9998 22.4999L15 27M21.9998 14.4999C25.2169 14.4999 27.558 15.8889 29 18.5M21.9998 14.4999C19.1211 14.4999 16.5436 16.3404 15 18.5M21.9998 14.4999V2M29 18.5L42.5 10.4999V34.9999L29.5 27M29.5 27C28.0528 29.6127 25.1998 30.9999 21.9998 30.9999C19.1354 30.9999 16.5489 29.1713 15 27M15 18.5L1 10.4999L1.5 34.9999L15 27M32.9998 2H21.9998M10.9998 2H21.9998" stroke="white" stroke-width="2" stroke-linecap="round" stroke-linejoin="round"/>
</svg>
