<svg width="45" height="29" viewBox="0 0 45 29" fill="none" xmlns="http://www.w3.org/2000/svg">
<path d="M30.5 10.3263C29.058 7.71523 26.2169 6 22.9998 6C20.1211 6 17.5436 7.37332 16 9.53292M30.5 10.3263C31.1012 11.4149 31.4592 12.6593 31.4998 14C31.5451 15.4938 31.1759 16.8979 30.5 18.1181M30.5 10.3263L43.5 2V26.5L30.5 18.1181M30.5 18.1181C29.0528 20.7307 26.1998 22.5 22.9998 22.5C20.1354 22.5 17.5489 21.0823 16 18.911M16 9.53292C15.0993 10.7931 14.5507 12.321 14.4998 14C14.4444 15.8291 15.0105 17.5239 16 18.911M16 9.53292L2 2L2.5 26.5L16 18.911" stroke="white" stroke-width="2"/>
</svg>
