<svg width="45" height="51" viewBox="0 0 45 51" fill="none" xmlns="http://www.w3.org/2000/svg">
<path d="M22.9998 26.9999C26.2169 26.9999 29.058 28.7151 30.5 31.3262M22.9998 26.9999C20.1211 26.9999 17.5436 28.3732 16 30.5328M22.9998 26.9999L23 22M30.5 31.3262C31.1012 32.4148 31.4592 33.6592 31.4998 34.9999C31.5451 36.4936 31.1759 37.8978 30.5 39.1179M30.5 31.3262L43.5 22.9999V47.4999L30.5 39.1179M30.5 39.1179C29.0528 41.7306 26.1998 43.4999 22.9998 43.4999C20.1354 43.4999 17.5489 42.0822 16 39.9109M16 30.5328C15.0993 31.793 14.5507 33.3209 14.4998 34.9999C14.4444 36.829 15.0105 38.5237 16 39.9109M16 30.5328L2 22.9999L2.5 47.4999L16 39.9109M23 22H36V11.5V1H23H10V22H23ZM17.8047 17.5V5.83594L21.8696 16.5H23.1733L27.2456 5.83594L27.2163 17.5" stroke="white" stroke-width="2"/>
</svg>
