<svg width="45" height="50" viewBox="0 0 45 50" fill="none" xmlns="http://www.w3.org/2000/svg">
<path d="M22.9998 26.9999C26.2169 26.9999 29.058 28.7151 30.5 31.3262M22.9998 26.9999C20.1211 26.9999 17.5436 28.3732 16 30.5328M22.9998 26.9999L23 22.5M30.5 31.3262C31.1012 32.4148 31.4592 33.6592 31.4998 34.9999C31.5451 36.4936 31.1759 37.8978 30.5 39.1179M30.5 31.3262L43.5 22.9999V47.4999L30.5 39.1179M30.5 39.1179C29.0528 41.7306 26.1998 43.4999 22.9998 43.4999C20.1354 43.4999 17.5489 42.0822 16 39.9109M16 30.5328C15.0993 31.793 14.5507 33.3209 14.4998 34.9999C14.4444 36.829 15.0105 38.5237 16 39.9109M16 30.5328L2 22.9999L2.5 47.4999L16 39.9109M23 22.5H36V12V1.5H23H10V22.5H23ZM24.8027 15.0629C24.8027 14.8724 24.7734 14.7015 24.7148 14.5502C24.6611 14.3939 24.5586 14.2523 24.4072 14.1254C24.2559 13.9935 24.0435 13.8641 23.77 13.7372C23.4966 13.6102 23.1426 13.4784 22.708 13.3417C22.2246 13.1854 21.7656 13.0096 21.3311 12.8143C20.9014 12.619 20.5205 12.392 20.1885 12.1332C19.8613 11.8695 19.6025 11.5643 19.4121 11.2177C19.2266 10.871 19.1338 10.4681 19.1338 10.0092C19.1338 9.56482 19.2314 9.16199 19.4268 8.80066C19.6221 8.43445 19.8955 8.12195 20.2471 7.86316C20.5986 7.59949 21.0137 7.39685 21.4922 7.25525C21.9756 7.11365 22.5054 7.04285 23.0815 7.04285C23.8677 7.04285 24.5537 7.18445 25.1396 7.46765C25.7256 7.75085 26.1797 8.13904 26.502 8.6322C26.8291 9.12537 26.9927 9.68933 26.9927 10.3241H24.8101C24.8101 10.0116 24.7441 9.73816 24.6123 9.50378C24.4854 9.26453 24.29 9.07654 24.0264 8.93982C23.7676 8.8031 23.4404 8.73474 23.0449 8.73474C22.6641 8.73474 22.3467 8.79333 22.0928 8.91052C21.8389 9.02283 21.6484 9.17664 21.5215 9.37195C21.3945 9.56238 21.3311 9.77722 21.3311 10.0165C21.3311 10.1971 21.375 10.3607 21.4629 10.5072C21.5557 10.6537 21.6924 10.7904 21.873 10.9174C22.0537 11.0443 22.2759 11.1639 22.5396 11.2762C22.8032 11.3885 23.1084 11.4984 23.4551 11.6058C24.0361 11.7816 24.5464 11.9794 24.9858 12.1991C25.4302 12.4188 25.8013 12.6654 26.0991 12.9388C26.397 13.2123 26.6216 13.5223 26.7729 13.869C26.9243 14.2157 27 14.6088 27 15.0482C27 15.5121 26.9097 15.9271 26.729 16.2933C26.5483 16.6595 26.2871 16.9696 25.9453 17.2235C25.6035 17.4774 25.1958 17.6703 24.7222 17.8021C24.2485 17.934 23.7188 17.9999 23.1328 17.9999C22.6055 17.9999 22.0854 17.9315 21.5728 17.7948C21.0601 17.6532 20.5938 17.4408 20.1738 17.1576C19.7588 16.8744 19.4268 16.5131 19.1777 16.0736C18.9287 15.6342 18.8042 15.1141 18.8042 14.5135H21.0088C21.0088 14.8456 21.0601 15.1263 21.1626 15.3558C21.2651 15.5853 21.4092 15.7709 21.5947 15.9125C21.7852 16.0541 22.0098 16.1566 22.2686 16.2201C22.5322 16.2836 22.8203 16.3153 23.1328 16.3153C23.5137 16.3153 23.8262 16.2616 24.0703 16.1542C24.3193 16.0468 24.5024 15.8978 24.6196 15.7074C24.7417 15.517 24.8027 15.3021 24.8027 15.0629Z" stroke="white" stroke-width="2"/>
</svg>
