<svg width="45" height="38" viewBox="0 0 45 38" fill="none" xmlns="http://www.w3.org/2000/svg">
<path d="M22.9998 15.4999C26.2169 15.4999 29.058 17.2151 30.5 19.8262M22.9998 15.4999C20.1211 15.4999 17.5436 16.8732 16 19.0328M22.9998 15.4999L23 1M30.5 19.8262C31.1012 20.9148 31.4592 22.1592 31.4998 23.4999C31.5451 24.9936 31.1759 26.3978 30.5 27.6179M30.5 19.8262L43.5 11.4999V35.9999L30.5 27.6179M30.5 27.6179C29.0528 30.2306 26.1998 31.9999 22.9998 31.9999C20.1354 31.9999 17.5489 30.5822 16 28.4109M16 19.0328C15.0993 20.293 14.5507 21.8209 14.4998 23.4999C14.4444 25.329 15.0105 27.0237 16 28.4109M16 19.0328L2 11.4999L2.5 35.9999L16 28.4109M36 1H23M10 1H23" stroke="white" stroke-width="2"/>
</svg>
