<svg width="32" height="77" viewBox="0 0 32 77" fill="none" xmlns="http://www.w3.org/2000/svg">
<path d="M31 29.5035C31 43.5033 31 63.5009 31 76M31 29.5035V76M31 29.5035C31 24.3877 26.9939 21.1414 21.9096 19.7645M31 76H1C1.00079 64.0009 1 43.5025 1 29.5035C1 24.3878 5.00635 21.1414 10.0909 19.7645M10.0909 19.7645C11.9618 19.2579 13.9787 19.0044 15.9957 19.004C18.0158 19.0036 20.0359 19.2571 21.9096 19.7645M10.0909 19.7645C10.0909 19.7645 8.56062 1.37143 15.5455 1.00536C22.6464 0.633202 21.9096 19.7645 21.9096 19.7645" stroke="white" stroke-width="2"/>
</svg>
