<svg width="32" height="105" viewBox="0 0 32 105" fill="none" xmlns="http://www.w3.org/2000/svg">
<path d="M1 104L1.15503e-09 104C-1.27464e-05 104.265 0.105338 104.52 0.292876 104.707C0.480414 104.895 0.734775 105 1 105V104ZM31 104V105C31.5523 105 32 104.553 32 104H31ZM15.9957 26.0057L15.9955 25.0057L15.9957 26.0057ZM21.9096 27.0464L21.5622 27.9841L21.9096 27.0464ZM15.5455 1.37599L15.4739 0.378549L15.5455 1.37599ZM2 104C2.00079 87.5804 2 59.5299 2 40.3735H0C0 59.53 0.000789189 87.5804 1.15503e-09 104L2 104ZM30 40.3735C30 59.5241 30 86.9031 30 104H32C32 86.9031 32 59.5241 32 40.3735L30 40.3735ZM1 105H31V103H1V105ZM32 104V40.3735H30V104H32ZM2 40.3735C2 33.8346 5.70378 29.7386 10.4384 27.9841L9.74344 26.1087C4.30893 28.1226 0 32.9114 0 40.3735H2ZM10.4384 27.9841C12.1929 27.334 14.0918 27.0062 15.996 27.0057L15.9955 25.0057C13.8656 25.0063 11.7307 25.3723 9.74344 26.1087L10.4384 27.9841ZM15.996 27.0057C17.903 27.0052 19.805 27.333 21.5622 27.9841L22.2571 26.1088C20.2669 25.3712 18.1285 25.0052 15.9955 25.0057L15.996 27.0057ZM21.5622 27.9841C26.2965 29.7385 30 33.8344 30 40.3735L32 40.3735C32 32.9113 27.6914 28.1225 22.2571 26.1088L21.5622 27.9841ZM21.9096 27.0464C22.9092 27.0746 22.9092 27.0743 22.9093 27.074C22.9093 27.0738 22.9093 27.0733 22.9093 27.0728C22.9093 27.0719 22.9094 27.0705 22.9094 27.0687C22.9095 27.0652 22.9096 27.0601 22.9098 27.0535C22.9101 27.0401 22.9106 27.0206 22.9112 26.9951C22.9125 26.9441 22.9141 26.8691 22.916 26.7717C22.9197 26.5768 22.9242 26.2924 22.9274 25.9313C22.9337 25.2092 22.9348 24.1798 22.9137 22.9467C22.8715 20.4834 22.7407 17.194 22.3846 13.9123C22.0303 10.6483 21.4458 7.31738 20.4672 4.80872C19.9788 3.55682 19.3641 2.43427 18.5689 1.62979C17.7501 0.801551 16.7125 0.289718 15.4739 0.378549L15.617 2.37343C16.1536 2.33494 16.6463 2.52982 17.1465 3.0358C17.6701 3.56555 18.1628 4.40474 18.604 5.53557C19.4843 7.79238 20.0471 10.9109 20.3962 14.1281C20.7435 17.3277 20.8724 20.5515 20.914 22.9809C20.9347 24.1942 20.9337 25.2061 20.9275 25.9137C20.9244 26.2675 20.92 26.545 20.9164 26.7334C20.9146 26.8276 20.913 26.8996 20.9118 26.9476C20.9112 26.9716 20.9108 26.9896 20.9105 27.0015C20.9103 27.0074 20.9102 27.0118 20.9101 27.0146C20.9101 27.016 20.9101 27.017 20.91 27.0176C20.91 27.0179 20.91 27.0181 20.91 27.0183C20.91 27.0183 20.91 27.0183 21.9096 27.0464ZM15.4739 0.378549C14.2674 0.465081 13.2965 1.09079 12.5442 1.97466C11.8048 2.84327 11.2413 3.99705 10.8012 5.27205C9.92023 7.82433 9.44907 11.1191 9.20184 14.3221C8.95339 17.5408 8.92647 20.7355 8.96105 23.1204C8.97836 24.3142 9.01113 25.3082 9.03963 26.0048C9.05389 26.3532 9.06708 26.6274 9.07675 26.8151C9.08159 26.909 9.08555 26.9813 9.08831 27.0304C9.0897 27.055 9.09079 27.0738 9.09154 27.0867C9.09192 27.0931 9.09221 27.098 9.09241 27.1014C9.09251 27.1032 9.09259 27.1045 9.09265 27.1054C9.09268 27.1059 9.0927 27.1063 9.09272 27.1066C9.09274 27.1069 9.09275 27.1071 10.0909 27.0464C11.0891 26.9858 11.0891 26.9858 11.0891 26.9857C11.0891 26.9856 11.089 26.9854 11.089 26.9851C11.089 26.9846 11.0889 26.9836 11.0889 26.9823C11.0887 26.9796 11.0884 26.9754 11.0881 26.9697C11.0875 26.9584 11.0864 26.9411 11.0852 26.918C11.0826 26.8719 11.0788 26.8028 11.0741 26.7122C11.0648 26.531 11.0519 26.2639 11.038 25.9231C11.0101 25.2413 10.9779 24.265 10.9608 23.0914C10.9268 20.7413 10.9538 17.6123 11.1959 14.476C11.4392 11.3241 11.8951 8.2325 12.6917 5.9246C13.0904 4.76952 13.5533 3.87475 14.0672 3.27102C14.5681 2.68255 15.0773 2.41213 15.617 2.37343L15.4739 0.378549Z" fill="white"/>
</svg>
