<svg width="32" height="105" viewBox="0 0 32 105" fill="none" xmlns="http://www.w3.org/2000/svg">
<path d="M31 40.3735C31 59.531 31 86.8962 31 104M31 40.3735V104M31 40.3735C31 33.3728 26.9939 28.9305 21.9096 27.0464M31 104H1C1.00079 87.5804 1 59.5299 1 40.3735C1 33.373 5.00635 28.9306 10.0909 27.0464M10.0909 27.0464C11.9618 26.3532 13.9787 26.0062 15.9957 26.0057C18.0158 26.0052 20.0359 26.3521 21.9096 27.0464M10.0909 27.0464C10.0909 27.0464 8.56062 1.87693 15.5455 1.37599C22.6464 0.866719 21.9096 27.0464 21.9096 27.0464" stroke="white" stroke-width="2"/>
</svg>
