<svg width="377" height="277" viewBox="0 0 377 277" fill="none" xmlns="http://www.w3.org/2000/svg">
<path d="M188.739 172.892C180.751 172.892 173.404 170.15 167.587 165.556C159.667 159.301 154.584 149.613 154.584 138.737" stroke="#FFC557" stroke-width="34.1549" stroke-linecap="round" stroke-linejoin="round"/>
<path d="M154.584 138.737C154.584 119.874 169.876 104.583 188.739 104.583" stroke="#D65B4F" stroke-width="34.1549" stroke-linecap="round" stroke-linejoin="round"/>
<path d="M261.146 66.3291C270.673 75.8453 278.231 87.146 283.387 99.585C288.543 112.024 291.198 125.357 291.198 138.823C291.198 152.288 288.543 165.622 283.387 178.061C278.231 190.5 270.673 201.8 261.146 211.316M116.33 211.146C106.803 201.63 99.245 190.329 94.0886 177.89C88.9321 165.451 86.278 152.117 86.278 138.652C86.278 125.187 88.9321 111.853 94.0886 99.4142C99.245 86.9752 106.803 75.6745 116.33 66.1583M309.475 18C341.49 50.0249 359.476 93.4542 359.476 138.737C359.476 184.021 341.49 227.45 309.475 259.475M68.0004 259.475C35.9852 227.45 18 184.021 18 138.737C18 93.4542 35.9852 50.0249 68.0004 18" stroke="#005EB8" stroke-width="34.1549" stroke-linecap="round" stroke-linejoin="round"/>
<path d="M68.0004 259.475C35.9852 227.45 18 184.021 18 138.737C18 93.4542 35.9852 50.0249 68.0004 18" stroke="#FFC557" stroke-width="34.1549" stroke-linecap="round" stroke-linejoin="round"/>
<path d="M116.33 211.146C106.803 201.63 99.2456 190.329 94.0891 177.89C88.9327 165.451 86.2786 152.118 86.2786 138.652C86.2786 125.187 88.9327 111.854 94.0891 99.4146C99.2456 86.9756 106.803 75.6749 116.33 66.1587" stroke="#D65B4F" stroke-width="34.1549" stroke-linecap="round" stroke-linejoin="round"/>
<path d="M261.146 66.3296C270.672 75.8458 278.23 87.1464 283.386 99.5854C288.543 112.024 291.197 125.358 291.197 138.823C291.197 152.289 288.543 165.622 283.386 178.061C278.23 190.5 270.672 201.801 261.146 211.317" stroke="#4588C9" stroke-width="34.1549" stroke-linecap="round" stroke-linejoin="round"/>
<path d="M222.894 138.737C222.894 119.874 207.602 104.583 188.739 104.583" stroke="#4588C9" stroke-width="34.1549" stroke-linecap="round" stroke-linejoin="round"/>
<path d="M222.894 138.737C222.894 148.372 218.905 157.074 212.488 163.284C206.342 169.232 197.968 172.892 188.739 172.892" stroke="#005EB8" stroke-width="34.1549" stroke-linecap="round" stroke-linejoin="round"/>
<path d="M188.739 172.892C183.925 172.892 179.344 171.897 175.191 170.1" stroke="#FFC557" stroke-width="34.1549" stroke-linecap="round" stroke-linejoin="round"/>
</svg>
