<svg width="115" height="53" viewBox="0 0 115 53" fill="none" xmlns="http://www.w3.org/2000/svg">
<path d="M56.3643 12.1385C75.3236 2.1382 111.893 30.4572 111.893 30.4572C111.893 30.4572 90.5666 24.3193 79.8353 33.3195C75.6887 36.7972 74.5497 40.454 69.5309 42.4788C64.0418 44.6934 59.565 42.9102 54.647 39.6165C49.0713 35.8824 45.4867 31.4185 46.06 24.7325C46.7359 16.8511 52.0231 14.4283 56.3643 12.1385Z" fill="#D65B4F" stroke="black" stroke-width="5" stroke-linejoin="round"/>
<path d="M52.1395 19.3368C62.8936 17.8002 76 24 76 24C73.525 26.0757 63.1095 36.1255 52.1395 33.9316C48.2989 33.1634 45.6879 29.8175 46.0301 25.8267C46.4335 21.1224 49.8583 19.6628 52.1395 19.3368Z" fill="#FFC557" stroke="black" stroke-width="5" stroke-linejoin="round"/>
<path fill-rule="evenodd" clip-rule="evenodd" d="M16.7391 26.6158L16.7391 19.1733C16.7391 16.644 14.6887 14.5942 12.1594 14.5942H7.57969C5.0504 14.5942 3 16.6446 3 19.1738L3 35.2028C3 37.7321 5.0504 39.7825 7.57969 39.7825H12.1594C14.6887 39.7825 16.7391 37.7331 16.7391 35.2038L16.7391 26.6158Z" fill="#4588C9"/>
<path d="M56.2389 46.1074L56.2389 7.80886C56.2389 4.84725 53.4882 2.71398 50.6791 3.65198C41.7991 6.61707 24.6158 13.7644 16.7391 26.6158C24.6417 40.3414 41.9122 47.4187 50.7664 50.2629C53.5521 51.1577 56.2389 49.0333 56.2389 46.1074Z" fill="#005EB8"/>
<path d="M16.7391 26.6158C24.6417 40.3414 41.9122 47.4187 50.7664 50.2629M16.7391 26.6158L16.7391 35.2038M16.7391 26.6158L16.7391 19.1733M16.7391 26.6158C24.6158 13.7644 41.7991 6.61707 50.6791 3.65198M16.7391 26.6158C16.7391 24.2218 16.7391 21.451 16.7391 19.1733M16.7391 26.6158C16.7391 29.2116 16.7391 32.542 16.7391 35.2038M56.2389 7.80886L56.2389 46.1074M56.2389 7.80886C56.2389 4.84725 53.4882 2.71398 50.6791 3.65198M56.2389 7.80886V7.80886C56.2389 4.85106 53.4846 2.71519 50.6791 3.65198V3.65198M56.2389 46.1074C56.2389 49.0333 53.5521 51.1577 50.7664 50.2629M56.2389 46.1074V46.1074C56.2389 49.0283 53.5473 51.1562 50.7664 50.2629V50.2629M16.7391 35.2038C16.7391 37.7331 14.6887 39.7825 12.1594 39.7825M16.7391 35.2038V35.2038C16.7391 37.7325 14.6881 39.7825 12.1594 39.7825V39.7825M12.1594 39.7825H7.57969M7.57969 39.7825C5.0504 39.7825 3 37.7321 3 35.2028M7.57969 39.7825V39.7825C5.0504 39.7825 3 37.7321 3 35.2028V35.2028M3 35.2028L3 19.1738M3 19.1738C3 16.6446 5.0504 14.5942 7.57969 14.5942M3 19.1738V19.1738C3 16.6446 5.0504 14.5942 7.57969 14.5942V14.5942M7.57969 14.5942H12.1594M12.1594 14.5942C14.6887 14.5942 16.7391 16.644 16.7391 19.1733M12.1594 14.5942V14.5942C14.6884 14.5942 16.7391 16.6443 16.7391 19.1733V19.1733" stroke="black" stroke-width="5"/>
</svg>
