<svg width="196" height="1790" viewBox="0 0 196 1790" fill="none" xmlns="http://www.w3.org/2000/svg">
<path d="M132.381 1725.86L177.054 1687.14V1648.42L132.381 1575.46V1725.86Z" fill="#C1C1C1"/>
<path d="M65.3727 1575.46L22.1885 1648.42V1687.14L65.3727 1725.86V1575.46Z" fill="#C1C1C1"/>
<path d="M96.643 1728.83H102.599L108.556 1718.41V1716.92V1712.45V1597.79V1593.33V1584.39L102.599 1565.03H96.643L89.1976 1584.39V1593.33V1597.79V1712.45V1716.92V1718.41L96.643 1728.83Z" fill="#C1C1C1"/>
<path fill-rule="evenodd" clip-rule="evenodd" d="M77.2876 1789.89H121.958C121.958 1789.89 135.358 1748.19 132.381 1727.35V1725.86V1575.46V784.751H65.3727V1575.46V1725.86V1727.35C62.3932 1751.17 77.2876 1789.89 77.2876 1789.89ZM102.599 1728.83H96.643L89.1976 1718.41V1716.92H84.7303V1712.45H89.1976V1597.79H84.7303V1593.33H89.1976V1584.39L96.643 1565.03H102.599L108.556 1584.39V1593.33H113.023V1597.79H108.556V1712.45H113.023V1716.92H108.556V1718.41L102.599 1728.83ZM121.958 1716.92V1712.45H126.425V1716.92H121.958ZM71.3285 1712.45H75.7957V1716.92H71.3285V1712.45ZM121.958 1597.79V1593.33H126.425V1597.79H121.958ZM71.3285 1597.79V1593.33H75.7957V1597.79H71.3285ZM121.958 1536.74V1532.27H126.425V1536.74H121.958ZM108.556 1536.74V1532.27H113.023V1536.74H108.556ZM96.643 1536.74V1532.27H101.11V1536.74H96.643ZM84.7303 1536.74V1532.27H89.1976V1536.74H84.7303ZM71.3285 1536.74V1532.27H75.7957V1536.74H71.3285ZM123.447 824.956V820.489H127.914V824.956H123.447ZM110.045 824.956V820.489H114.512V824.956H110.045ZM98.1321 824.956V820.489H102.599V824.956H98.1321ZM86.2194 824.956V820.489H90.6866V824.956H86.2194ZM72.8176 824.956V820.489H77.2848V824.956H72.8176ZM123.447 1186.81V1182.34H127.914V1186.81H123.447ZM110.045 1186.81V1182.34H114.512V1186.81H110.045ZM98.1321 1186.81V1182.34H102.599V1186.81H98.1321ZM86.2194 1186.81V1182.34H90.6866V1186.81H86.2194ZM72.8176 1186.81V1182.34H77.2848V1186.81H72.8176Z" fill="#C1C1C1"/>
<path d="M71.3285 1532.27V1536.74H75.7957V1532.27H71.3285Z" fill="#C1C1C1"/>
<path d="M84.7303 1532.27V1536.74H89.1976V1532.27H84.7303Z" fill="#C1C1C1"/>
<path d="M96.643 1532.27V1536.74H101.11V1532.27H96.643Z" fill="#C1C1C1"/>
<path d="M108.556 1532.27V1536.74H113.023V1532.27H108.556Z" fill="#C1C1C1"/>
<path d="M121.958 1532.27V1536.74H126.425V1532.27H121.958Z" fill="#C1C1C1"/>
<path d="M71.3285 1593.33V1597.79H75.7957V1593.33H71.3285Z" fill="#C1C1C1"/>
<path d="M84.7303 1597.79H89.1976V1593.33H84.7303V1597.79Z" fill="#C1C1C1"/>
<path d="M108.556 1597.79H113.023V1593.33H108.556V1597.79Z" fill="#C1C1C1"/>
<path d="M121.958 1593.33V1597.79H126.425V1593.33H121.958Z" fill="#C1C1C1"/>
<path d="M75.7957 1712.45H71.3285V1716.92H75.7957V1712.45Z" fill="#C1C1C1"/>
<path d="M89.1976 1712.45H84.7303V1716.92H89.1976V1712.45Z" fill="#C1C1C1"/>
<path d="M113.023 1712.45H108.556V1716.92H113.023V1712.45Z" fill="#C1C1C1"/>
<path d="M121.958 1712.45V1716.92H126.425V1712.45H121.958Z" fill="#C1C1C1"/>
<path d="M72.8176 1182.34V1186.81H77.2848V1182.34H72.8176Z" fill="#C1C1C1"/>
<path d="M86.2194 1182.34V1186.81H90.6866V1182.34H86.2194Z" fill="#C1C1C1"/>
<path d="M98.1321 1182.34V1186.81H102.599V1182.34H98.1321Z" fill="#C1C1C1"/>
<path d="M110.045 1182.34V1186.81H114.512V1182.34H110.045Z" fill="#C1C1C1"/>
<path d="M123.447 1182.34V1186.81H127.914V1182.34H123.447Z" fill="#C1C1C1"/>
<path d="M72.8176 820.489V824.956H77.2848V820.489H72.8176Z" fill="#C1C1C1"/>
<path d="M86.2194 820.489V824.956H90.6866V820.489H86.2194Z" fill="#C1C1C1"/>
<path d="M98.1321 820.489V824.956H102.599V820.489H98.1321Z" fill="#C1C1C1"/>
<path d="M110.045 820.489V824.956H114.512V820.489H110.045Z" fill="#C1C1C1"/>
<path d="M123.447 820.489V824.956H127.914V820.489H123.447Z" fill="#C1C1C1"/>
<path fill-rule="evenodd" clip-rule="evenodd" d="M132.381 751.991H65.3727V784.751H132.381V751.991ZM108.556 759.436C108.556 757.791 109.889 756.458 111.534 756.458C113.179 756.458 114.512 757.791 114.512 759.436C114.512 761.081 113.179 762.414 111.534 762.414C109.889 762.414 108.556 761.081 108.556 759.436ZM84.7303 759.436C84.7303 757.791 86.0637 756.458 87.7085 756.458C89.3533 756.458 90.6866 757.791 90.6866 759.436C90.6866 761.081 89.3533 762.414 87.7085 762.414C86.0637 762.414 84.7303 761.081 84.7303 759.436Z" fill="#C1C1C1"/>
<path d="M65.3727 751.991H132.381V747.524H102.599V734.122H96.643V747.524H65.3727V751.991Z" fill="#C1C1C1"/>
<path fill-rule="evenodd" clip-rule="evenodd" d="M132.381 192.093H65.3727V707.318H72.8176V740.078H69.8394V731.144H65.3727V747.524H96.643V734.122H102.599V747.524H132.381V731.144H129.403V740.078H125.635L124.936 707.318H132.381V192.093ZM80.263 740.078V707.318H118.979V740.078H108.556V729.654H92.1757V740.078H80.263ZM123.447 655.2V650.733H127.914V655.2H123.447ZM110.045 655.2V650.733H114.512V655.2H110.045ZM98.1321 655.2V650.733H102.599V655.2H98.1321ZM86.2194 655.2V650.733H90.6866V655.2H86.2194ZM72.8176 655.2V650.733H77.2848V655.2H72.8176ZM96.643 696.894C96.643 695.25 97.9764 693.916 99.6212 693.916C101.266 693.916 102.599 695.25 102.599 696.894C102.599 698.539 101.266 699.873 99.6212 699.873C97.9764 699.873 96.643 698.539 96.643 696.894ZM74.3067 696.894C74.3067 695.25 75.64 693.916 77.2848 693.916C78.9296 693.916 80.263 695.25 80.263 696.894C80.263 698.539 78.9296 699.873 77.2848 699.873C75.64 699.873 74.3067 698.539 74.3067 696.894ZM118.979 696.894C118.979 695.25 120.313 693.916 121.958 693.916C123.602 693.916 124.936 695.25 124.936 696.894C124.936 698.539 123.602 699.873 121.958 699.873C120.313 699.873 118.979 698.539 118.979 696.894Z" fill="#C1C1C1"/>
<path d="M80.263 707.318V740.078H92.1757V729.654H108.556V740.078H118.979V707.318H80.263Z" fill="#C1C1C1"/>
<path d="M72.8176 707.318H65.3727V731.144H69.8394V740.078H72.8176V707.318Z" fill="#C1C1C1"/>
<path d="M132.381 707.318H124.936L125.635 740.078H129.403V731.144H132.381V707.318Z" fill="#C1C1C1"/>
<path d="M77.2848 693.916C75.64 693.916 74.3067 695.25 74.3067 696.894C74.3067 698.539 75.64 699.873 77.2848 699.873C78.9296 699.873 80.263 698.539 80.263 696.894C80.263 695.25 78.9296 693.916 77.2848 693.916Z" fill="#C1C1C1"/>
<path d="M99.6212 693.916C97.9764 693.916 96.643 695.25 96.643 696.894C96.643 698.539 97.9764 699.873 99.6212 699.873C101.266 699.873 102.599 698.539 102.599 696.894C102.599 695.25 101.266 693.916 99.6212 693.916Z" fill="#C1C1C1"/>
<path d="M121.958 693.916C120.313 693.916 118.979 695.25 118.979 696.894C118.979 698.539 120.313 699.873 121.958 699.873C123.602 699.873 124.936 698.539 124.936 696.894C124.936 695.25 123.602 693.916 121.958 693.916Z" fill="#C1C1C1"/>
<path d="M87.7085 756.458C86.0637 756.458 84.7303 757.791 84.7303 759.436C84.7303 761.081 86.0637 762.414 87.7085 762.414C89.3533 762.414 90.6866 761.081 90.6866 759.436C90.6866 757.791 89.3533 756.458 87.7085 756.458Z" fill="#C1C1C1"/>
<path d="M111.534 756.458C109.889 756.458 108.556 757.791 108.556 759.436C108.556 761.081 109.889 762.414 111.534 762.414C113.179 762.414 114.512 761.081 114.512 759.436C114.512 757.791 113.179 756.458 111.534 756.458Z" fill="#C1C1C1"/>
<path d="M72.8176 650.733V655.2H77.2848V650.733H72.8176Z" fill="#C1C1C1"/>
<path d="M86.2194 650.733V655.2H90.6866V650.733H86.2194Z" fill="#C1C1C1"/>
<path d="M98.1321 650.733V655.2H102.599V650.733H98.1321Z" fill="#C1C1C1"/>
<path d="M110.045 650.733V655.2H114.512V650.733H110.045Z" fill="#C1C1C1"/>
<path d="M123.447 650.733V655.2H127.914V650.733H123.447Z" fill="#C1C1C1"/>
<path d="M65.3727 192.093H132.381C132.381 192.093 121.958 0 99.6212 0C80.263 0 65.3727 192.093 65.3727 192.093Z" fill="#C1C1C1"/>
<path d="M98 795.094C43.9922 795.094 0 839.087 0 893.094C0 947.102 43.9922 991.094 98 991.094C152.008 991.094 196 947.102 196 893.094C196 839.087 152.008 795.094 98 795.094ZM98 814.694C141.415 814.694 176.4 849.679 176.4 893.094C176.4 936.51 141.415 971.494 98 971.494C54.5848 971.494 19.6 936.51 19.6 893.094C19.6 849.679 54.5848 814.694 98 814.694ZM88.2 844.094V883.294H49V902.894H88.2V942.094H107.8V902.894H147V883.294H107.8V844.094H88.2Z" fill="#838383"/>
</svg>
