<svg width="84" height="62" viewBox="0 0 84 62" fill="none" xmlns="http://www.w3.org/2000/svg">
<path d="M42.0984 38.6145C46.2496 38.6145 49.6147 35.2493 49.6147 31.0981C49.6147 26.947 46.2496 23.5818 42.0984 23.5818C37.9472 23.5818 34.582 26.947 34.582 31.0981C34.582 35.2493 37.9472 38.6145 42.0984 38.6145Z" stroke="#FCFCFC" stroke-width="7.51636" stroke-linecap="round" stroke-linejoin="round"/>
<path d="M58.0328 15.1635C60.1294 17.2577 61.7926 19.7446 62.9273 22.482C64.0621 25.2194 64.6462 28.1537 64.6462 31.1169C64.6462 34.0802 64.0621 37.0145 62.9273 39.7519C61.7926 42.4893 60.1294 44.9762 58.0328 47.0704M26.1635 47.0328C24.067 44.9386 22.4038 42.4517 21.269 39.7143C20.1342 36.9769 19.5502 34.0427 19.5502 31.0794C19.5502 28.1161 20.1342 25.1818 21.269 22.4444C22.4038 19.707 24.067 17.2201 26.1635 15.1259M68.6685 4.52783C75.714 11.5755 79.6719 21.1328 79.6719 31.0982C79.6719 41.0635 75.714 50.6209 68.6685 57.6685M15.5279 57.6685C8.48235 50.6209 4.52441 41.0635 4.52441 31.0982C4.52441 21.1328 8.48235 11.5755 15.5279 4.52783" stroke="#005EB8" stroke-width="7.51636" stroke-linecap="round" stroke-linejoin="round"/>
<path d="M15.5279 57.6685C8.48235 50.6209 4.52441 41.0635 4.52441 31.0982C4.52441 21.1328 8.48235 11.5755 15.5279 4.52783" stroke="#FFC557" stroke-width="7.51636" stroke-linecap="round" stroke-linejoin="round"/>
<path d="M26.1636 47.0329C24.0671 44.9387 22.4039 42.4518 21.2691 39.7144C20.1344 36.977 19.5503 34.0427 19.5503 31.0794C19.5503 28.1161 20.1344 25.1819 21.2691 22.4445C22.4039 19.7071 24.0671 17.2202 26.1636 15.126" stroke="#D65B4F" stroke-width="7.51636" stroke-linecap="round" stroke-linejoin="round"/>
<path d="M58.0327 15.1636C60.1292 17.2578 61.7924 19.7447 62.9272 22.4821C64.062 25.2195 64.6461 28.1537 64.6461 31.117C64.6461 34.0803 64.062 37.0146 62.9272 39.752C61.7924 42.4894 60.1292 44.9763 58.0327 47.0705" stroke="#4588C9" stroke-width="7.51636" stroke-linecap="round" stroke-linejoin="round"/>
</svg>
