<svg width="355" height="260" viewBox="0 0 355 260" fill="none" xmlns="http://www.w3.org/2000/svg">
<g clip-path="url(#clip0_816_3730)">
<path d="M177.882 161.95C195.557 161.95 209.885 147.541 209.885 129.767C209.885 111.993 195.557 97.5839 177.882 97.5839C160.207 97.5839 145.879 111.993 145.879 129.767C145.879 147.541 160.207 161.95 177.882 161.95Z" stroke="#383838" stroke-width="32.183" stroke-linecap="round" stroke-linejoin="round"/>
<path d="M245.728 61.539C254.655 70.5058 261.736 81.154 266.568 92.8749C271.4 104.596 273.887 117.159 273.887 129.847C273.887 142.535 271.4 155.099 266.568 166.82C261.736 178.541 254.655 189.189 245.728 198.156M110.035 197.995C101.108 189.028 94.0263 178.38 89.1947 166.659C84.3631 154.938 81.8762 142.375 81.8762 129.687C81.8762 116.998 84.3631 104.435 89.1947 92.714C94.0263 80.9931 101.108 70.3449 110.035 61.3781M291.013 16C321.011 46.176 337.863 87.0981 337.863 129.767C337.863 172.436 321.011 213.358 291.013 243.534M64.75 243.534C34.7516 213.358 17.8994 172.436 17.8994 129.767C17.8994 87.0981 34.7516 46.176 64.75 16" stroke="#005EB8" stroke-width="32.183" stroke-linecap="round" stroke-linejoin="round"/>
<path d="M64.75 243.534C34.7516 213.358 17.8994 172.436 17.8994 129.767C17.8994 87.0981 34.7516 46.176 64.75 16" stroke="#FFC557" stroke-width="32.183" stroke-linecap="round" stroke-linejoin="round"/>
<path d="M110.037 197.995C101.111 189.028 94.0291 178.38 89.1974 166.659C84.3658 154.938 81.8789 142.374 81.8789 129.686C81.8789 116.998 84.3658 104.435 89.1974 92.7138C94.0291 80.9929 101.111 70.3447 110.037 61.3779" stroke="#D65B4F" stroke-width="32.183" stroke-linecap="round" stroke-linejoin="round"/>
<path d="M245.729 61.5389C254.656 70.5057 261.738 81.1539 266.569 92.8748C271.401 104.596 273.888 117.159 273.888 129.847C273.888 142.535 271.401 155.099 266.569 166.82C261.738 178.541 254.656 189.189 245.729 198.156" stroke="#4588C9" stroke-width="32.183" stroke-linecap="round" stroke-linejoin="round"/>
</g>
<defs>
<clipPath id="clip0_816_3730">
<rect width="355" height="260" rx="50" fill="white"/>
</clipPath>
</defs>
</svg>
