<svg width="48" height="586" viewBox="0 0 48 586" fill="none" xmlns="http://www.w3.org/2000/svg">
<path d="M23.2961 0.858784C23.2961 0.858784 14.8932 33.6075 14.8932 65.1117L14.6902 155.241C14.6902 155.241 18.7115 211.763 23.2951 211.763C29.0229 211.763 32.4608 155.241 32.4608 155.241V65.1117C32.4608 33.6075 25.2057 0.858784 25.2057 0.858784C24.8238 -0.28622 23.678 -0.286302 23.2961 0.858784Z" fill="#C6232C"/>
<path d="M23.2951 211.763C18.7115 211.763 14.6902 155.241 14.6902 155.241L14.5388 222.456C14.5388 222.456 20.2414 303.038 23.2951 303.038C27.4974 303.038 32.4608 222.456 32.4608 222.456V155.241C32.4608 155.241 29.0229 211.763 23.2951 211.763Z" fill="#FCB701"/>
<path d="M23.2951 303.038C20.2414 303.038 14.5388 222.456 14.5388 222.456L14.5385 522.251L14.5385 574.19L14.5385 576.099C14.7865 576.187 15.0324 576.27 15.2762 576.349L23.2961 469.93L31.3783 576.349C31.7346 576.269 32.0953 576.185 32.4607 576.099V574.19L32.4607 522.251L32.4608 222.456C32.4608 222.456 27.4974 303.038 23.2951 303.038Z" fill="#64DDFE"/>
<path d="M23.2961 469.93L15.2762 576.349L23.2961 512.321L31.3783 576.349L23.2961 469.93Z" fill="#FCB701"/>
<path d="M15.2762 576.349C21.0301 578.215 25.6485 577.648 31.3783 576.349L23.2961 512.321L15.2762 576.349Z" fill="#C6232C"/>
<path d="M0 572.28L14.5385 574.19L14.5385 522.251L0 553.949V572.28Z" fill="black"/>
<path d="M47.3561 553.949L32.4607 522.251L32.4607 574.19L47.3561 572.28V553.949Z" fill="black"/>
<path d="M15.2762 576.349C15.0324 576.27 14.7865 576.187 14.5385 576.099V583.355C14.5385 583.355 18.7133 585.647 23.2961 585.647C27.879 585.647 32.4607 583.355 32.4607 583.355V576.099C32.0953 576.185 31.7346 576.269 31.3783 576.349C25.6485 577.648 21.0301 578.215 15.2762 576.349Z" fill="black"/>
</svg>
