<svg width="43" height="570" viewBox="0 0 43 570" fill="none" xmlns="http://www.w3.org/2000/svg">
<path d="M30.1704 562.322V521.84V330.888H27.1152V563.086H30.1704V562.322Z" fill="#08498E"/>
<path d="M42.0094 545.9C38.1904 536.902 30.1704 521.84 30.1704 521.84V562.322C30.1704 562.322 37.8085 560.962 42.0094 557.739V545.9Z" fill="#2666BF"/>
<path d="M15.6581 330.888V563.086H27.1152V330.888H15.6581Z" fill="#B7212A"/>
<path d="M11.8392 562.322V563.086H15.6581V330.888H11.8392V521.84V562.322Z" fill="#FCB700"/>
<path d="M0 557.739C3.43714 560.198 11.8392 562.322 11.8392 562.322V521.84C11.8392 521.84 3.43714 537.284 0 545.9V557.739Z" fill="#F0AF26"/>
<path d="M29.7885 566.905C30.3581 565.526 30.1704 563.086 30.1704 563.086H27.1152H15.6581H11.8392C11.8392 563.086 11.6232 565.666 12.2209 566.905C12.8187 568.143 14.5124 569.196 14.5124 569.196H28.2609C28.2609 569.196 29.3437 567.981 29.7885 566.905Z" fill="black"/>
<path d="M11.8392 330.888H15.6581H27.1152H30.1704V326.687H27.1152H15.6581H11.8392V330.888Z" fill="#14325F"/>
<path d="M27.1152 326.687V93.0729C23.7136 93.4268 18.6644 93.6977 15.2762 93.3438L15.6581 326.687H27.1152Z" fill="#C6232C"/>
<path d="M11.8392 92.2089V326.687H15.6581L15.2762 93.3438C13.4756 93.1558 11.8539 92.6017 11.8392 92.2089Z" fill="#FCB701"/>
<path d="M30.1704 326.687V92.1982C30.1704 92.5915 28.9393 92.8831 27.1152 93.0729V326.687H30.1704Z" fill="#08498E"/>
<path d="M22.7125 1.31075C22.1504 -0.43719 21.0047 -0.436641 20.5054 1.31075C20.5054 1.31075 19.5941 7.33991 18.6581 16.3723C21.0047 16.7542 22.1504 16.7542 24.44 16.3723C23.8862 10.5757 23.1623 5.40538 22.7125 1.31075Z" fill="#A8A8A8"/>
<path d="M27.1152 93.0729C28.9393 92.8831 30.1704 92.5915 30.1704 92.1982C30.1704 78.6226 27.879 43.1056 24.44 16.3723C22.1504 16.7542 21.0047 16.7542 18.6581 16.3723C15.2762 38.5227 11.8392 78.2407 11.8392 92.1982V92.2089C11.8539 92.6017 13.4756 93.1558 15.2762 93.3438C18.6644 93.6977 23.7136 93.4268 27.1152 93.0729Z" fill="#013061"/>
</svg>
