<svg width="115" height="53" viewBox="0 0 115 53" fill="none" xmlns="http://www.w3.org/2000/svg">
<path d="M58.5287 41.6657C39.5695 51.6659 2.99998 23.3469 2.99998 23.3469C2.99998 23.3469 24.3264 29.4849 35.0578 20.4846C39.2043 17.007 40.3433 13.3501 45.3621 11.3253C50.8513 9.11077 55.3281 10.8939 60.2461 14.1876C65.8217 17.9217 69.4064 22.3856 68.833 29.0716C68.1571 36.9531 62.87 39.3758 58.5287 41.6657Z" fill="#D65B4F" stroke="black" stroke-width="5" stroke-linejoin="round"/>
<path d="M62.7535 34.4673C51.9995 36.0039 38.8931 29.8041 38.8931 29.8041C41.3681 27.7284 51.7836 17.6786 62.7535 19.8726C66.5942 20.6407 69.2052 23.9866 68.863 27.9774C68.4595 32.6817 65.0348 34.1413 62.7535 34.4673Z" fill="#FFC557" stroke="black" stroke-width="5" stroke-linejoin="round"/>
<path fill-rule="evenodd" clip-rule="evenodd" d="M98.154 27.1883L98.154 34.6309C98.154 37.1602 100.204 39.21 102.734 39.21H107.313C109.843 39.21 111.893 37.1596 111.893 34.6303V18.6014C111.893 16.0721 109.843 14.0217 107.313 14.0217H102.734C100.204 14.0217 98.154 16.0711 98.154 18.6004L98.154 27.1883Z" fill="#4588C9"/>
<path d="M58.6542 7.69674V45.9953C58.6542 48.9569 61.4048 51.0902 64.214 50.1522C73.0939 47.1871 90.2773 40.0397 98.154 27.1883C90.2514 13.4628 72.9808 6.38548 64.1267 3.54128C61.341 2.64644 58.6542 4.77087 58.6542 7.69674Z" fill="#005EB8"/>
<path d="M98.154 27.1883C90.2514 13.4628 72.9808 6.38548 64.1267 3.54128M98.154 27.1883L98.154 18.6004M98.154 27.1883L98.154 34.6309M98.154 27.1883C90.2773 40.0397 73.0939 47.1871 64.214 50.1522M98.154 27.1883C98.154 29.5824 98.154 32.3532 98.154 34.6309M98.154 27.1883C98.154 24.5926 98.154 21.2622 98.154 18.6004M58.6542 45.9953V7.69674M58.6542 45.9953C58.6542 48.9569 61.4048 51.0902 64.214 50.1522M58.6542 45.9953V45.9953C58.6542 48.9531 61.4084 51.089 64.214 50.1522V50.1522M58.6542 7.69674C58.6542 4.77087 61.341 2.64644 64.1267 3.54128M58.6542 7.69674V7.69674C58.6542 4.77589 61.3458 2.64798 64.1267 3.54128V3.54128M98.154 18.6004C98.154 16.0711 100.204 14.0217 102.734 14.0217M98.154 18.6004V18.6004C98.154 16.0716 100.205 14.0217 102.734 14.0217V14.0217M102.734 14.0217H107.313M107.313 14.0217C109.843 14.0217 111.893 16.0721 111.893 18.6014M107.313 14.0217V14.0217C109.843 14.0217 111.893 16.0721 111.893 18.6014V18.6014M111.893 18.6014V34.6303M111.893 34.6303C111.893 37.1596 109.843 39.21 107.313 39.21M111.893 34.6303V34.6303C111.893 37.1596 109.843 39.21 107.313 39.21V39.21M107.313 39.21H102.734M102.734 39.21C100.204 39.21 98.154 37.1602 98.154 34.6309M102.734 39.21V39.21C100.205 39.21 98.154 37.1599 98.154 34.6309V34.6309" stroke="black" stroke-width="5"/>
</svg>
