<svg width="38" height="394" viewBox="0 0 38 394" fill="none" xmlns="http://www.w3.org/2000/svg">
<path fill-rule="evenodd" clip-rule="evenodd" d="M9.86701 389.221H26.8791V386.28V349.149V170.482H9.86701V349.149V385.912V389.221ZM15.9914 350.254C15.9914 350.254 16.4149 345.344 18.3731 345.475C20.2719 345.601 20.4145 350.254 20.4145 350.254V383.34C20.4145 383.34 19.8065 386.536 18.3731 386.649C16.8621 386.769 15.9914 383.34 15.9914 383.34V350.254ZM20.0743 183.718V182.615H21.095V183.718H20.0743ZM17.8627 183.718V182.615H18.8834V183.718H17.8627ZM15.6511 183.718V182.615H16.6718V183.718H15.6511ZM13.2694 183.718V182.615H14.2902V183.718H13.2694ZM10.8877 183.718V182.615H11.9085V183.718H10.8877ZM22.456 183.718V182.615H23.4767V183.718H22.456ZM24.8376 183.718V182.615H25.8584V183.718H24.8376ZM20.0743 334.813V333.711H21.095V334.813H20.0743ZM17.8627 334.813V333.711H18.8834V334.813H17.8627ZM15.6511 334.813V333.711H16.6718V334.813H15.6511ZM13.2694 334.813V333.711H14.2902V334.813H13.2694ZM10.8877 334.813V333.711H11.9085V334.813H10.8877ZM22.456 334.813V333.711H23.4767V334.813H22.456ZM24.8376 334.813V333.711H25.8584V334.813H24.8376Z" fill="#EDEDED"/>
<path d="M18.3731 0.638794C12.9185 0.638058 9.86701 48.7965 9.86701 48.7965C9.86701 48.7965 15.0406 49.5318 18.3731 49.5318C21.7055 49.5318 26.8791 48.7965 26.8791 48.7965C26.8791 48.7965 23.1364 0.639436 18.3731 0.638794Z" fill="#D37E00"/>
<path fill-rule="evenodd" clip-rule="evenodd" d="M26.8791 166.07H9.86701V170.482H26.8791V166.07ZM17.6926 168.278C17.6926 167.871 17.9972 167.542 18.3731 167.542C18.7489 167.542 19.0535 167.871 19.0535 168.278C19.0535 168.684 18.7489 169.013 18.3731 169.013C17.9972 169.013 17.6926 168.684 17.6926 168.278ZM22.456 168.278C22.456 167.871 22.7606 167.542 23.1364 167.542C23.5123 167.542 23.8169 167.871 23.8169 168.278C23.8169 168.684 23.5123 169.013 23.1364 169.013C22.7606 169.013 22.456 168.684 22.456 168.278ZM12.5889 168.278C12.5889 167.871 12.8936 167.542 13.2694 167.542C13.6452 167.542 13.9499 167.871 13.9499 168.278C13.9499 168.684 13.6452 169.013 13.2694 169.013C12.8936 169.013 12.5889 168.684 12.5889 168.278Z" fill="#D37E00"/>
<path d="M10.8877 182.615V183.718H11.9085V182.615H10.8877Z" fill="#909090"/>
<path d="M13.2694 182.615V183.718H14.2902V182.615H13.2694Z" fill="#6F6F6F"/>
<path d="M15.6511 182.615V183.718H16.6718V182.615H15.6511Z" fill="#6F6F6F"/>
<path d="M17.8627 182.615V183.718H18.8834V182.615H17.8627Z" fill="#6F6F6F"/>
<path d="M20.0743 182.615V183.718H21.095V182.615H20.0743Z" fill="#6F6F6F"/>
<path d="M22.456 182.615V183.718H23.4767V182.615H22.456Z" fill="#6F6F6F"/>
<path d="M24.8376 182.615V183.718H25.8584V182.615H24.8376Z" fill="#6F6F6F"/>
<path d="M10.8877 155.778V156.881H11.9085V155.778H10.8877Z" fill="#6F6F6F"/>
<path d="M13.2694 155.778V156.881H14.2902V155.778H13.2694Z" fill="#6F6F6F"/>
<path fill-rule="evenodd" clip-rule="evenodd" d="M18.3731 49.5318C15.0406 49.5318 9.86701 48.7965 9.86701 48.7965V166.07H26.8791V48.7965C26.8791 48.7965 21.7055 49.5318 18.3731 49.5318ZM20.0743 156.881V155.778H21.095V156.881H20.0743ZM17.8627 156.881V155.778H18.8834V156.881H17.8627ZM15.6511 156.881V155.778H16.6718V156.881H15.6511ZM13.2694 156.881V155.778H14.2902V156.881H13.2694ZM10.8877 156.881V155.778H11.9085V156.881H10.8877ZM22.456 156.881V155.778H23.4767V156.881H22.456ZM24.8376 156.881V155.778H25.8584V156.881H24.8376Z" fill="#EDEDED"/>
<path d="M15.6511 155.778V156.881H16.6718V155.778H15.6511Z" fill="#6F6F6F"/>
<path d="M17.8627 155.778V156.881H18.8834V155.778H17.8627Z" fill="#6F6F6F"/>
<path d="M20.0743 155.778V156.881H21.095V155.778H20.0743Z" fill="#6F6F6F"/>
<path d="M22.456 155.778V156.881H23.4767V155.778H22.456Z" fill="#6F6F6F"/>
<path d="M24.8376 155.778V156.881H25.8584V155.778H24.8376Z" fill="#6F6F6F"/>
<path d="M10.8877 333.711V334.813H11.9085V333.711H10.8877Z" fill="#6F6F6F"/>
<path d="M13.2694 333.711V334.813H14.2902V333.711H13.2694Z" fill="#6F6F6F"/>
<path d="M15.6511 333.711V334.813H16.6718V333.711H15.6511Z" fill="#6F6F6F"/>
<path d="M17.8627 333.711V334.813H18.8834V333.711H17.8627Z" fill="#6F6F6F"/>
<path d="M20.0743 333.711V334.813H21.095V333.711H20.0743Z" fill="#6F6F6F"/>
<path d="M22.456 333.711V334.813H23.4767V333.711H22.456Z" fill="#6F6F6F"/>
<path d="M24.8376 333.711V334.813H25.8584V333.711H24.8376Z" fill="#6F6F6F"/>
<path d="M18.3731 345.475C16.4149 345.344 15.9914 350.254 15.9914 350.254V383.34C15.9914 383.34 16.8621 386.769 18.3731 386.649C19.8065 386.536 20.4145 383.34 20.4145 383.34V350.254C20.4145 350.254 20.2719 345.601 18.3731 345.475Z" fill="#D37E00"/>
<path d="M26.8791 389.221H9.86701C9.86701 389.221 9.86701 394 17.6926 394C26.8791 394 26.8791 389.221 26.8791 389.221Z" fill="#5F5F5F"/>
<path d="M26.8791 386.28L37.4266 376.722V367.163L26.8791 349.149V386.28Z" fill="#D37E00"/>
<path d="M0 376.722L9.86701 385.912V349.149L0 367.163V376.722Z" fill="#D37E00"/>
<path d="M13.2694 167.542C12.8936 167.542 12.5889 167.871 12.5889 168.278C12.5889 168.684 12.8936 169.013 13.2694 169.013C13.6452 169.013 13.9499 168.684 13.9499 168.278C13.9499 167.871 13.6452 167.542 13.2694 167.542Z" fill="#313131"/>
<path d="M18.3731 167.542C17.9972 167.542 17.6926 167.871 17.6926 168.278C17.6926 168.684 17.9972 169.013 18.3731 169.013C18.7489 169.013 19.0535 168.684 19.0535 168.278C19.0535 167.871 18.7489 167.542 18.3731 167.542Z" fill="#313131"/>
<path d="M23.1364 167.542C22.7606 167.542 22.456 167.871 22.456 168.278C22.456 168.684 22.7606 169.013 23.1364 169.013C23.5123 169.013 23.8169 168.684 23.8169 168.278C23.8169 167.871 23.5123 167.542 23.1364 167.542Z" fill="#313131"/>
</svg>
