<svg width="43" height="409" viewBox="0 0 43 409" fill="none" xmlns="http://www.w3.org/2000/svg">
<path fill-rule="evenodd" clip-rule="evenodd" d="M11.0752 403.682H30.1704V400.627V362.055V176.449H11.0752V362.055V400.245V403.682ZM17.9495 363.202C17.9495 363.202 18.4249 358.102 20.6228 358.237C22.7542 358.368 22.9142 363.202 22.9142 363.202V397.573C22.9142 397.573 22.2317 400.893 20.6228 401.01C18.9269 401.134 17.9495 397.573 17.9495 397.573V363.202ZM22.5323 190.199V189.054H23.678V190.199H22.5323ZM20.05 190.199V189.054H21.1957V190.199H20.05ZM17.5676 190.199V189.054H18.7133V190.199H17.5676ZM14.8943 190.199V189.054H16.04V190.199H14.8943ZM12.2209 190.199V189.054H13.3666V190.199H12.2209ZM25.2057 190.199V189.054H26.3514V190.199H25.2057ZM27.879 190.199V189.054H29.0247V190.199H27.879ZM22.5323 347.162V346.016H23.678V347.162H22.5323ZM20.05 347.162V346.016H21.1957V347.162H20.05ZM17.5676 347.162V346.016H18.7133V347.162H17.5676ZM14.8943 347.162V346.016H16.04V347.162H14.8943ZM12.2209 347.162V346.016H13.3666V347.162H12.2209ZM25.2057 347.162V346.016H26.3514V347.162H25.2057ZM27.879 347.162V346.016H29.0247V347.162H27.879Z" fill="#EDEDED"/>
<path d="M20.6228 0.0112305C14.5004 0.0104664 11.0752 50.0389 11.0752 50.0389C11.0752 50.0389 16.8823 50.8028 20.6228 50.8028C24.3633 50.8028 30.1704 50.0389 30.1704 50.0389C30.1704 50.0389 25.9695 0.0118977 20.6228 0.0112305Z" fill="#DC2D00"/>
<path fill-rule="evenodd" clip-rule="evenodd" d="M30.1704 171.866H11.0752V176.449H30.1704V171.866ZM19.859 174.159C19.859 173.738 20.201 173.396 20.6228 173.396C21.0447 173.396 21.3866 173.738 21.3866 174.159C21.3866 174.581 21.0447 174.923 20.6228 174.923C20.201 174.923 19.859 174.581 19.859 174.159ZM25.2057 174.159C25.2057 173.738 25.5476 173.396 25.9695 173.396C26.3913 173.396 26.7333 173.738 26.7333 174.159C26.7333 174.581 26.3913 174.923 25.9695 174.923C25.5476 174.923 25.2057 174.581 25.2057 174.159ZM14.1304 174.159C14.1304 173.738 14.4724 173.396 14.8943 173.396C15.3161 173.396 15.6581 173.738 15.6581 174.159C15.6581 174.581 15.3161 174.923 14.8943 174.923C14.4724 174.923 14.1304 174.581 14.1304 174.159Z" fill="#AE0700"/>
<path d="M12.2209 189.054V190.199H13.3666V189.054H12.2209Z" fill="#909090"/>
<path d="M14.8943 189.054V190.199H16.04V189.054H14.8943Z" fill="#6F6F6F"/>
<path d="M17.5676 189.054V190.199H18.7133V189.054H17.5676Z" fill="#6F6F6F"/>
<path d="M20.05 189.054V190.199H21.1957V189.054H20.05Z" fill="#6F6F6F"/>
<path d="M22.5323 189.054V190.199H23.678V189.054H22.5323Z" fill="#6F6F6F"/>
<path d="M25.2057 189.054V190.199H26.3514V189.054H25.2057Z" fill="#6F6F6F"/>
<path d="M27.879 189.054V190.199H29.0247V189.054H27.879Z" fill="#6F6F6F"/>
<path d="M12.2209 161.175V162.32H13.3666V161.175H12.2209Z" fill="#6F6F6F"/>
<path d="M14.8943 161.175V162.32H16.04V161.175H14.8943Z" fill="#6F6F6F"/>
<path fill-rule="evenodd" clip-rule="evenodd" d="M20.6228 50.8028C16.8823 50.8028 11.0752 50.0389 11.0752 50.0389V171.866H30.1704V50.0389C30.1704 50.0389 24.3633 50.8028 20.6228 50.8028ZM22.5323 162.32V161.175H23.678V162.32H22.5323ZM20.05 162.32V161.175H21.1957V162.32H20.05ZM17.5676 162.32V161.175H18.7133V162.32H17.5676ZM14.8943 162.32V161.175H16.04V162.32H14.8943ZM12.2209 162.32V161.175H13.3666V162.32H12.2209ZM25.2057 162.32V161.175H26.3514V162.32H25.2057ZM27.879 162.32V161.175H29.0247V162.32H27.879Z" fill="#EDEDED"/>
<path d="M17.5676 161.175V162.32H18.7133V161.175H17.5676Z" fill="#6F6F6F"/>
<path d="M20.05 161.175V162.32H21.1957V161.175H20.05Z" fill="#6F6F6F"/>
<path d="M22.5323 161.175V162.32H23.678V161.175H22.5323Z" fill="#6F6F6F"/>
<path d="M25.2057 161.175V162.32H26.3514V161.175H25.2057Z" fill="#6F6F6F"/>
<path d="M27.879 161.175V162.32H29.0247V161.175H27.879Z" fill="#6F6F6F"/>
<path d="M12.2209 346.016V347.162H13.3666V346.016H12.2209Z" fill="#6F6F6F"/>
<path d="M14.8943 346.016V347.162H16.04V346.016H14.8943Z" fill="#6F6F6F"/>
<path d="M17.5676 346.016V347.162H18.7133V346.016H17.5676Z" fill="#6F6F6F"/>
<path d="M20.05 346.016V347.162H21.1957V346.016H20.05Z" fill="#6F6F6F"/>
<path d="M22.5323 346.016V347.162H23.678V346.016H22.5323Z" fill="#6F6F6F"/>
<path d="M25.2057 346.016V347.162H26.3514V346.016H25.2057Z" fill="#6F6F6F"/>
<path d="M27.879 346.016V347.162H29.0247V346.016H27.879Z" fill="#6F6F6F"/>
<path d="M20.6228 358.237C18.4249 358.102 17.9495 363.202 17.9495 363.202V397.573C17.9495 397.573 18.9269 401.134 20.6228 401.01C22.2317 400.893 22.9142 397.573 22.9142 397.573V363.202C22.9142 363.202 22.7542 358.368 20.6228 358.237Z" fill="#A00909"/>
<path d="M30.1704 403.682H11.0752C11.0752 403.682 11.0752 408.647 19.859 408.647C30.1704 408.647 30.1704 403.682 30.1704 403.682Z" fill="#5F5F5F"/>
<path d="M30.1704 400.627L42.0094 390.697V380.768L30.1704 362.055V400.627Z" fill="#A00909"/>
<path d="M0 390.697L11.0752 400.245V362.055L0 380.768V390.697Z" fill="#A00909"/>
<path d="M14.8943 173.396C14.4724 173.396 14.1304 173.738 14.1304 174.159C14.1304 174.581 14.4724 174.923 14.8943 174.923C15.3161 174.923 15.6581 174.581 15.6581 174.159C15.6581 173.738 15.3161 173.396 14.8943 173.396Z" fill="#313131"/>
<path d="M20.6228 173.396C20.201 173.396 19.859 173.738 19.859 174.159C19.859 174.581 20.201 174.923 20.6228 174.923C21.0447 174.923 21.3866 174.581 21.3866 174.159C21.3866 173.738 21.0447 173.396 20.6228 173.396Z" fill="#313131"/>
<path d="M25.9695 173.396C25.5476 173.396 25.2057 173.738 25.2057 174.159C25.2057 174.581 25.5476 174.923 25.9695 174.923C26.3913 174.923 26.7333 174.581 26.7333 174.159C26.7333 173.738 26.3913 173.396 25.9695 173.396Z" fill="#313131"/>
</svg>
