<svg width="40" height="460" viewBox="0 0 40 460" fill="none" xmlns="http://www.w3.org/2000/svg">
<path d="M28.2609 443.225L39.718 433.295V423.366L28.2609 404.653V443.225Z" fill="#A60000"/>
<path d="M11.0754 404.653L0 423.366V433.295L11.0754 443.225V404.653Z" fill="#A60000"/>
<path d="M19.0952 443.989H20.6228L22.1504 441.315V440.933V439.788V410.381V409.235V406.944L20.6228 401.979H19.0952L17.1857 406.944V409.235V410.381V439.788V440.933V441.315L19.0952 443.989Z" fill="#A60000"/>
<path fill-rule="evenodd" clip-rule="evenodd" d="M14.1312 459.647H25.5876C25.5876 459.647 29.0243 448.953 28.2609 443.607V443.225V404.653V201.862H11.0754V404.653V443.225V443.607C10.3112 449.717 14.1312 459.647 14.1312 459.647ZM20.6228 443.989H19.0952L17.1857 441.315V440.933H16.04V439.788H17.1857V410.381H16.04V409.235H17.1857V406.944L19.0952 401.979H20.6228L22.1504 406.944V409.235H23.2961V410.381H22.1504V439.788H23.2961V440.933H22.1504V441.315L20.6228 443.989ZM25.5876 440.933V439.788H26.7333V440.933H25.5876ZM12.6028 439.788H13.7485V440.933H12.6028V439.788ZM25.5876 410.381V409.235H26.7333V410.381H25.5876ZM12.6028 410.381V409.235H13.7485V410.381H12.6028ZM25.5876 394.723V393.577H26.7333V394.723H25.5876ZM22.1504 394.723V393.577H23.2961V394.723H22.1504ZM19.0952 394.723V393.577H20.2409V394.723H19.0952ZM16.04 394.723V393.577H17.1857V394.723H16.04ZM12.6028 394.723V393.577H13.7485V394.723H12.6028ZM25.9695 212.173V211.027H27.1152V212.173H25.9695ZM22.5323 212.173V211.027H23.678V212.173H22.5323ZM19.4771 212.173V211.027H20.6228V212.173H19.4771ZM16.4219 212.173V211.027H17.5676V212.173H16.4219ZM12.9847 212.173V211.027H14.1304V212.173H12.9847ZM25.9695 304.976V303.83H27.1152V304.976H25.9695ZM22.5323 304.976V303.83H23.678V304.976H22.5323ZM19.4771 304.976V303.83H20.6228V304.976H19.4771ZM16.4219 304.976V303.83H17.5676V304.976H16.4219ZM12.9847 304.976V303.83H14.1304V304.976H12.9847Z" fill="#C1C1C1"/>
<path d="M12.6028 393.577V394.723H13.7485V393.577H12.6028Z" fill="#838383"/>
<path d="M16.04 393.577V394.723H17.1857V393.577H16.04Z" fill="#838383"/>
<path d="M19.0952 393.577V394.723H20.2409V393.577H19.0952Z" fill="#838383"/>
<path d="M22.1504 393.577V394.723H23.2961V393.577H22.1504Z" fill="#838383"/>
<path d="M25.5876 393.577V394.723H26.7333V393.577H25.5876Z" fill="#838383"/>
<path d="M12.6028 409.235V410.381H13.7485V409.235H12.6028Z" fill="#838383"/>
<path d="M16.04 410.381H17.1857V409.235H16.04V410.381Z" fill="#838383"/>
<path d="M22.1504 410.381H23.2961V409.235H22.1504V410.381Z" fill="#838383"/>
<path d="M25.5876 409.235V410.381H26.7333V409.235H25.5876Z" fill="#838383"/>
<path d="M13.7485 439.788H12.6028V440.933H13.7485V439.788Z" fill="#838383"/>
<path d="M17.1857 439.788H16.04V440.933H17.1857V439.788Z" fill="#838383"/>
<path d="M23.2961 439.788H22.1504V440.933H23.2961V439.788Z" fill="#838383"/>
<path d="M25.5876 439.788V440.933H26.7333V439.788H25.5876Z" fill="#838383"/>
<path d="M12.9847 303.83V304.976H14.1304V303.83H12.9847Z" fill="#838383"/>
<path d="M16.4219 303.83V304.976H17.5676V303.83H16.4219Z" fill="#838383"/>
<path d="M19.4771 303.83V304.976H20.6228V303.83H19.4771Z" fill="#838383"/>
<path d="M22.5323 303.83V304.976H23.678V303.83H22.5323Z" fill="#838383"/>
<path d="M25.9695 303.83V304.976H27.1152V303.83H25.9695Z" fill="#838383"/>
<path d="M12.9847 211.027V212.173H14.1304V211.027H12.9847Z" fill="#838383"/>
<path d="M16.4219 211.027V212.173H17.5676V211.027H16.4219Z" fill="#838383"/>
<path d="M19.4771 211.027V212.173H20.6228V211.027H19.4771Z" fill="#838383"/>
<path d="M22.5323 211.027V212.173H23.678V211.027H22.5323Z" fill="#838383"/>
<path d="M25.9695 211.027V212.173H27.1152V211.027H25.9695Z" fill="#838383"/>
<path fill-rule="evenodd" clip-rule="evenodd" d="M28.2609 193.46H11.0754V201.862H28.2609V193.46ZM22.1504 195.369C22.1504 194.947 22.4924 194.605 22.9142 194.605C23.3361 194.605 23.678 194.947 23.678 195.369C23.678 195.791 23.3361 196.133 22.9142 196.133C22.4924 196.133 22.1504 195.791 22.1504 195.369ZM16.04 195.369C16.04 194.947 16.3819 194.605 16.8038 194.605C17.2256 194.605 17.5676 194.947 17.5676 195.369C17.5676 195.791 17.2256 196.133 16.8038 196.133C16.3819 196.133 16.04 195.791 16.04 195.369Z" fill="#C1C1C1"/>
<path d="M11.0754 193.46H28.2609V192.314H20.6228V188.877H19.0952V192.314H11.0754V193.46Z" fill="#F47749"/>
<path fill-rule="evenodd" clip-rule="evenodd" d="M28.2609 49.8638H11.0754V182.003H12.9847V190.404H12.2209V188.113H11.0754V192.314H19.0952V188.877H20.6228V192.314H28.2609V188.113H27.4971V190.404H26.5308L26.3514 182.003H28.2609V49.8638ZM14.8943 190.404V182.003H24.8238V190.404H22.1504V187.731H17.9495V190.404H14.8943ZM25.9695 168.636V167.49H27.1152V168.636H25.9695ZM22.5323 168.636V167.49H23.678V168.636H22.5323ZM19.4771 168.636V167.49H20.6228V168.636H19.4771ZM16.4219 168.636V167.49H17.5676V168.636H16.4219ZM12.9847 168.636V167.49H14.1304V168.636H12.9847ZM19.0952 179.329C19.0952 178.907 19.4372 178.565 19.859 178.565C20.2808 178.565 20.6228 178.907 20.6228 179.329C20.6228 179.751 20.2808 180.093 19.859 180.093C19.4372 180.093 19.0952 179.751 19.0952 179.329ZM13.3666 179.329C13.3666 178.907 13.7086 178.565 14.1304 178.565C14.5523 178.565 14.8943 178.907 14.8943 179.329C14.8943 179.751 14.5523 180.093 14.1304 180.093C13.7086 180.093 13.3666 179.751 13.3666 179.329ZM24.8238 179.329C24.8238 178.907 25.1657 178.565 25.5876 178.565C26.0094 178.565 26.3514 178.907 26.3514 179.329C26.3514 179.751 26.0094 180.093 25.5876 180.093C25.1657 180.093 24.8238 179.751 24.8238 179.329Z" fill="#C1C1C1"/>
<path d="M14.8943 182.003V190.404H17.9495V187.731H22.1504V190.404H24.8238V182.003H14.8943Z" fill="#F47749"/>
<path d="M12.9847 182.003H11.0754V188.113H12.2209V190.404H12.9847V182.003Z" fill="#F47749"/>
<path d="M28.2609 182.003H26.3514L26.5308 190.404H27.4971V188.113H28.2609V182.003Z" fill="#F47749"/>
<path d="M14.1304 178.565C13.7086 178.565 13.3666 178.907 13.3666 179.329C13.3666 179.751 13.7086 180.093 14.1304 180.093C14.5523 180.093 14.8943 179.751 14.8943 179.329C14.8943 178.907 14.5523 178.565 14.1304 178.565Z" fill="#838383"/>
<path d="M19.859 178.565C19.4372 178.565 19.0952 178.907 19.0952 179.329C19.0952 179.751 19.4372 180.093 19.859 180.093C20.2808 180.093 20.6228 179.751 20.6228 179.329C20.6228 178.907 20.2808 178.565 19.859 178.565Z" fill="#838383"/>
<path d="M25.5876 178.565C25.1657 178.565 24.8238 178.907 24.8238 179.329C24.8238 179.751 25.1657 180.093 25.5876 180.093C26.0094 180.093 26.3514 179.751 26.3514 179.329C26.3514 178.907 26.0094 178.565 25.5876 178.565Z" fill="#838383"/>
<path d="M16.8038 194.605C16.3819 194.605 16.04 194.947 16.04 195.369C16.04 195.791 16.3819 196.133 16.8038 196.133C17.2256 196.133 17.5676 195.791 17.5676 195.369C17.5676 194.947 17.2256 194.605 16.8038 194.605Z" fill="#838383"/>
<path d="M22.9142 194.605C22.4924 194.605 22.1504 194.947 22.1504 195.369C22.1504 195.791 22.4924 196.133 22.9142 196.133C23.3361 196.133 23.678 195.791 23.678 195.369C23.678 194.947 23.3361 194.605 22.9142 194.605Z" fill="#838383"/>
<path d="M12.9847 167.49V168.636H14.1304V167.49H12.9847Z" fill="#838383"/>
<path d="M16.4219 167.49V168.636H17.5676V167.49H16.4219Z" fill="#838383"/>
<path d="M19.4771 167.49V168.636H20.6228V167.49H19.4771Z" fill="#838383"/>
<path d="M22.5323 167.49V168.636H23.678V167.49H22.5323Z" fill="#838383"/>
<path d="M25.9695 167.49V168.636H27.1152V167.49H25.9695Z" fill="#838383"/>
<path d="M11.0754 49.8638H28.2609C28.2609 49.8638 25.5876 0.598145 19.859 0.598145C14.8943 0.598145 11.0754 49.8638 11.0754 49.8638Z" fill="#D12400"/>
</svg>
