<svg width="50" height="497" viewBox="0 0 50 497" fill="none" xmlns="http://www.w3.org/2000/svg">
<path d="M14.9408 484.557C20.8213 481.624 29.2446 481.624 35.2046 484.557L34.1715 493.763C31.3902 490.26 18.7551 489.934 15.7354 493.763L14.9408 484.557Z" fill="#39333E"/>
<path d="M49.5879 477.632L35.6814 479.566L35.6814 447.001L33.772 443.661L33.772 442.439L49.5879 467.368L49.5879 477.632Z" fill="#39333E"/>
<path d="M0.00121553 467.368L16.3712 442.439L16.3712 443.661L14.464 447.001L14.464 479.832L10.8483 479.282L7.23261 478.732L0.00121508 477.632L0.00121553 467.368Z" fill="#39333E"/>
<path d="M16.3712 438.366L16.3712 442.439L0.00121553 467.368L0.00121569 463.783L15.2693 440.077L16.3712 438.366Z" fill="#39333E"/>
<path d="M16.3712 480.076L16.3712 481.468L14.9408 481.247L0.00121503 478.936L0.00121508 477.632L7.23261 478.732L10.8483 479.282L14.464 479.832L16.3712 480.076Z" fill="#39333E"/>
<path d="M49.5879 477.632L49.5879 478.936L42.3962 480.087L35.2046 481.239L33.772 481.468L33.772 479.832L35.6814 479.566L49.5879 477.632Z" fill="#39333E"/>
<path d="M33.772 442.439L33.772 438.366L35.2046 440.668L49.5879 463.783L49.5879 467.368L33.772 442.439Z" fill="#39333E"/>
<path d="M14.9408 484.557L14.9408 482.276C15.3736 481.983 15.853 481.713 16.3712 481.468C21.0022 479.277 28.7212 479.048 33.772 481.468C34.2782 481.71 34.7577 481.98 35.2046 482.276L35.2046 484.557C29.2446 481.624 20.8213 481.624 14.9408 484.557Z" fill="#39333E"/>
<path fill-rule="evenodd" clip-rule="evenodd" d="M34.1715 493.763C31.3902 490.26 18.7551 489.934 15.7354 493.763C18.6757 497.429 32.5822 496.777 34.1715 493.763ZM18.7551 493.6C18.7551 495.499 31.3107 495.471 31.3107 493.6C31.3107 493.345 31.0777 493.121 30.675 492.931C28.5755 491.938 21.8654 491.841 19.5498 492.817C19.0502 493.027 18.7551 493.287 18.7551 493.6Z" fill="#39333E"/>
<path d="M30.675 492.931C28.5755 491.938 21.8654 491.841 19.5498 492.817C22.2516 494.414 28.6089 494.17 30.675 492.931Z" fill="#28262F"/>
<path d="M31.3107 493.6C31.3107 495.471 18.7551 495.499 18.7551 493.6C18.7551 493.287 19.0502 493.027 19.5498 492.817C22.2516 494.414 28.6089 494.17 30.675 492.931C31.0777 493.121 31.3107 493.345 31.3107 493.6Z" fill="#39333E"/>
<path d="M22.0927 318.498C22.6646 318.437 23.25 318.394 23.841 318.367C24.4998 318.337 25.1656 318.328 25.8276 318.34C27.1712 318.366 28.4993 318.481 29.7214 318.688C30.4548 318.813 31.15 318.971 31.7875 319.164C32.437 319.36 33.0266 319.591 33.5358 319.86C34.292 320.258 34.8708 320.737 35.2046 321.3L35.2046 324.314C30.5161 320.811 17.5234 321.3 14.9408 324.314L14.9408 321.3C15.4151 320.405 16.6773 319.701 18.3578 319.204C18.8777 319.05 19.4376 318.916 20.0266 318.802C20.6841 318.675 21.3779 318.574 22.0927 318.498Z" fill="#C4C4C4"/>
<path d="M14.9408 324.314C17.5234 321.3 30.5161 320.811 35.2046 324.314L35.2046 325.862C32.5822 324.314 29.0387 323.657 24.3178 323.826L24.3178 326.231C22.7267 326.273 21.1465 326.422 19.7087 326.682L19.7087 324.314C17.3248 324.559 16.4506 324.885 14.9408 326.231L14.9408 324.314Z" fill="#C4C4C4"/>
<path d="M35.2046 328.388C33.59 326.867 28.9085 326.107 24.3178 326.231L24.3178 323.826C29.0387 323.657 32.5822 324.314 35.2046 325.862L35.2046 328.388Z" fill="#C4C4C4"/>
<path d="M19.7087 326.682C17.7401 327.038 16.0383 327.602 14.9408 328.388L14.9408 326.231C16.4506 324.885 17.3248 324.559 19.7087 324.314L19.7087 326.682Z" fill="#C4C4C4"/>
<path d="M35.2046 330.098C33.5358 327.736 20.0266 326.025 14.9408 330.098L14.9408 328.388C16.0383 327.602 17.7401 327.038 19.7087 326.682C21.1465 326.422 22.7267 326.273 24.3178 326.231C28.9085 326.107 33.59 326.867 35.2046 328.388L35.2046 330.098Z" fill="#C4C4C4"/>
<path d="M35.2046 330.098L35.2046 334.66C34.7796 334.184 34.212 333.758 33.5358 333.386C32.9696 333.075 32.3272 332.801 31.6286 332.566C29.3915 331.816 26.5775 331.472 23.841 331.596C23.2253 331.624 22.6136 331.676 22.0132 331.752C19.1084 332.121 16.4696 333.064 14.9408 334.66L14.9408 330.098C20.0266 326.025 33.5358 327.736 35.2046 330.098Z" fill="#C4C4C4"/>
<path d="M35.6814 479.566L33.772 479.832L33.772 443.661L35.6814 447.001L35.6814 479.566Z" fill="#C4C4C4"/>
<path d="M33.772 443.661L33.772 479.832L31.7875 476.329L31.7875 474.618L31.7875 463.457L31.7875 461.828L31.7875 450.097L31.7875 448.875L31.7875 447.653L32.9795 445.255L33.772 443.661Z" fill="#C4C4C4"/>
<path d="M16.3712 480.076L16.3712 443.661L17.0058 445.255L17.9605 447.653L17.9605 448.875L17.9605 450.097L17.9605 461.828L17.9605 463.457L17.9605 474.618L17.9605 476.329L16.3712 480.076Z" fill="#C4C4C4"/>
<path d="M14.464 447.001L16.3712 443.661L16.3712 480.076L14.464 479.832L14.464 447.001Z" fill="#C4C4C4"/>
<path d="M35.2046 280.049C27.3834 277.242 23.3508 277.242 14.9408 280.049L14.9408 277.242C21.3593 273.312 28.3791 273.21 35.2046 277.242L35.2046 280.049Z" fill="#60EDFE"/>
<path d="M25.1121 -1.06845e-06C31.3108 -0.00035414 34.1712 65.9871 34.1712 65.9871L34.2531 74.8668C34.2531 74.8668 33.9115 74.7529 33.2998 74.5881C31.8828 74.2063 29.0166 73.5519 25.5917 73.41C25.1756 73.3928 24.7512 73.3831 24.3202 73.3824C21.9683 73.3786 19.4184 73.642 16.9299 74.4014C16.4769 74.5397 16.026 74.6943 15.5787 74.8668L15.4968 65.9871C15.4968 65.9871 18.9135 0.000352003 25.1121 -1.06845e-06Z" fill="#C63527"/>
<path d="M33.2998 74.5881C33.9115 74.7529 34.2531 74.8668 34.2531 74.8668L34.2531 89.1417L34.2531 89.9379L34.2531 91.4043L34.2571 91.8117L34.2868 94.8259L34.3625 102.498L34.392 105.498L34.4972 116.17L34.4972 123.867L34.4972 126.353L34.4809 123.453L34.4645 120.553L34.3793 105.478L34.3625 102.498L34.2868 89.1119L34.2531 83.142C32.3577 83.142 30.9277 85.6727 29.3749 85.5408C27.5254 85.3837 25.5642 82.5963 23.301 83.142C21.2414 83.6385 20.4438 85.2715 18.9696 86.1408C18.155 86.6211 17.1337 86.8683 15.5787 86.5616L15.4473 126.353L15.4691 120.553L15.4856 116.17L15.5102 109.631L15.5658 94.8259L15.5756 92.219L15.5787 91.4043L15.5787 89.9379L15.5787 74.8668C16.026 74.6943 16.4769 74.5397 16.9299 74.4014C19.4184 73.642 21.9683 73.3786 24.3202 73.3824C24.7512 73.3831 25.1756 73.3928 25.5917 73.41C29.0166 73.5519 31.8828 74.2063 33.2998 74.5881Z" fill="#C63527"/>
<path fill-rule="evenodd" clip-rule="evenodd" d="M34.4972 123.867L34.4972 126.353L34.4809 123.453L34.4645 120.553L34.3793 105.478L34.3625 102.498L34.2868 94.8259L34.2571 91.8117L34.2531 91.4043L34.2531 89.9379L34.2531 89.1417L34.2531 83.142C34.3018 90.0195 34.3966 106.16 34.4972 123.867ZM15.4473 126.353L15.5787 86.5616L15.5787 89.9379L15.5787 91.4043L15.5756 92.219L15.5658 94.8259L15.5102 109.631L15.4856 116.17L15.4691 120.553L15.4473 126.353Z" fill="#39333E"/>
<path d="M29.3749 85.5408C30.9277 85.6727 32.3577 83.142 34.2531 83.142L34.2531 89.1417C33.9533 89.4035 31.7182 91.2939 30.1216 90.8998C29.2948 90.6957 28.9766 89.99 28.6553 89.2775C28.3423 88.5833 28.0264 87.8826 27.2341 87.6334C26.4359 87.3823 25.8142 87.6785 25.1718 87.9845C24.6084 88.2529 24.0292 88.5289 23.301 88.45C21.405 88.2444 18.9696 86.1408 18.9696 86.1408C20.4438 85.2715 21.2414 83.6385 23.301 83.142C25.5642 82.5963 27.5254 85.3837 29.3749 85.5408Z" fill="#CE4437"/>
<path d="M34.2531 89.9379L34.2531 91.4043L34.2571 91.8117L34.2868 94.8259L34.3625 102.498L34.3793 105.478C34.1725 105.163 31.4812 101.14 28.9268 101.312C27.839 101.385 27.2469 102.307 26.6741 103.2C26.0615 104.155 25.471 105.075 24.3202 104.884C23.1229 104.686 22.8732 103.574 22.6118 102.409C22.371 101.336 22.1203 100.218 21.1104 99.7295C17.1679 97.8208 15.5102 109.631 15.5102 109.631L15.5658 94.8259L15.5756 92.219L15.5787 91.4043L15.5787 89.9379L15.5787 86.5616C17.1337 86.8683 18.155 86.6211 18.9696 86.1408C18.9696 86.1408 21.405 88.2444 23.301 88.45C24.0292 88.5289 24.6084 88.2529 25.1718 87.9845C25.8142 87.6785 26.4359 87.3823 27.2341 87.6334C28.0264 87.8826 28.3423 88.5833 28.6553 89.2775C28.9766 89.99 29.2948 90.6957 30.1216 90.8998C31.7182 91.2939 33.9533 89.4035 34.2531 89.1417L34.2531 89.9379Z" fill="#D65B4F"/>
<path d="M15.4856 116.17L15.5102 109.631C15.5102 109.631 17.1679 97.8208 21.1104 99.7295C22.1203 100.218 22.371 101.336 22.6118 102.409C22.8732 103.574 23.1229 104.686 24.3202 104.884C25.471 105.075 26.0615 104.155 26.6741 103.2C27.2469 102.307 27.839 101.385 28.9268 101.312C31.4812 101.14 34.1725 105.163 34.3793 105.478L34.4645 120.553C34.4645 120.553 31.7723 116.978 29.3749 117.032C28.1424 117.059 27.4984 118.184 26.8782 119.267C26.222 120.414 25.5924 121.513 24.3202 121.217C23.6672 121.065 23.3146 120.586 22.9655 120.112C22.6033 119.62 22.2449 119.133 21.5585 119.022C20.4679 118.845 19.9376 120.034 19.4293 121.172C18.9117 122.332 18.4169 123.441 17.3765 123.003C16.2718 122.539 15.4691 120.553 15.4691 120.553L15.4856 116.17Z" fill="#EC7B70"/>
<path d="M29.3749 117.032C31.7723 116.978 34.4645 120.553 34.4645 120.553L34.4809 123.453L34.4972 126.353C33.66 126.825 32.9712 125.878 32.2387 124.871C31.6066 124.002 30.942 123.088 30.1216 123.003C29.5401 122.943 29.1235 123.23 28.7079 123.517C28.2883 123.806 27.8698 124.094 27.2839 124.024C25.7188 123.836 24.3202 121.217 24.3202 121.217C25.5924 121.513 26.222 120.414 26.8782 119.267C27.4984 118.184 28.1424 117.059 29.3749 117.032Z" fill="#FB978D"/>
<path d="M15.5787 86.5616L15.4473 126.353L15.4691 120.553C15.4691 120.553 16.2718 122.539 17.3765 123.003C18.4169 123.441 18.9117 122.332 19.4293 121.172C19.9376 120.034 20.4679 118.845 21.5585 119.022C22.2449 119.133 22.6033 119.62 22.9655 120.112C23.3146 120.586 23.6672 121.065 24.3202 121.217C24.3202 121.217 25.7188 123.836 27.2839 124.024C27.8698 124.094 28.2883 123.806 28.7079 123.517C29.1235 123.23 29.5401 122.943 30.1216 123.003C30.942 123.088 31.6066 124.002 32.2387 124.871C32.9712 125.878 33.66 126.825 34.4972 126.353L34.4972 123.867C34.5295 129.542 34.5624 135.378 34.5945 141.122C34.5945 141.122 32.0138 134.829 29.3749 135.916C28.8633 136.127 28.6021 136.519 28.3421 136.91C28.0766 137.31 27.8123 137.707 27.2838 137.906C26.1299 138.342 25.4642 137.385 24.7554 136.367C24.109 135.439 23.4266 134.458 22.3053 134.436C21.2524 134.415 20.5498 135.267 19.884 136.075C19.1455 136.97 18.4523 137.811 17.3765 137.345C16.3079 136.882 15.3699 135.099 15.3699 135.099C15.4603 114.727 15.548 94.6119 15.5787 86.5616Z" fill="#F5AA1C"/>
<path d="M29.3749 135.916C32.0138 134.829 34.5945 141.122 34.5945 141.122L34.6185 145.409C34.6185 145.409 30.9735 144.395 29.0264 145.409C28.0645 145.91 27.7689 146.947 27.4853 147.942C27.1705 149.047 26.8704 150.099 25.6907 150.309C24.829 150.462 24.2288 149.92 23.6312 149.38C23.0269 148.834 22.4252 148.291 21.5585 148.471C20.5688 148.678 20.2873 149.673 20.0099 150.654C19.7265 151.656 19.4474 152.643 18.422 152.759C17.1163 152.906 15.297 151.483 15.297 151.483C15.3208 146.159 15.3455 140.62 15.3699 135.099C15.3699 135.099 16.3079 136.882 17.3765 137.345C18.4523 137.811 19.1455 136.97 19.884 136.075C20.5498 135.267 21.2524 134.415 22.3053 134.436C23.4266 134.458 24.109 135.439 24.7554 136.367C25.4642 137.385 26.1299 138.342 27.2838 137.906C27.8123 137.707 28.0766 137.31 28.3421 136.91C28.6021 136.519 28.8633 136.127 29.3749 135.916Z" fill="#FBB93E"/>
<path d="M29.0264 145.409C30.9735 144.395 34.6185 145.409 34.6185 145.409C34.649 150.887 34.6786 156.219 34.7061 161.18C34.7061 161.18 31.9139 163.477 27.2838 159.7C25.9539 158.615 25.4121 160.984 24.8592 163.402C24.298 165.855 23.7253 168.36 22.3053 167.356C21.6439 166.888 21.5261 166.141 21.4106 165.407C21.2884 164.632 21.1688 163.873 20.4134 163.477C18.3594 162.398 15.2303 166.386 15.2303 166.386C15.251 161.779 15.2736 156.736 15.297 151.483C15.297 151.483 17.1163 152.906 18.422 152.759C19.4474 152.643 19.7265 151.656 20.0099 150.654C20.2873 149.673 20.5688 148.678 21.5585 148.471C22.4252 148.291 23.0269 148.834 23.6312 149.38C24.2288 149.92 24.829 150.462 25.6907 150.309C26.8704 150.099 27.1705 149.047 27.4853 147.942C27.7689 146.947 28.0645 145.91 29.0264 145.409Z" fill="#FFC861"/>
<path d="M27.2838 159.7C31.9139 163.477 34.7061 161.18 34.7061 161.18C34.715 162.798 34.7237 163.648 34.7322 164.471L34.7322 164.471C34.7401 165.248 34.7479 166.001 34.7553 167.356C34.7553 167.356 31.9835 172.644 29.7234 171.643C28.8266 171.246 28.6047 170.26 28.4283 169.476C28.2385 168.633 28.1014 168.024 27.2341 168.632C24.3202 170.673 22.3053 167.356 22.3053 167.356C23.7253 168.36 24.298 165.855 24.8592 163.402C25.4121 160.984 25.9539 158.615 27.2838 159.7Z" fill="#FFD585"/>
<path d="M15.2303 166.386C15.2303 166.386 18.3594 162.398 20.4134 163.477C21.1688 163.873 21.2884 164.632 21.4106 165.407C21.5261 166.141 21.6439 166.888 22.3053 167.356C22.3053 167.356 24.3202 170.673 27.2341 168.632C28.1014 168.024 28.2385 168.633 28.4283 169.476C28.6047 170.26 28.8266 171.246 29.7234 171.643C31.9835 172.644 34.7553 167.356 34.7553 167.356C34.7868 173.078 34.8133 178.576 34.8323 182.718C34.8323 182.718 31.6292 180.209 29.3749 180.575C25.8429 181.147 28.4351 188.739 24.8592 188.741C22.8788 188.742 22.1158 187.277 20.4134 186.24C18.3053 184.956 15.1568 182.718 15.1568 182.718C15.1755 178.583 15.201 172.923 15.2303 166.386Z" fill="#FFE2AA"/>
<path d="M34.8323 182.718C34.8524 187.109 34.864 189.978 34.864 189.978L34.9437 201.245C34.9437 201.245 31.6954 205.247 29.3748 204.359C27.0188 203.457 29.4575 199.337 27.2341 198.132C24.6563 196.735 22.7264 199.425 20.4134 201.245C19.4263 202.022 17.9959 196.953 17.1773 198.132C15.6446 200.34 15.2303 201.96 15.2303 201.96L15.124 189.978C15.124 189.978 15.1363 187.271 15.1568 182.718C15.1568 182.718 18.3053 184.956 20.4134 186.24C22.1158 187.277 22.8788 188.742 24.8592 188.741C28.4351 188.739 25.8429 181.147 29.3749 180.575C31.6292 180.209 34.8323 182.718 34.8323 182.718Z" fill="#005EB8"/>
<path d="M29.3748 204.359C31.6954 205.247 34.9437 201.245 34.9437 201.245L35.0484 216.047C35.0484 216.047 32.9752 213.202 31.1174 213.291C28.7133 213.406 29.8872 218.548 27.4853 218.394C25.9626 218.297 25.8314 216.262 24.3202 216.047C22.4322 215.778 21.916 218.406 20.0099 218.394C17.5201 218.379 15.0314 214.311 15.0314 214.311L15.2303 201.96C15.2303 201.96 15.6446 200.34 17.1773 198.132C17.9959 196.953 19.4263 202.022 20.4134 201.245C22.7264 199.425 24.6563 196.735 27.2341 198.132C29.4575 199.337 27.0188 203.457 29.3748 204.359Z" fill="#0E65B8"/>
<path d="M31.1174 213.291C32.9752 213.202 35.0484 216.047 35.0484 216.047L35.2046 226.356C35.2046 226.356 31.1174 227.888 29.3748 224.264C28.2549 221.935 25.0305 224.747 22.9655 223.243C21.1899 221.95 20.0099 218.394 20.0099 218.394C21.916 218.406 22.4322 215.778 24.3202 216.047C25.8314 216.262 25.9626 218.297 27.4853 218.394C29.8872 218.548 28.7133 213.406 31.1174 213.291Z" fill="#2374C1"/>
<path d="M14.9408 240.323L14.9408 238.124L15.0314 214.311C15.0314 214.311 17.5201 218.379 20.0099 218.394C20.0099 218.394 21.1899 221.95 22.9655 223.243C25.0305 224.747 28.2549 221.935 29.3748 224.264C31.1174 227.888 35.2046 226.356 35.2046 226.356L35.2046 238.124C35.2046 238.124 32.3032 235.767 30.1216 235.748C27.0456 235.72 26.6967 240.585 23.6312 240.323C21.7951 240.166 21.2706 238.055 19.4293 238.124C16.4213 238.236 14.9817 244.577 14.9817 244.577C14.9579 242.018 14.9408 240.323 14.9408 240.323Z" fill="#327EC7"/>
<path d="M35.2046 238.124L35.2046 240.323L35.2046 252.99C35.2046 252.99 31.4195 250.519 29.0263 251.263C26.2818 252.117 27.5976 257.781 24.7554 257.388C23.0946 257.158 23.0821 254.755 21.4105 254.632C19.1888 254.468 19.5798 259.102 17.3765 258.766C16.351 258.61 15.0871 257.388 15.0871 257.388C15.0565 252.889 15.0133 247.972 14.9817 244.577C14.9817 244.577 16.4213 238.236 19.4293 238.124C21.2706 238.055 21.7951 240.166 23.6312 240.323C26.6967 240.585 27.0456 235.72 30.1216 235.748C32.3032 235.767 35.2046 238.124 35.2046 238.124Z" fill="#4588C9"/>
<path d="M35.2046 252.99L35.2046 265.656L35.2046 272.138C35.2046 272.138 32.6439 268.252 30.1216 268.004C26.8819 267.686 26.8253 272.723 23.6312 273.363C21.1155 273.867 19.0857 273.892 17.1773 272.138C15.8607 270.928 15.1175 268.004 15.1175 268.004C15.1217 267.26 15.124 266.476 15.124 265.656C15.124 263.576 15.1088 260.588 15.0871 257.388C15.0871 257.388 16.351 258.61 17.3765 258.766C19.5798 259.102 19.1888 254.468 21.4105 254.632C23.0821 254.755 23.0946 257.158 24.7554 257.388C27.5976 257.781 26.2818 252.117 29.0263 251.263C31.4195 250.519 35.2046 252.99 35.2046 252.99Z" fill="#6396C8"/>
<path d="M35.2046 277.242C28.3791 273.21 21.3593 273.312 14.9408 277.242C14.9408 277.242 15.0847 273.804 15.1175 268.004C15.1175 268.004 15.8607 270.928 17.1773 272.138C19.0857 273.892 21.1155 273.867 23.6312 273.363C26.8253 272.723 26.8819 267.686 30.1216 268.004C32.6439 268.252 35.2046 272.138 35.2046 272.138L35.2046 277.242Z" fill="#7AA1C8"/>
<path d="M14.9408 294.987L14.9408 280.049C23.3508 277.242 27.3834 277.242 35.2046 280.049L35.2046 287.518C35.2046 287.518 31.4559 287.7 29.7214 289.134C28.5557 290.098 28.6079 291.672 28.6577 293.173C28.712 294.809 28.7635 296.36 27.2341 296.942C25.6105 297.56 24.6258 295.614 23.6871 293.759C22.7477 291.903 21.8545 290.137 20.4134 291.124C19.7356 291.589 19.5846 292.332 19.4363 293.061C19.2797 293.832 19.126 294.588 18.3578 294.987C17.1671 295.604 14.9408 294.987 14.9408 294.987Z" fill="#7AA1C8"/>
<path fill-rule="evenodd" clip-rule="evenodd" d="M14.9408 308.427C14.9408 308.427 17.2973 302.846 19.4293 304.029C20.3653 304.549 20.0819 305.601 19.7888 306.688C19.5048 307.742 19.2118 308.829 20.0099 309.498C21.4755 310.728 23.3172 310.625 24.8592 309.498C25.5969 308.959 25.6751 308.161 25.7549 307.347C25.83 306.581 25.9065 305.801 26.5371 305.211C29.3132 302.614 35.2046 309.498 35.2046 309.498L35.2046 321.3C34.8708 320.737 34.292 320.258 33.5358 319.86C33.0266 319.591 32.437 319.36 31.7875 319.164C31.15 318.971 30.4548 318.813 29.7214 318.688C28.4993 318.481 27.1712 318.366 25.8276 318.34C25.1656 318.328 24.4998 318.337 23.841 318.367C23.25 318.394 22.6646 318.437 22.0927 318.498C21.3779 318.574 20.6841 318.675 20.0266 318.802C19.4376 318.916 18.8777 319.05 18.3578 319.204C16.6773 319.701 15.4151 320.405 14.9408 321.3L14.9408 308.427Z" fill="#B8CBDD"/>
<path d="M14.9408 296.942L14.9408 294.987C14.9408 294.987 17.1671 295.604 18.3578 294.987C19.126 294.588 19.2797 293.832 19.4363 293.061C19.5846 292.332 19.7356 291.589 20.4134 291.124C21.8545 290.137 22.7477 291.903 23.6871 293.759C24.6258 295.614 25.6105 297.56 27.2341 296.942C28.7635 296.36 28.712 294.809 28.6577 293.173C28.6079 291.672 28.5557 290.098 29.7214 289.134C31.4559 287.7 35.2046 287.518 35.2046 287.518L35.2046 294.987L35.2046 296.942L35.2046 304.029L35.2046 305.659L35.2046 309.498C35.2046 309.498 29.3132 302.614 26.5371 305.211C25.9065 305.801 25.83 306.581 25.7549 307.347C25.6751 308.161 25.5969 308.959 24.8592 309.498C23.3172 310.625 21.4755 310.728 20.0099 309.498C19.2118 308.829 19.5048 307.742 19.7888 306.688C20.0819 305.601 20.3653 304.549 19.4293 304.029C17.2973 302.846 14.9408 308.427 14.9408 308.427L14.9408 305.659L14.9408 304.029L14.9408 296.942Z" fill="#98B4CF"/>
<path d="M16.3712 442.439L16.3712 438.366L15.2693 440.077L15.2335 432.348C15.2335 432.348 21.0513 436.282 24.8592 435.309C27.0019 434.761 27.5274 432.607 29.7214 432.348C31.9595 432.085 35.2046 434.186 35.2046 434.186L35.2046 440.668L33.772 438.366L33.772 442.439L33.772 443.661L32.9795 445.255L31.7875 447.653L31.7875 448.875L31.7875 450.097L31.7875 461.828L31.7875 463.457L31.7875 474.618L31.7875 476.329L33.772 479.832L33.772 481.468C28.7212 479.048 21.0022 479.277 16.3712 481.468L16.3712 480.076L17.9605 476.329L17.9605 474.618L17.9605 463.457L17.9605 461.828L17.9605 450.097L17.9605 448.875L17.9605 447.653L17.0058 445.255L16.3712 443.661L16.3712 442.439Z" fill="#002754"/>
<path d="M29.0263 418.466C31.3581 417.646 35.2046 419.793 35.2046 419.793L35.2046 434.186C35.2046 434.186 31.9595 432.085 29.7214 432.348C27.5274 432.607 27.0019 434.761 24.8592 435.309C21.0513 436.282 15.2335 432.348 15.2335 432.348L15.2195 429.337C15.2195 429.337 16.1681 422.332 19.4293 421.834C21.7529 421.48 22.5475 424.917 24.8592 424.488C27.627 423.975 26.3658 419.402 29.0263 418.466Z" fill="#0B2D54"/>
<path d="M35.2046 404.992L35.2046 408.025L35.2046 419.793C35.2046 419.793 31.3581 417.646 29.0263 418.466C26.3658 419.402 27.627 423.975 24.8592 424.488C22.5475 424.917 21.7529 421.48 19.4293 421.834C16.1681 422.332 15.2195 429.337 15.2195 429.337L15.1465 413.617C15.1465 413.617 15.1883 407.411 17.9605 406.676C20.6086 405.974 21.0275 411.465 23.6871 410.81C25.7263 410.308 27.2341 406.676 27.2341 406.676C29.8672 408.5 35.2046 404.992 35.2046 404.992Z" fill="#15375C"/>
<path d="M25.8276 398.408C28.9921 398.876 24.5851 404.841 27.2341 406.676C27.2341 406.676 25.7263 410.308 23.6871 410.81C21.0275 411.465 20.6086 405.974 17.9605 406.676C15.1883 407.411 15.1465 413.617 15.1465 413.617L15.0516 393.176C15.4592 394.349 17.9004 400.915 21.4105 400.704C23.3414 400.588 23.9132 398.125 25.8276 398.408Z" fill="#234264"/>
<path d="M35.2046 391.523L35.2046 397.145L35.2046 404.992C35.2046 404.992 29.8672 408.5 27.2341 406.676C24.5851 404.841 28.9921 398.876 25.8276 398.408C23.9132 398.125 23.3414 400.588 21.4105 400.704C17.9004 400.915 15.4592 394.349 15.0516 393.176L15.0288 388.267C15.2816 386.938 16.5649 380.994 19.1688 381.769C21.0825 382.339 20.1934 385.438 22.0927 386.056C24.9295 386.98 24.3354 380.981 27.2341 380.289C30.7345 379.453 35.2046 385.006 35.2046 385.006L35.2046 391.523Z" fill="#3A536D"/>
<path d="M35.2046 374.66L35.2046 378.489L35.2046 385.006C35.2046 385.006 30.7345 379.453 27.2341 380.289C24.3354 380.981 24.9295 386.98 22.0927 386.056C20.1934 385.438 21.0825 382.339 19.1688 381.769C16.5649 380.994 15.2816 386.938 15.0288 388.267L14.9408 369.316L14.9408 363.803C14.9408 363.803 17.8708 362.757 19.1688 363.803C20.8194 365.134 17.5529 367.941 19.1688 369.316C20.5098 370.457 21.9389 369.742 23.6312 369.316C25.8882 368.747 26.3407 366.235 28.6577 366.049C31.7247 365.803 35.2046 370.541 35.2046 370.541L35.2046 374.66Z" fill="#485E75"/>
<path d="M35.2046 349.161L35.2046 351.035L35.2046 368.346L35.2046 370.541C35.2046 370.541 31.7247 365.803 28.6577 366.049C26.3407 366.235 25.8882 368.747 23.6312 369.316C21.9389 369.742 20.5098 370.457 19.1688 369.316C17.5529 367.941 20.8194 365.134 19.1688 363.803C17.8708 362.757 14.9408 363.803 14.9408 363.803L14.9408 356.658C14.9408 356.658 15.7325 347.109 19.1688 348.237C20.6565 348.725 20.5616 350.718 22.0927 351.035C24.8539 351.607 23.2372 345.959 25.7549 344.664C29.3912 342.793 35.2046 349.161 35.2046 349.161Z" fill="#5F6E80"/>
<path d="M14.9408 349.161L14.9408 334.66C16.4696 333.064 19.1084 332.121 22.0132 331.752C22.6136 331.676 23.2253 331.624 23.841 331.596C26.5775 331.472 29.3915 331.816 31.6286 332.566C32.3272 332.801 32.9696 333.075 33.5358 333.386C34.212 333.758 34.7796 334.184 35.2046 334.66L35.2046 349.161C35.2046 349.161 29.3912 342.793 25.7549 344.664C23.2372 345.959 24.8539 351.607 22.0927 351.035C20.5616 350.718 20.6565 348.725 19.1688 348.237C15.7325 347.109 14.9408 356.658 14.9408 356.658L14.9408 351.035L14.9408 349.161Z" fill="#97A2AF"/>
<path d="M35.1484 280.935L35.1484 276.134C30.2694 272.336 19.3166 272.54 14.9354 276.134L14.9354 280.935C17.9723 278.228 29.2737 276.289 35.1484 280.935Z" fill="#F47749"/>
<path d="M14.9398 484.583C20.8203 481.65 29.2437 481.65 35.2036 484.583L34.1705 493.789C31.3892 490.286 18.7542 489.96 15.7345 493.789L14.9398 484.583Z" fill="black"/>
<path d="M49.5869 477.658L35.6804 479.592L35.6804 447.025L33.771 443.685L33.771 442.463L49.5869 467.393L49.5869 477.658Z" fill="black"/>
<path d="M0.000261857 467.393L16.3702 442.463L16.3702 443.685L14.463 447.025L14.463 479.858L0.000261409 477.658L0.000261857 467.393Z" fill="black"/>
<path d="M16.3702 438.389L16.3702 442.463L0.000261857 467.393L0.000262014 463.808L15.2684 440.1L16.3702 438.389Z" fill="black"/>
<path d="M16.3702 480.102L16.3702 481.494L14.9398 481.272L0.000261352 478.961L0.000261409 477.658L14.463 479.858L16.3702 480.102Z" fill="black"/>
<path d="M49.5869 477.658L49.5869 478.961L35.2036 481.264L33.771 481.494L33.771 479.858L35.6804 479.592L49.5869 477.658Z" fill="black"/>
<path d="M33.771 442.463L33.771 438.389L35.2036 440.692L42.3952 452.25L49.5869 463.808L49.5869 467.393L33.771 442.463Z" fill="black"/>
<path d="M14.9398 484.583L14.9398 482.302C15.3726 482.008 15.8521 481.739 16.3702 481.494C21.0012 479.303 28.7202 479.074 33.771 481.494C34.2773 481.736 34.7567 482.005 35.2036 482.302L35.2036 484.583C29.2437 481.65 20.8203 481.65 14.9398 484.583Z" fill="black"/>
<path fill-rule="evenodd" clip-rule="evenodd" d="M34.1705 493.789C31.3892 490.286 18.7542 489.96 15.7345 493.789C18.6747 497.455 32.5812 496.803 34.1705 493.789ZM18.7542 493.626C18.7542 495.525 31.3098 495.498 31.3098 493.626C31.3098 493.371 31.0767 493.148 30.674 492.957C28.5745 491.964 21.8644 491.867 19.5488 492.843C19.0492 493.053 18.7542 493.314 18.7542 493.626Z" fill="black"/>
<path d="M30.674 492.957C28.5745 491.964 21.8644 491.867 19.5488 492.843C22.2507 494.441 28.6079 494.196 30.674 492.957Z" fill="#28262F"/>
<path d="M31.3098 493.626C31.3098 495.498 18.7542 495.525 18.7542 493.626C18.7542 493.314 19.0492 493.053 19.5488 492.843C22.2507 494.441 28.6079 494.196 30.674 492.957C31.0767 493.148 31.3098 493.371 31.3098 493.626Z" fill="#28262F"/>
<path d="M22.0918 318.515C22.6636 318.454 23.249 318.411 23.84 318.384C24.4988 318.354 25.1646 318.345 25.8266 318.357C27.1703 318.383 28.4983 318.498 29.7205 318.705C30.4538 318.83 31.149 318.988 31.7866 319.181C32.436 319.377 33.0256 319.608 33.5348 319.877C34.2911 320.275 34.8699 320.754 35.2036 321.317L35.2036 324.332C30.5151 320.828 17.5224 321.317 14.9398 324.332L14.9398 321.317C15.4141 320.423 16.6763 319.718 18.3569 319.221C18.8767 319.067 19.4366 318.933 20.0256 318.819C20.6832 318.692 21.377 318.591 22.0918 318.515Z" fill="#929A9C"/>
<path d="M14.9398 324.332C17.5224 321.317 30.5151 320.828 35.2036 324.332L35.2036 325.88C32.5812 324.332 29.0377 323.674 24.3168 323.843L24.3168 326.248C22.7257 326.291 21.1456 326.44 19.7078 326.699L19.7078 324.332C17.3238 324.576 16.4497 324.902 14.9398 326.248L14.9398 324.332Z" fill="#929A9C"/>
<path d="M35.2036 328.405C33.5891 326.884 28.9076 326.125 24.3168 326.248L24.3168 323.843C29.0377 323.674 32.5812 324.332 35.2036 325.88L35.2036 328.405Z" fill="#929A9C"/>
<path d="M19.7078 326.699C17.7391 327.055 16.0373 327.62 14.9398 328.405L14.9398 326.248C16.4497 324.902 17.3238 324.576 19.7078 324.332L19.7078 326.699Z" fill="#929A9C"/>
<path d="M35.2036 330.116C33.5348 327.753 20.0256 326.042 14.9398 330.116L14.9398 328.405C16.0373 327.62 17.7391 327.055 19.7078 326.699C21.1456 326.44 22.7257 326.291 24.3168 326.248C28.9076 326.125 33.5891 326.884 35.2036 328.405L35.2036 330.116Z" fill="#929A9C"/>
<path d="M35.2036 330.116L35.2036 334.678C34.7786 334.202 34.211 333.776 33.5348 333.404C32.9686 333.092 32.3263 332.819 31.6276 332.584C29.3905 331.834 26.5765 331.489 23.84 331.614C23.2244 331.642 22.6126 331.694 22.0123 331.77C19.1074 332.139 16.4687 333.081 14.9398 334.678L14.9398 330.116C20.0256 326.042 33.5348 327.753 35.2036 330.116Z" fill="#929A9C"/>
<path d="M35.6804 479.592L33.771 479.858L33.771 443.685L35.6804 447.025L35.6804 479.592Z" fill="#929A9C"/>
<path d="M33.771 443.685L33.771 479.858L31.7866 476.354L31.7866 474.643L31.7866 463.482L31.7866 461.853L31.7866 450.121L31.7866 448.899L31.7866 447.677L32.9786 445.279L33.771 443.685Z" fill="#929A9C"/>
<path d="M16.3702 480.102L16.3702 443.685L17.0049 445.279L17.9595 447.677L17.9595 448.899L17.9595 450.121L17.9595 461.853L17.9595 463.482L17.9595 474.643L17.9595 476.354L16.3702 480.102Z" fill="#929A9C"/>
<path d="M14.463 447.025L16.3702 443.685L16.3702 480.102L14.463 479.858L14.463 447.025Z" fill="#929A9C"/>
</svg>
