<svg width="95" height="64" viewBox="0 0 95 64" fill="none" xmlns="http://www.w3.org/2000/svg">
<path d="M61 36C61 45.3888 53.3888 53 44 53C34.6112 53 27 45.3888 27 36M61 36C61 26.6112 53.3888 19 44 19C34.6112 19 27 26.6112 27 36M61 36H27" stroke="white" stroke-width="2"/>
<path d="M39.0977 24.8906V32H37.6328V24.8906H39.0977ZM41.9297 27.9277V29.0703H38.6973V27.9277H41.9297ZM42.2715 24.8906V26.0381H38.6973V24.8906H42.2715Z" fill="white"/>
<path d="M44.6787 24.8906V32H43.2188V24.8906H44.6787Z" fill="white"/>
<path d="M50.1719 29.6416H51.6318C51.6025 30.1201 51.4707 30.5449 51.2363 30.916C51.0052 31.2871 50.6813 31.5768 50.2646 31.7852C49.8512 31.9935 49.3532 32.0977 48.7705 32.0977C48.3148 32.0977 47.9062 32.0195 47.5449 31.8633C47.1836 31.7038 46.8743 31.4759 46.6172 31.1797C46.3633 30.8835 46.1696 30.5254 46.0361 30.1055C45.9027 29.6855 45.8359 29.2152 45.8359 28.6943V28.2012C45.8359 27.6803 45.9043 27.21 46.041 26.79C46.181 26.3669 46.3796 26.0072 46.6367 25.7109C46.8971 25.4147 47.208 25.1868 47.5693 25.0273C47.9307 24.8678 48.3343 24.7881 48.7803 24.7881C49.3727 24.7881 49.8724 24.8955 50.2793 25.1104C50.6895 25.3252 51.0068 25.6214 51.2314 25.999C51.4593 26.3766 51.596 26.8063 51.6416 27.2881H50.1768C50.1605 27.0016 50.1035 26.7591 50.0059 26.5605C49.9082 26.3587 49.7601 26.2074 49.5615 26.1064C49.3662 26.0023 49.1058 25.9502 48.7803 25.9502C48.5361 25.9502 48.3229 25.9958 48.1406 26.0869C47.9583 26.1781 47.8053 26.3164 47.6816 26.502C47.5579 26.6875 47.4652 26.9219 47.4033 27.2051C47.3447 27.485 47.3154 27.8138 47.3154 28.1914V28.6943C47.3154 29.0622 47.3431 29.3861 47.3984 29.666C47.4538 29.9427 47.5384 30.1771 47.6523 30.3691C47.7695 30.5579 47.9193 30.7012 48.1016 30.7988C48.2871 30.8932 48.5101 30.9404 48.7705 30.9404C49.0765 30.9404 49.3288 30.8916 49.5273 30.7939C49.7259 30.6963 49.8773 30.5514 49.9814 30.3594C50.0889 30.1673 50.1523 29.9281 50.1719 29.6416Z" fill="white"/>
<path d="M3.24707 24.0078L4.08447 21.1953H4.8999L3.66211 24.75H3.125L3.24707 24.0078ZM2.47559 21.1953L3.31055 24.0078L3.4375 24.75H2.89551L1.66504 21.1953H2.47559Z" fill="white"/>
<path d="M6.50146 24.1543V22.9775C6.50146 22.8929 6.48763 22.8205 6.45996 22.7603C6.43229 22.6984 6.38916 22.6504 6.33057 22.6162C6.2736 22.582 6.19954 22.5649 6.1084 22.5649C6.03027 22.5649 5.96273 22.5788 5.90576 22.6064C5.8488 22.6325 5.80485 22.6707 5.77393 22.7212C5.743 22.77 5.72754 22.8278 5.72754 22.8945H5.02441C5.02441 22.7822 5.05046 22.6756 5.10254 22.5747C5.15462 22.4738 5.23031 22.3851 5.32959 22.3086C5.42887 22.2305 5.54688 22.1694 5.68359 22.1255C5.82194 22.0815 5.97656 22.0596 6.14746 22.0596C6.35254 22.0596 6.53483 22.0938 6.69434 22.1621C6.85384 22.2305 6.97917 22.333 7.07031 22.4697C7.16309 22.6064 7.20947 22.7773 7.20947 22.9824V24.1128C7.20947 24.2576 7.21842 24.3765 7.23633 24.4692C7.25423 24.5604 7.28027 24.6401 7.31445 24.7085V24.75H6.604C6.56982 24.6784 6.54378 24.5889 6.52588 24.4814C6.5096 24.3724 6.50146 24.2633 6.50146 24.1543ZM6.59424 23.1411L6.59912 23.5391H6.20605C6.11328 23.5391 6.03271 23.5496 5.96436 23.5708C5.896 23.592 5.83984 23.6221 5.7959 23.6611C5.75195 23.6986 5.7194 23.7425 5.69824 23.793C5.67871 23.8434 5.66895 23.8988 5.66895 23.959C5.66895 24.0192 5.68278 24.0737 5.71045 24.1226C5.73812 24.1698 5.77799 24.2072 5.83008 24.2349C5.88216 24.2609 5.9432 24.2739 6.01318 24.2739C6.11898 24.2739 6.21094 24.2528 6.28906 24.2104C6.36719 24.1681 6.42741 24.116 6.46973 24.0542C6.51367 23.9924 6.53646 23.9338 6.53809 23.8784L6.72363 24.1763C6.69759 24.243 6.66178 24.3122 6.61621 24.3838C6.57227 24.4554 6.51611 24.5229 6.44775 24.5864C6.37939 24.6483 6.2972 24.6995 6.20117 24.7402C6.10514 24.7793 5.99121 24.7988 5.85938 24.7988C5.69173 24.7988 5.53955 24.7655 5.40283 24.6987C5.26774 24.6304 5.16032 24.5368 5.08057 24.418C5.00244 24.2975 4.96338 24.1608 4.96338 24.0078C4.96338 23.8695 4.98942 23.7466 5.0415 23.6392C5.09359 23.5317 5.17008 23.4414 5.271 23.3682C5.37354 23.2933 5.5013 23.2371 5.6543 23.1997C5.80729 23.1606 5.9847 23.1411 6.18652 23.1411H6.59424Z" fill="white"/>
<path d="M8.45459 22.6846V24.75H7.75146V22.1084H8.41309L8.45459 22.6846ZM9.25049 22.0913L9.23828 22.7432C9.2041 22.7383 9.1626 22.7342 9.11377 22.731C9.06657 22.7261 9.02344 22.7236 8.98438 22.7236C8.88509 22.7236 8.79883 22.7367 8.72559 22.7627C8.65397 22.7871 8.59375 22.8237 8.54492 22.8726C8.49772 22.9214 8.46191 22.9808 8.4375 23.0508C8.41471 23.1208 8.40169 23.2005 8.39844 23.29L8.25684 23.2461C8.25684 23.0752 8.27393 22.9181 8.30811 22.7749C8.34229 22.63 8.39193 22.5039 8.45703 22.3965C8.52376 22.2891 8.60514 22.2061 8.70117 22.1475C8.7972 22.0889 8.90706 22.0596 9.03076 22.0596C9.06982 22.0596 9.1097 22.0628 9.15039 22.0693C9.19108 22.0742 9.22445 22.0815 9.25049 22.0913Z" fill="white"/>
<path d="M10.3247 22.1084V24.75H9.61914V22.1084H10.3247ZM9.5752 21.4199C9.5752 21.3174 9.611 21.2327 9.68262 21.166C9.75423 21.0993 9.85026 21.0659 9.9707 21.0659C10.0895 21.0659 10.1847 21.0993 10.2563 21.166C10.3296 21.2327 10.3662 21.3174 10.3662 21.4199C10.3662 21.5225 10.3296 21.6071 10.2563 21.6738C10.1847 21.7406 10.0895 21.7739 9.9707 21.7739C9.85026 21.7739 9.75423 21.7406 9.68262 21.6738C9.611 21.6071 9.5752 21.5225 9.5752 21.4199Z" fill="white"/>
<path d="M12.3315 24.1543V22.9775C12.3315 22.8929 12.3177 22.8205 12.29 22.7603C12.2624 22.6984 12.2192 22.6504 12.1606 22.6162C12.1037 22.582 12.0296 22.5649 11.9385 22.5649C11.8604 22.5649 11.7928 22.5788 11.7358 22.6064C11.6789 22.6325 11.6349 22.6707 11.604 22.7212C11.5731 22.77 11.5576 22.8278 11.5576 22.8945H10.8545C10.8545 22.7822 10.8805 22.6756 10.9326 22.5747C10.9847 22.4738 11.0604 22.3851 11.1597 22.3086C11.259 22.2305 11.377 22.1694 11.5137 22.1255C11.652 22.0815 11.8066 22.0596 11.9775 22.0596C12.1826 22.0596 12.3649 22.0938 12.5244 22.1621C12.6839 22.2305 12.8092 22.333 12.9004 22.4697C12.9932 22.6064 13.0396 22.7773 13.0396 22.9824V24.1128C13.0396 24.2576 13.0485 24.3765 13.0664 24.4692C13.0843 24.5604 13.1104 24.6401 13.1445 24.7085V24.75H12.4341C12.3999 24.6784 12.3739 24.5889 12.356 24.4814C12.3397 24.3724 12.3315 24.2633 12.3315 24.1543ZM12.4243 23.1411L12.4292 23.5391H12.0361C11.9434 23.5391 11.8628 23.5496 11.7944 23.5708C11.7261 23.592 11.6699 23.6221 11.626 23.6611C11.582 23.6986 11.5495 23.7425 11.5283 23.793C11.5088 23.8434 11.499 23.8988 11.499 23.959C11.499 24.0192 11.5129 24.0737 11.5405 24.1226C11.5682 24.1698 11.6081 24.2072 11.6602 24.2349C11.7122 24.2609 11.7733 24.2739 11.8433 24.2739C11.9491 24.2739 12.041 24.2528 12.1191 24.2104C12.1973 24.1681 12.2575 24.116 12.2998 24.0542C12.3438 23.9924 12.3665 23.9338 12.3682 23.8784L12.5537 24.1763C12.5277 24.243 12.4919 24.3122 12.4463 24.3838C12.4023 24.4554 12.3462 24.5229 12.2778 24.5864C12.2095 24.6483 12.1273 24.6995 12.0312 24.7402C11.9352 24.7793 11.8213 24.7988 11.6895 24.7988C11.5218 24.7988 11.3696 24.7655 11.2329 24.6987C11.0978 24.6304 10.9904 24.5368 10.9106 24.418C10.8325 24.2975 10.7935 24.1608 10.7935 24.0078C10.7935 23.8695 10.8195 23.7466 10.8716 23.6392C10.9237 23.5317 11.0002 23.4414 11.1011 23.3682C11.2036 23.2933 11.3314 23.2371 11.4844 23.1997C11.6374 23.1606 11.8148 23.1411 12.0166 23.1411H12.4243Z" fill="white"/>
<path d="M13.5815 21H14.2847V24.1445L14.2139 24.75H13.5815V21ZM15.957 23.4023V23.4536C15.957 23.6506 15.9359 23.8312 15.8936 23.9956C15.8529 24.16 15.7894 24.3024 15.7031 24.4229C15.6169 24.5417 15.5094 24.6344 15.3809 24.7012C15.2539 24.7663 15.1042 24.7988 14.9316 24.7988C14.7705 24.7988 14.6305 24.7663 14.5117 24.7012C14.3945 24.6361 14.2961 24.5441 14.2163 24.4253C14.1366 24.3065 14.0723 24.1673 14.0234 24.0078C13.9746 23.8483 13.938 23.6742 13.9136 23.4854V23.373C13.938 23.1842 13.9746 23.0101 14.0234 22.8506C14.0723 22.6911 14.1366 22.5519 14.2163 22.4331C14.2961 22.3143 14.3945 22.2223 14.5117 22.1572C14.6289 22.0921 14.7673 22.0596 14.9268 22.0596C15.1009 22.0596 15.2523 22.0929 15.3809 22.1597C15.5111 22.2248 15.6185 22.3175 15.7031 22.438C15.7894 22.5568 15.8529 22.6984 15.8936 22.8628C15.9359 23.0256 15.957 23.2054 15.957 23.4023ZM15.2539 23.4536V23.4023C15.2539 23.2949 15.2458 23.194 15.2295 23.0996C15.2148 23.0036 15.1888 22.9198 15.1514 22.8481C15.1139 22.7749 15.0627 22.7171 14.9976 22.6748C14.9341 22.6325 14.8519 22.6113 14.751 22.6113C14.6549 22.6113 14.5736 22.6276 14.5068 22.6602C14.4401 22.6927 14.3848 22.7383 14.3408 22.7969C14.2985 22.8555 14.2668 22.9255 14.2456 23.0068C14.2244 23.0866 14.2114 23.1745 14.2065 23.2705V23.5903C14.2114 23.7189 14.2326 23.8328 14.27 23.9321C14.3091 24.0298 14.3677 24.1071 14.4458 24.1641C14.5256 24.2194 14.6289 24.2471 14.7559 24.2471C14.8551 24.2471 14.9373 24.2275 15.0024 24.1885C15.0675 24.1494 15.118 24.0941 15.1538 24.0225C15.1912 23.9508 15.2173 23.867 15.2319 23.771C15.2466 23.6733 15.2539 23.5675 15.2539 23.4536Z" fill="white"/>
<path d="M17.1362 21V24.75H16.4307V21H17.1362Z" fill="white"/>
<path d="M18.9331 24.7988C18.728 24.7988 18.5441 24.7663 18.3813 24.7012C18.2186 24.6344 18.0802 24.5425 17.9663 24.4253C17.854 24.3081 17.7677 24.1722 17.7075 24.0176C17.6473 23.8613 17.6172 23.6953 17.6172 23.5195V23.4219C17.6172 23.2217 17.6457 23.0386 17.7026 22.8726C17.7596 22.7065 17.841 22.5625 17.9468 22.4404C18.0542 22.3184 18.1844 22.2248 18.3374 22.1597C18.4904 22.0929 18.6629 22.0596 18.855 22.0596C19.0422 22.0596 19.2082 22.0905 19.353 22.1523C19.4979 22.2142 19.6191 22.3021 19.7168 22.416C19.8161 22.5299 19.891 22.6667 19.9414 22.8262C19.9919 22.984 20.0171 23.1598 20.0171 23.3535V23.6465H17.9175V23.1777H19.3262V23.124C19.3262 23.0264 19.3083 22.9393 19.2725 22.8628C19.2383 22.7847 19.1862 22.7228 19.1162 22.6772C19.0462 22.6317 18.9567 22.6089 18.8477 22.6089C18.7549 22.6089 18.6751 22.6292 18.6084 22.6699C18.5417 22.7106 18.4871 22.7676 18.4448 22.8408C18.4041 22.9141 18.3732 23.0003 18.3521 23.0996C18.3325 23.1973 18.3228 23.3047 18.3228 23.4219V23.5195C18.3228 23.6253 18.3374 23.723 18.3667 23.8125C18.3976 23.902 18.4408 23.9793 18.4961 24.0444C18.5531 24.1095 18.6214 24.16 18.7012 24.1958C18.7826 24.2316 18.8745 24.2495 18.9771 24.2495C19.104 24.2495 19.222 24.2251 19.3311 24.1763C19.4417 24.1258 19.5369 24.0501 19.6167 23.9492L19.9585 24.3203C19.9032 24.4001 19.8275 24.4766 19.7314 24.5498C19.637 24.623 19.5231 24.6833 19.3896 24.7305C19.2562 24.776 19.104 24.7988 18.9331 24.7988Z" fill="white"/>
<path d="M6.16699 29.1899H5.25391L5.24902 28.687H6.01562C6.15072 28.687 6.26139 28.6699 6.34766 28.6357C6.43392 28.5999 6.49821 28.5487 6.54053 28.4819C6.58447 28.4136 6.60645 28.3306 6.60645 28.2329C6.60645 28.1222 6.58529 28.0327 6.54297 27.9644C6.50228 27.896 6.43799 27.8464 6.3501 27.8154C6.26383 27.7845 6.15234 27.769 6.01562 27.769H5.50781V30.75H4.77539V27.1953H6.01562C6.22233 27.1953 6.40706 27.2148 6.56982 27.2539C6.73421 27.293 6.87337 27.3524 6.9873 27.4321C7.10124 27.5119 7.18831 27.6128 7.24854 27.7349C7.30876 27.8553 7.33887 27.9985 7.33887 28.1646C7.33887 28.311 7.3055 28.4461 7.23877 28.5698C7.17367 28.6935 7.07031 28.7944 6.92871 28.8726C6.78874 28.9507 6.60563 28.9938 6.37939 29.002L6.16699 29.1899ZM6.13525 30.75H5.05371L5.33936 30.1787H6.13525C6.26383 30.1787 6.36882 30.1584 6.4502 30.1177C6.53158 30.0754 6.5918 30.0184 6.63086 29.9468C6.66992 29.8752 6.68945 29.793 6.68945 29.7002C6.68945 29.596 6.67155 29.5057 6.63574 29.4292C6.60156 29.3527 6.54622 29.2941 6.46973 29.2534C6.39323 29.2111 6.29232 29.1899 6.16699 29.1899H5.46143L5.46631 28.687H6.34521L6.51367 28.8848C6.73014 28.8815 6.9043 28.9198 7.03613 28.9995C7.1696 29.0776 7.26644 29.1794 7.32666 29.3047C7.38851 29.43 7.41943 29.5643 7.41943 29.7075C7.41943 29.9354 7.36979 30.1274 7.27051 30.2837C7.17122 30.4383 7.02555 30.5547 6.8335 30.6328C6.64307 30.7109 6.41032 30.75 6.13525 30.75Z" fill="white"/>
<path d="M9.14062 30.7988C8.93555 30.7988 8.75163 30.7663 8.58887 30.7012C8.42611 30.6344 8.28776 30.5425 8.17383 30.4253C8.06152 30.3081 7.97526 30.1722 7.91504 30.0176C7.85482 29.8613 7.82471 29.6953 7.82471 29.5195V29.4219C7.82471 29.2217 7.85319 29.0386 7.91016 28.8726C7.96712 28.7065 8.0485 28.5625 8.1543 28.4404C8.26172 28.3184 8.39193 28.2248 8.54492 28.1597C8.69792 28.0929 8.87044 28.0596 9.0625 28.0596C9.24967 28.0596 9.41569 28.0905 9.56055 28.1523C9.7054 28.2142 9.82666 28.3021 9.92432 28.416C10.0236 28.5299 10.0985 28.6667 10.1489 28.8262C10.1994 28.984 10.2246 29.1598 10.2246 29.3535V29.6465H8.125V29.1777H9.53369V29.124C9.53369 29.0264 9.51579 28.9393 9.47998 28.8628C9.4458 28.7847 9.39372 28.7228 9.32373 28.6772C9.25374 28.6317 9.16423 28.6089 9.05518 28.6089C8.9624 28.6089 8.88265 28.6292 8.81592 28.6699C8.74919 28.7106 8.69466 28.7676 8.65234 28.8408C8.61165 28.9141 8.58073 29.0003 8.55957 29.0996C8.54004 29.1973 8.53027 29.3047 8.53027 29.4219V29.5195C8.53027 29.6253 8.54492 29.723 8.57422 29.8125C8.60514 29.902 8.64827 29.9793 8.70361 30.0444C8.76058 30.1095 8.82894 30.16 8.90869 30.1958C8.99007 30.2316 9.08203 30.2495 9.18457 30.2495C9.31152 30.2495 9.42952 30.2251 9.53857 30.1763C9.64925 30.1258 9.74447 30.0501 9.82422 29.9492L10.166 30.3203C10.1107 30.4001 10.035 30.4766 9.93896 30.5498C9.84456 30.623 9.73063 30.6833 9.59717 30.7305C9.4637 30.776 9.31152 30.7988 9.14062 30.7988Z" fill="white"/>
<path d="M11.3672 28.1084V30.75H10.6616V28.1084H11.3672ZM10.6177 27.4199C10.6177 27.3174 10.6535 27.2327 10.7251 27.166C10.7967 27.0993 10.8927 27.0659 11.0132 27.0659C11.132 27.0659 11.2272 27.0993 11.2988 27.166C11.3721 27.2327 11.4087 27.3174 11.4087 27.4199C11.4087 27.5225 11.3721 27.6071 11.2988 27.6738C11.2272 27.7406 11.132 27.7739 11.0132 27.7739C10.8927 27.7739 10.7967 27.7406 10.7251 27.6738C10.6535 27.6071 10.6177 27.5225 10.6177 27.4199Z" fill="white"/>
<path d="M12.6367 28.6724V30.75H11.9336V28.1084H12.5928L12.6367 28.6724ZM12.5342 29.3364H12.3438C12.3438 29.1411 12.369 28.9653 12.4194 28.8091C12.4699 28.6512 12.5407 28.5169 12.6318 28.4062C12.723 28.2939 12.8312 28.2085 12.9565 28.1499C13.0835 28.0897 13.2251 28.0596 13.3813 28.0596C13.505 28.0596 13.6182 28.0775 13.7207 28.1133C13.8232 28.1491 13.9111 28.2061 13.9844 28.2842C14.0592 28.3623 14.1162 28.4657 14.1553 28.5942C14.196 28.7228 14.2163 28.8799 14.2163 29.0654V30.75H13.5083V29.063C13.5083 28.9458 13.492 28.8547 13.4595 28.7896C13.4269 28.7244 13.3789 28.6789 13.3154 28.6528C13.2536 28.6252 13.1771 28.6113 13.0859 28.6113C12.9915 28.6113 12.9093 28.63 12.8394 28.6675C12.771 28.7049 12.714 28.757 12.6685 28.8237C12.6245 28.8888 12.5911 28.9653 12.5684 29.0532C12.5456 29.1411 12.5342 29.2355 12.5342 29.3364Z" fill="white"/>
<path d="M16.4233 28.1084H17.0605V30.6621C17.0605 30.903 17.0068 31.1073 16.8994 31.2749C16.7936 31.4442 16.6455 31.5719 16.4551 31.6582C16.2646 31.7461 16.0433 31.79 15.791 31.79C15.6803 31.79 15.5632 31.7754 15.4395 31.7461C15.3174 31.7168 15.2002 31.6712 15.0879 31.6094C14.9772 31.5475 14.8844 31.4694 14.8096 31.375L15.1196 30.96C15.201 31.0544 15.2954 31.1276 15.4028 31.1797C15.5103 31.2334 15.6291 31.2603 15.7593 31.2603C15.8862 31.2603 15.9937 31.2367 16.0815 31.1895C16.1694 31.1439 16.237 31.0763 16.2842 30.9868C16.3314 30.8989 16.355 30.7923 16.355 30.667V28.7188L16.4233 28.1084ZM14.646 29.4609V29.4097C14.646 29.2078 14.6704 29.0247 14.7192 28.8604C14.7697 28.6943 14.8405 28.5519 14.9316 28.4331C15.0244 28.3143 15.1367 28.2223 15.2686 28.1572C15.4004 28.0921 15.5493 28.0596 15.7153 28.0596C15.8911 28.0596 16.0384 28.0921 16.1572 28.1572C16.276 28.2223 16.3737 28.3151 16.4502 28.4355C16.5267 28.5544 16.5861 28.6951 16.6284 28.8579C16.6724 29.019 16.7065 29.1956 16.731 29.3877V29.5C16.7065 29.6839 16.6699 29.8548 16.6211 30.0127C16.5723 30.1706 16.508 30.3089 16.4282 30.4277C16.3485 30.5449 16.2492 30.6361 16.1304 30.7012C16.0132 30.7663 15.8732 30.7988 15.7104 30.7988C15.5477 30.7988 15.4004 30.7655 15.2686 30.6987C15.1383 30.632 15.0269 30.5384 14.9341 30.418C14.8413 30.2975 14.7697 30.1559 14.7192 29.9932C14.6704 29.8304 14.646 29.653 14.646 29.4609ZM15.3491 29.4097V29.4609C15.3491 29.57 15.3597 29.6717 15.3809 29.7661C15.402 29.8605 15.4346 29.9443 15.4785 30.0176C15.5241 30.0892 15.5802 30.1453 15.647 30.186C15.7153 30.2251 15.7959 30.2446 15.8887 30.2446C16.0173 30.2446 16.1222 30.2178 16.2036 30.1641C16.285 30.1087 16.346 30.033 16.3867 29.937C16.4274 29.841 16.451 29.7303 16.4575 29.605V29.2852C16.4543 29.1826 16.4404 29.0907 16.416 29.0093C16.3916 28.9263 16.3574 28.8555 16.3135 28.7969C16.2695 28.7383 16.2126 28.6927 16.1426 28.6602C16.0726 28.6276 15.9896 28.6113 15.8936 28.6113C15.8008 28.6113 15.7202 28.6325 15.6519 28.6748C15.5851 28.7155 15.529 28.7716 15.4834 28.8433C15.4395 28.9149 15.4061 28.9995 15.3833 29.0972C15.3605 29.1932 15.3491 29.2974 15.3491 29.4097Z" fill="white"/>
<path d="M0.334473 33.1953H0.95459L1.86768 35.8052L2.78076 33.1953H3.40088L2.1167 36.75H1.61865L0.334473 33.1953ZM0 33.1953H0.617676L0.72998 35.7393V36.75H0V33.1953ZM3.11768 33.1953H3.73779V36.75H3.00537V35.7393L3.11768 33.1953Z" fill="white"/>
<path d="M5.55176 36.7988C5.34668 36.7988 5.16276 36.7663 5 36.7012C4.83724 36.6344 4.69889 36.5425 4.58496 36.4253C4.47266 36.3081 4.38639 36.1722 4.32617 36.0176C4.26595 35.8613 4.23584 35.6953 4.23584 35.5195V35.4219C4.23584 35.2217 4.26432 35.0386 4.32129 34.8726C4.37826 34.7065 4.45964 34.5625 4.56543 34.4404C4.67285 34.3184 4.80306 34.2248 4.95605 34.1597C5.10905 34.0929 5.28158 34.0596 5.47363 34.0596C5.66081 34.0596 5.82682 34.0905 5.97168 34.1523C6.11654 34.2142 6.23779 34.3021 6.33545 34.416C6.43473 34.5299 6.5096 34.6667 6.56006 34.8262C6.61051 34.984 6.63574 35.1598 6.63574 35.3535V35.6465H4.53613V35.1777H5.94482V35.124C5.94482 35.0264 5.92692 34.9393 5.89111 34.8628C5.85693 34.7847 5.80485 34.7228 5.73486 34.6772C5.66488 34.6317 5.57536 34.6089 5.46631 34.6089C5.37354 34.6089 5.29378 34.6292 5.22705 34.6699C5.16032 34.7106 5.10579 34.7676 5.06348 34.8408C5.02279 34.9141 4.99186 35.0003 4.9707 35.0996C4.95117 35.1973 4.94141 35.3047 4.94141 35.4219V35.5195C4.94141 35.6253 4.95605 35.723 4.98535 35.8125C5.01628 35.902 5.05941 35.9793 5.11475 36.0444C5.17171 36.1095 5.24007 36.16 5.31982 36.1958C5.4012 36.2316 5.49316 36.2495 5.5957 36.2495C5.72266 36.2495 5.84066 36.2251 5.94971 36.1763C6.06038 36.1258 6.1556 36.0501 6.23535 35.9492L6.57715 36.3203C6.52181 36.4001 6.44613 36.4766 6.3501 36.5498C6.2557 36.623 6.14176 36.6833 6.0083 36.7305C5.87484 36.776 5.72266 36.7988 5.55176 36.7988Z" fill="white"/>
<path d="M8.46191 36.1543V34.9775C8.46191 34.8929 8.44808 34.8205 8.42041 34.7603C8.39274 34.6984 8.34961 34.6504 8.29102 34.6162C8.23405 34.582 8.15999 34.5649 8.06885 34.5649C7.99072 34.5649 7.92318 34.5788 7.86621 34.6064C7.80924 34.6325 7.7653 34.6707 7.73438 34.7212C7.70345 34.77 7.68799 34.8278 7.68799 34.8945H6.98486C6.98486 34.7822 7.0109 34.6756 7.06299 34.5747C7.11507 34.4738 7.19076 34.3851 7.29004 34.3086C7.38932 34.2305 7.50732 34.1694 7.64404 34.1255C7.78239 34.0815 7.93701 34.0596 8.10791 34.0596C8.31299 34.0596 8.49528 34.0938 8.65479 34.1621C8.81429 34.2305 8.93962 34.333 9.03076 34.4697C9.12354 34.6064 9.16992 34.7773 9.16992 34.9824V36.1128C9.16992 36.2576 9.17887 36.3765 9.19678 36.4692C9.21468 36.5604 9.24072 36.6401 9.2749 36.7085V36.75H8.56445C8.53027 36.6784 8.50423 36.5889 8.48633 36.4814C8.47005 36.3724 8.46191 36.2633 8.46191 36.1543ZM8.55469 35.1411L8.55957 35.5391H8.1665C8.07373 35.5391 7.99316 35.5496 7.9248 35.5708C7.85645 35.592 7.80029 35.6221 7.75635 35.6611C7.7124 35.6986 7.67985 35.7425 7.65869 35.793C7.63916 35.8434 7.62939 35.8988 7.62939 35.959C7.62939 36.0192 7.64323 36.0737 7.6709 36.1226C7.69857 36.1698 7.73844 36.2072 7.79053 36.2349C7.84261 36.2609 7.90365 36.2739 7.97363 36.2739C8.07943 36.2739 8.17139 36.2528 8.24951 36.2104C8.32764 36.1681 8.38786 36.116 8.43018 36.0542C8.47412 35.9924 8.49691 35.9338 8.49854 35.8784L8.68408 36.1763C8.65804 36.243 8.62223 36.3122 8.57666 36.3838C8.53271 36.4554 8.47656 36.5229 8.4082 36.5864C8.33984 36.6483 8.25765 36.6995 8.16162 36.7402C8.06559 36.7793 7.95166 36.7988 7.81982 36.7988C7.65218 36.7988 7.5 36.7655 7.36328 36.6987C7.22819 36.6304 7.12077 36.5368 7.04102 36.418C6.96289 36.2975 6.92383 36.1608 6.92383 36.0078C6.92383 35.8695 6.94987 35.7466 7.00195 35.6392C7.05404 35.5317 7.13053 35.4414 7.23145 35.3682C7.33398 35.2933 7.46175 35.2371 7.61475 35.1997C7.76774 35.1606 7.94515 35.1411 8.14697 35.1411H8.55469Z" fill="white"/>
<path d="M11.1401 36.02C11.1401 35.9696 11.1255 35.924 11.0962 35.8833C11.0669 35.8426 11.0124 35.8052 10.9326 35.771C10.8545 35.7352 10.7414 35.7026 10.5933 35.6733C10.4598 35.644 10.3353 35.6074 10.2197 35.5635C10.1058 35.5179 10.0065 35.4634 9.92188 35.3999C9.83887 35.3364 9.77376 35.2616 9.72656 35.1753C9.67936 35.0874 9.65576 34.9873 9.65576 34.875C9.65576 34.7643 9.67936 34.6602 9.72656 34.5625C9.77539 34.4648 9.84456 34.3786 9.93408 34.3037C10.0252 34.2272 10.1359 34.1678 10.2661 34.1255C10.3979 34.0815 10.5461 34.0596 10.7104 34.0596C10.9399 34.0596 11.1369 34.0962 11.3013 34.1694C11.4673 34.2427 11.5942 34.3436 11.6821 34.4722C11.7716 34.5991 11.8164 34.744 11.8164 34.9067H11.1133C11.1133 34.8384 11.0986 34.7773 11.0693 34.7236C11.0417 34.6683 10.9977 34.6252 10.9375 34.5942C10.8789 34.5617 10.8024 34.5454 10.708 34.5454C10.6299 34.5454 10.5623 34.5592 10.5054 34.5869C10.4484 34.613 10.4045 34.6488 10.3735 34.6943C10.3442 34.7383 10.3296 34.7871 10.3296 34.8408C10.3296 34.8815 10.3377 34.9181 10.354 34.9507C10.3719 34.9816 10.4004 35.0101 10.4395 35.0361C10.4785 35.0622 10.529 35.0866 10.5908 35.1094C10.6543 35.1305 10.7324 35.1501 10.8252 35.168C11.0156 35.207 11.1857 35.2583 11.3354 35.3218C11.4852 35.3836 11.604 35.4683 11.6919 35.5757C11.7798 35.6815 11.8237 35.8206 11.8237 35.9932C11.8237 36.1104 11.7977 36.2178 11.7456 36.3154C11.6935 36.4131 11.6187 36.4985 11.521 36.5718C11.4233 36.6434 11.3062 36.6995 11.1694 36.7402C11.0343 36.7793 10.8822 36.7988 10.7129 36.7988C10.4671 36.7988 10.2588 36.7549 10.0879 36.667C9.91862 36.5791 9.79004 36.4676 9.70215 36.3325C9.61589 36.1958 9.57275 36.0558 9.57275 35.9126H10.2393C10.2425 36.0086 10.2669 36.0859 10.3125 36.1445C10.3597 36.2031 10.4191 36.2454 10.4907 36.2715C10.564 36.2975 10.6429 36.3105 10.7275 36.3105C10.8187 36.3105 10.8944 36.2983 10.9546 36.2739C11.0148 36.2479 11.0604 36.2137 11.0913 36.1714C11.1239 36.1274 11.1401 36.077 11.1401 36.02Z" fill="white"/>
<path d="M13.8428 36.1177V34.1084H14.5459V36.75H13.8843L13.8428 36.1177ZM13.9209 35.5757L14.1284 35.5708C14.1284 35.7466 14.1081 35.9102 14.0674 36.0615C14.0267 36.2113 13.9657 36.3415 13.8843 36.4521C13.8029 36.5612 13.7004 36.6466 13.5767 36.7085C13.453 36.7687 13.3073 36.7988 13.1396 36.7988C13.0111 36.7988 12.8923 36.7809 12.7832 36.7451C12.6758 36.7077 12.583 36.6499 12.5049 36.5718C12.4284 36.492 12.3682 36.3903 12.3242 36.2666C12.2819 36.1413 12.2607 35.9907 12.2607 35.8149V34.1084H12.9639V35.8198C12.9639 35.8979 12.9728 35.9639 12.9907 36.0176C13.0103 36.0713 13.0371 36.1152 13.0713 36.1494C13.1055 36.1836 13.1453 36.208 13.1909 36.2227C13.2381 36.2373 13.2902 36.2446 13.3472 36.2446C13.492 36.2446 13.606 36.2153 13.689 36.1567C13.7736 36.0981 13.833 36.0184 13.8672 35.9175C13.903 35.8149 13.9209 35.701 13.9209 35.5757Z" fill="white"/>
<path d="M15.7861 34.6846V36.75H15.083V34.1084H15.7446L15.7861 34.6846ZM16.582 34.0913L16.5698 34.7432C16.5356 34.7383 16.4941 34.7342 16.4453 34.731C16.3981 34.7261 16.355 34.7236 16.3159 34.7236C16.2166 34.7236 16.1304 34.7367 16.0571 34.7627C15.9855 34.7871 15.9253 34.8237 15.8765 34.8726C15.8293 34.9214 15.7935 34.9808 15.769 35.0508C15.7463 35.1208 15.7332 35.2005 15.73 35.29L15.5884 35.2461C15.5884 35.0752 15.6055 34.9181 15.6396 34.7749C15.6738 34.63 15.7235 34.5039 15.7886 34.3965C15.8553 34.2891 15.9367 34.2061 16.0327 34.1475C16.1287 34.0889 16.2386 34.0596 16.3623 34.0596C16.4014 34.0596 16.4412 34.0628 16.4819 34.0693C16.5226 34.0742 16.556 34.0815 16.582 34.0913Z" fill="white"/>
<path d="M18.0811 36.7988C17.876 36.7988 17.6921 36.7663 17.5293 36.7012C17.3665 36.6344 17.2282 36.5425 17.1143 36.4253C17.002 36.3081 16.9157 36.1722 16.8555 36.0176C16.7952 35.8613 16.7651 35.6953 16.7651 35.5195V35.4219C16.7651 35.2217 16.7936 35.0386 16.8506 34.8726C16.9076 34.7065 16.9889 34.5625 17.0947 34.4404C17.2021 34.3184 17.3324 34.2248 17.4854 34.1597C17.6383 34.0929 17.8109 34.0596 18.0029 34.0596C18.1901 34.0596 18.3561 34.0905 18.501 34.1523C18.6458 34.2142 18.7671 34.3021 18.8647 34.416C18.964 34.5299 19.0389 34.6667 19.0894 34.8262C19.1398 34.984 19.165 35.1598 19.165 35.3535V35.6465H17.0654V35.1777H18.4741V35.124C18.4741 35.0264 18.4562 34.9393 18.4204 34.8628C18.3862 34.7847 18.3341 34.7228 18.2642 34.6772C18.1942 34.6317 18.1047 34.6089 17.9956 34.6089C17.9028 34.6089 17.8231 34.6292 17.7563 34.6699C17.6896 34.7106 17.6351 34.7676 17.5928 34.8408C17.5521 34.9141 17.5212 35.0003 17.5 35.0996C17.4805 35.1973 17.4707 35.3047 17.4707 35.4219V35.5195C17.4707 35.6253 17.4854 35.723 17.5146 35.8125C17.5456 35.902 17.5887 35.9793 17.644 36.0444C17.701 36.1095 17.7694 36.16 17.8491 36.1958C17.9305 36.2316 18.0225 36.2495 18.125 36.2495C18.252 36.2495 18.37 36.2251 18.479 36.1763C18.5897 36.1258 18.6849 36.0501 18.7646 35.9492L19.1064 36.3203C19.0511 36.4001 18.9754 36.4766 18.8794 36.5498C18.785 36.623 18.6711 36.6833 18.5376 36.7305C18.4041 36.776 18.252 36.7988 18.0811 36.7988Z" fill="white"/>
<path d="M21.1255 36.1738V33H21.8335V36.75H21.1963L21.1255 36.1738ZM19.4556 35.4609V35.4097C19.4556 35.2078 19.4784 35.0247 19.5239 34.8604C19.5695 34.6943 19.6362 34.5519 19.7241 34.4331C19.812 34.3143 19.9202 34.2223 20.0488 34.1572C20.1774 34.0921 20.3239 34.0596 20.4883 34.0596C20.6429 34.0596 20.778 34.0921 20.8936 34.1572C21.0107 34.2223 21.11 34.3151 21.1914 34.4355C21.2744 34.5544 21.3411 34.6951 21.3916 34.8579C21.4421 35.019 21.4787 35.1956 21.5015 35.3877V35.5C21.4787 35.6839 21.4421 35.8548 21.3916 36.0127C21.3411 36.1706 21.2744 36.3089 21.1914 36.4277C21.11 36.5449 21.0107 36.6361 20.8936 36.7012C20.7764 36.7663 20.6396 36.7988 20.4834 36.7988C20.319 36.7988 20.1725 36.7655 20.0439 36.6987C19.917 36.632 19.8096 36.5384 19.7217 36.418C19.6354 36.2975 19.5695 36.1559 19.5239 35.9932C19.4784 35.8304 19.4556 35.653 19.4556 35.4609ZM20.1587 35.4097V35.4609C20.1587 35.57 20.1668 35.6717 20.1831 35.7661C20.201 35.8605 20.2295 35.9443 20.2686 36.0176C20.3092 36.0892 20.3613 36.1453 20.4248 36.186C20.4899 36.2251 20.5688 36.2446 20.6616 36.2446C20.7821 36.2446 20.8813 36.2178 20.9595 36.1641C21.0376 36.1087 21.097 36.033 21.1377 35.937C21.18 35.841 21.2044 35.7303 21.2109 35.605V35.2852C21.2061 35.1826 21.1914 35.0907 21.167 35.0093C21.1442 34.9263 21.11 34.8555 21.0645 34.7969C21.0205 34.7383 20.9652 34.6927 20.8984 34.6602C20.8333 34.6276 20.756 34.6113 20.6665 34.6113C20.5754 34.6113 20.4972 34.6325 20.4321 34.6748C20.367 34.7155 20.3141 34.7716 20.2734 34.8433C20.2344 34.9149 20.2051 34.9995 20.1855 35.0972C20.1676 35.1932 20.1587 35.2974 20.1587 35.4097Z" fill="white"/>
<path d="M37.0889 3.18604L37.7969 0.195312H38.1924L38.2827 0.693359L37.5283 3.75H37.1035L37.0889 3.18604ZM36.7251 0.195312L37.311 3.18604L37.2622 3.75H36.7886L36 0.195312H36.7251ZM38.9053 3.17383L39.4839 0.195312H40.209L39.4229 3.75H38.9492L38.9053 3.17383ZM38.4146 0.195312L39.1274 3.19824L39.1079 3.75H38.6831L37.9238 0.690918L38.0215 0.195312H38.4146Z" fill="white"/>
<path d="M41.249 0V3.75H40.5459V0H41.249ZM41.1489 2.33643H40.9561C40.9577 2.15251 40.9821 1.98324 41.0293 1.82861C41.0765 1.67236 41.144 1.53727 41.2319 1.42334C41.3198 1.30778 41.4248 1.21826 41.5469 1.15479C41.6706 1.09131 41.8073 1.05957 41.957 1.05957C42.0872 1.05957 42.2052 1.07829 42.311 1.11572C42.4185 1.15153 42.5104 1.21012 42.5869 1.2915C42.665 1.37126 42.7253 1.47624 42.7676 1.60645C42.8099 1.73665 42.8311 1.89453 42.8311 2.08008V3.75H42.123V2.0752C42.123 1.95801 42.106 1.86605 42.0718 1.79932C42.0392 1.73096 41.9912 1.68294 41.9277 1.65527C41.8659 1.62598 41.7894 1.61133 41.6982 1.61133C41.5973 1.61133 41.5111 1.63005 41.4395 1.66748C41.3695 1.70492 41.3133 1.757 41.271 1.82373C41.2287 1.88883 41.1978 1.96533 41.1782 2.05322C41.1587 2.14111 41.1489 2.23551 41.1489 2.33643Z" fill="white"/>
<path d="M44.7915 3.1543V1.97754C44.7915 1.8929 44.7777 1.82048 44.75 1.76025C44.7223 1.6984 44.6792 1.65039 44.6206 1.61621C44.5636 1.58203 44.4896 1.56494 44.3984 1.56494C44.3203 1.56494 44.2528 1.57878 44.1958 1.60645C44.1388 1.63249 44.0949 1.67074 44.064 1.72119C44.033 1.77002 44.0176 1.8278 44.0176 1.89453H43.3145C43.3145 1.78223 43.3405 1.67562 43.3926 1.57471C43.4447 1.4738 43.5203 1.38509 43.6196 1.30859C43.7189 1.23047 43.8369 1.16943 43.9736 1.12549C44.112 1.08154 44.2666 1.05957 44.4375 1.05957C44.6426 1.05957 44.8249 1.09375 44.9844 1.16211C45.1439 1.23047 45.2692 1.33301 45.3604 1.46973C45.4531 1.60645 45.4995 1.77734 45.4995 1.98242V3.11279C45.4995 3.25765 45.5085 3.37646 45.5264 3.46924C45.5443 3.56038 45.5703 3.64014 45.6045 3.7085V3.75H44.894C44.8599 3.67839 44.8338 3.58887 44.8159 3.48145C44.7996 3.3724 44.7915 3.26335 44.7915 3.1543ZM44.8843 2.14111L44.8892 2.53906H44.4961C44.4033 2.53906 44.3228 2.54964 44.2544 2.5708C44.186 2.59196 44.1299 2.62207 44.0859 2.66113C44.042 2.69857 44.0094 2.74251 43.9883 2.79297C43.9688 2.84342 43.959 2.89876 43.959 2.95898C43.959 3.01921 43.9728 3.07373 44.0005 3.12256C44.0282 3.16976 44.068 3.20719 44.1201 3.23486C44.1722 3.2609 44.2332 3.27393 44.3032 3.27393C44.409 3.27393 44.501 3.25277 44.5791 3.21045C44.6572 3.16813 44.7174 3.11605 44.7598 3.0542C44.8037 2.99235 44.8265 2.93376 44.8281 2.87842L45.0137 3.17627C44.9876 3.243 44.9518 3.31217 44.9062 3.38379C44.8623 3.4554 44.8062 3.52295 44.7378 3.58643C44.6694 3.64827 44.5872 3.69954 44.4912 3.74023C44.3952 3.7793 44.2812 3.79883 44.1494 3.79883C43.9818 3.79883 43.8296 3.76546 43.6929 3.69873C43.5578 3.63037 43.4504 3.53678 43.3706 3.41797C43.2925 3.29753 43.2534 3.16081 43.2534 3.00781C43.2534 2.86947 43.2795 2.74658 43.3315 2.63916C43.3836 2.53174 43.4601 2.44141 43.561 2.36816C43.6636 2.29329 43.7913 2.23714 43.9443 2.19971C44.0973 2.16064 44.2747 2.14111 44.4766 2.14111H44.8843Z" fill="white"/>
<path d="M47.3354 1.1084V1.60645H45.7974V1.1084H47.3354ZM46.1782 0.456543H46.8813V2.9541C46.8813 3.0306 46.8911 3.08919 46.9106 3.12988C46.9318 3.17057 46.9627 3.19906 47.0034 3.21533C47.0441 3.22998 47.0954 3.2373 47.1572 3.2373C47.2012 3.2373 47.2402 3.23568 47.2744 3.23242C47.3102 3.22754 47.3403 3.22266 47.3647 3.21777L47.3672 3.73535C47.307 3.75488 47.2419 3.77035 47.1719 3.78174C47.1019 3.79313 47.0246 3.79883 46.9399 3.79883C46.7853 3.79883 46.6502 3.7736 46.5347 3.72314C46.4207 3.67106 46.3328 3.58805 46.271 3.47412C46.2091 3.36019 46.1782 3.21045 46.1782 3.0249V0.456543Z" fill="white"/>
<path d="M49.8037 0.195312V3.75H49.0737V0.195312H49.8037Z" fill="white"/>
<path d="M51.7397 1.1084V1.60645H50.2017V1.1084H51.7397ZM50.5825 0.456543H51.2856V2.9541C51.2856 3.0306 51.2954 3.08919 51.3149 3.12988C51.3361 3.17057 51.367 3.19906 51.4077 3.21533C51.4484 3.22998 51.4997 3.2373 51.5615 3.2373C51.6055 3.2373 51.6445 3.23568 51.6787 3.23242C51.7145 3.22754 51.7446 3.22266 51.769 3.21777L51.7715 3.73535C51.7113 3.75488 51.6462 3.77035 51.5762 3.78174C51.5062 3.79313 51.4289 3.79883 51.3442 3.79883C51.1896 3.79883 51.0545 3.7736 50.939 3.72314C50.825 3.67106 50.7371 3.58805 50.6753 3.47412C50.6134 3.36019 50.5825 3.21045 50.5825 3.0249V0.456543Z" fill="white"/>
<path d="M39.6279 9.75H38.854L38.8589 9.17871H39.6279C39.82 9.17871 39.9819 9.13558 40.1138 9.04932C40.2456 8.96143 40.3449 8.83366 40.4116 8.66602C40.48 8.49837 40.5142 8.29574 40.5142 8.05811V7.88477C40.5142 7.70247 40.4946 7.54215 40.4556 7.40381C40.4181 7.26546 40.362 7.14909 40.2871 7.05469C40.2122 6.96029 40.1203 6.88949 40.0112 6.84229C39.9022 6.79346 39.7769 6.76904 39.6353 6.76904H38.8394V6.19531H39.6353C39.8729 6.19531 40.0902 6.236 40.2871 6.31738C40.4857 6.39714 40.6574 6.51188 40.8022 6.66162C40.9471 6.81136 41.0586 6.9904 41.1367 7.19873C41.2165 7.40544 41.2563 7.63574 41.2563 7.88965V8.05811C41.2563 8.31038 41.2165 8.54069 41.1367 8.74902C41.0586 8.95736 40.9471 9.13639 40.8022 9.28613C40.659 9.43424 40.4873 9.54899 40.2871 9.63037C40.0885 9.71012 39.8688 9.75 39.6279 9.75ZM39.269 6.19531V9.75H38.5366V6.19531H39.269Z" fill="white"/>
<path d="M41.6323 8.45605V8.40479C41.6323 8.2111 41.66 8.03288 41.7153 7.87012C41.7707 7.70573 41.8512 7.56331 41.957 7.44287C42.0628 7.32243 42.193 7.22884 42.3477 7.16211C42.5023 7.09375 42.6797 7.05957 42.8799 7.05957C43.0801 7.05957 43.2583 7.09375 43.4146 7.16211C43.5708 7.22884 43.7018 7.32243 43.8076 7.44287C43.915 7.56331 43.9964 7.70573 44.0518 7.87012C44.1071 8.03288 44.1348 8.2111 44.1348 8.40479V8.45605C44.1348 8.64811 44.1071 8.82633 44.0518 8.99072C43.9964 9.15348 43.915 9.2959 43.8076 9.41797C43.7018 9.53841 43.5716 9.632 43.417 9.69873C43.2624 9.76546 43.085 9.79883 42.8848 9.79883C42.6846 9.79883 42.5063 9.76546 42.3501 9.69873C42.1955 9.632 42.0645 9.53841 41.957 9.41797C41.8512 9.2959 41.7707 9.15348 41.7153 8.99072C41.66 8.82633 41.6323 8.64811 41.6323 8.45605ZM42.3354 8.40479V8.45605C42.3354 8.56673 42.3452 8.67008 42.3647 8.76611C42.3843 8.86214 42.4152 8.94678 42.4575 9.02002C42.5015 9.09163 42.5584 9.14779 42.6284 9.18848C42.6984 9.22917 42.7839 9.24951 42.8848 9.24951C42.9824 9.24951 43.0662 9.22917 43.1362 9.18848C43.2062 9.14779 43.2624 9.09163 43.3047 9.02002C43.347 8.94678 43.3779 8.86214 43.3975 8.76611C43.4186 8.67008 43.4292 8.56673 43.4292 8.45605V8.40479C43.4292 8.29736 43.4186 8.19645 43.3975 8.10205C43.3779 8.00602 43.3462 7.92139 43.3022 7.84814C43.2599 7.77327 43.2038 7.71468 43.1338 7.67236C43.0638 7.63005 42.9792 7.60889 42.8799 7.60889C42.7806 7.60889 42.696 7.63005 42.626 7.67236C42.5576 7.71468 42.5015 7.77327 42.4575 7.84814C42.4152 7.92139 42.3843 8.00602 42.3647 8.10205C42.3452 8.19645 42.3354 8.29736 42.3354 8.40479Z" fill="white"/>
<path d="M45.7827 9.79883C45.5776 9.79883 45.3937 9.76628 45.231 9.70117C45.0682 9.63444 44.9299 9.54248 44.8159 9.42529C44.7036 9.30811 44.6174 9.1722 44.5571 9.01758C44.4969 8.86133 44.4668 8.69531 44.4668 8.51953V8.42188C44.4668 8.22168 44.4953 8.03857 44.5522 7.87256C44.6092 7.70654 44.6906 7.5625 44.7964 7.44043C44.9038 7.31836 45.034 7.22477 45.187 7.15967C45.34 7.09294 45.5125 7.05957 45.7046 7.05957C45.8918 7.05957 46.0578 7.09049 46.2026 7.15234C46.3475 7.21419 46.4688 7.30208 46.5664 7.41602C46.6657 7.52995 46.7406 7.66667 46.791 7.82617C46.8415 7.98405 46.8667 8.15983 46.8667 8.35352V8.64648H44.7671V8.17773H46.1758V8.12402C46.1758 8.02637 46.1579 7.93929 46.1221 7.86279C46.0879 7.78467 46.0358 7.72282 45.9658 7.67725C45.8958 7.63167 45.8063 7.60889 45.6973 7.60889C45.6045 7.60889 45.5247 7.62923 45.458 7.66992C45.3913 7.71061 45.3368 7.76758 45.2944 7.84082C45.2537 7.91406 45.2228 8.00033 45.2017 8.09961C45.1821 8.19727 45.1724 8.30469 45.1724 8.42188V8.51953C45.1724 8.62533 45.187 8.72298 45.2163 8.8125C45.2472 8.90202 45.2904 8.97933 45.3457 9.04443C45.4027 9.10954 45.471 9.15999 45.5508 9.1958C45.6322 9.23161 45.7241 9.24951 45.8267 9.24951C45.9536 9.24951 46.0716 9.2251 46.1807 9.17627C46.2913 9.12581 46.3866 9.05013 46.4663 8.94922L46.8081 9.32031C46.7528 9.40007 46.6771 9.47656 46.5811 9.5498C46.4867 9.62305 46.3727 9.68327 46.2393 9.73047C46.1058 9.77604 45.9536 9.79883 45.7827 9.79883Z" fill="white"/>
<path d="M48.6953 9.02002C48.6953 8.96956 48.6807 8.92399 48.6514 8.8833C48.6221 8.84261 48.5675 8.80518 48.4878 8.771C48.4097 8.73519 48.2965 8.70264 48.1484 8.67334C48.015 8.64404 47.8905 8.60742 47.7749 8.56348C47.661 8.5179 47.5617 8.46338 47.4771 8.3999C47.394 8.33643 47.3289 8.26156 47.2817 8.17529C47.2345 8.0874 47.2109 7.9873 47.2109 7.875C47.2109 7.76432 47.2345 7.66016 47.2817 7.5625C47.3306 7.46484 47.3997 7.37858 47.4893 7.30371C47.5804 7.22721 47.6911 7.16781 47.8213 7.12549C47.9531 7.08154 48.1012 7.05957 48.2656 7.05957C48.4951 7.05957 48.6921 7.09619 48.8564 7.16943C49.0225 7.24268 49.1494 7.34359 49.2373 7.47217C49.3268 7.59912 49.3716 7.74398 49.3716 7.90674H48.6685C48.6685 7.83838 48.6538 7.77734 48.6245 7.72363C48.5968 7.66829 48.5529 7.62516 48.4927 7.59424C48.4341 7.56169 48.3576 7.54541 48.2632 7.54541C48.1851 7.54541 48.1175 7.55924 48.0605 7.58691C48.0036 7.61296 47.9596 7.64876 47.9287 7.69434C47.8994 7.73828 47.8848 7.78711 47.8848 7.84082C47.8848 7.88151 47.8929 7.91813 47.9092 7.95068C47.9271 7.98161 47.9556 8.01009 47.9946 8.03613C48.0337 8.06217 48.0841 8.08659 48.146 8.10938C48.2095 8.13053 48.2876 8.15007 48.3804 8.16797C48.5708 8.20703 48.7409 8.2583 48.8906 8.32178C49.0404 8.38363 49.1592 8.46826 49.2471 8.57568C49.335 8.68148 49.3789 8.82064 49.3789 8.99316C49.3789 9.11035 49.3529 9.21777 49.3008 9.31543C49.2487 9.41309 49.1738 9.49854 49.0762 9.57178C48.9785 9.64339 48.8613 9.69954 48.7246 9.74023C48.5895 9.7793 48.4373 9.79883 48.2681 9.79883C48.0223 9.79883 47.814 9.75488 47.6431 9.66699C47.4738 9.5791 47.3452 9.46761 47.2573 9.33252C47.1711 9.1958 47.1279 9.05583 47.1279 8.9126H47.7944C47.7977 9.00863 47.8221 9.08594 47.8677 9.14453C47.9149 9.20312 47.9743 9.24544 48.0459 9.27148C48.1191 9.29753 48.1981 9.31055 48.2827 9.31055C48.3739 9.31055 48.4495 9.29834 48.5098 9.27393C48.57 9.24788 48.6156 9.2137 48.6465 9.17139C48.679 9.12744 48.6953 9.07699 48.6953 9.02002Z" fill="white"/>
<path d="M20 29H35M44 22V11.5M54 29H67.5M44 50V58.5" stroke="white" stroke-linecap="round"/>
<path d="M70.73 27V30.5547H70V27H70.73Z" fill="white"/>
<path d="M72.0605 28.4771V30.5547H71.3574V27.9131H72.0166L72.0605 28.4771ZM71.958 29.1411H71.7676C71.7676 28.9458 71.7928 28.77 71.8433 28.6138C71.8937 28.4559 71.9645 28.3216 72.0557 28.2109C72.1468 28.0986 72.255 28.0132 72.3804 27.9546C72.5073 27.8944 72.6489 27.8643 72.8052 27.8643C72.9289 27.8643 73.042 27.8822 73.1445 27.918C73.2471 27.9538 73.335 28.0107 73.4082 28.0889C73.4831 28.167 73.54 28.2703 73.5791 28.3989C73.6198 28.5275 73.6401 28.6846 73.6401 28.8701V30.5547H72.9321V28.8677C72.9321 28.7505 72.9159 28.6593 72.8833 28.5942C72.8507 28.5291 72.8027 28.4836 72.7393 28.4575C72.6774 28.4299 72.6009 28.416 72.5098 28.416C72.4154 28.416 72.3332 28.4347 72.2632 28.4722C72.1948 28.5096 72.1379 28.5617 72.0923 28.6284C72.0483 28.6935 72.015 28.77 71.9922 28.8579C71.9694 28.9458 71.958 29.0402 71.958 29.1411Z" fill="white"/>
<path d="M75.603 29.8247C75.603 29.7743 75.5884 29.7287 75.5591 29.688C75.5298 29.6473 75.4753 29.6099 75.3955 29.5757C75.3174 29.5399 75.2043 29.5073 75.0562 29.478C74.9227 29.4487 74.7982 29.4121 74.6826 29.3682C74.5687 29.3226 74.4694 29.2681 74.3848 29.2046C74.3018 29.1411 74.2367 29.0662 74.1895 28.98C74.1423 28.8921 74.1187 28.792 74.1187 28.6797C74.1187 28.569 74.1423 28.4648 74.1895 28.3672C74.2383 28.2695 74.3075 28.1833 74.397 28.1084C74.4881 28.0319 74.5988 27.9725 74.729 27.9302C74.8608 27.8862 75.009 27.8643 75.1733 27.8643C75.4028 27.8643 75.5998 27.9009 75.7642 27.9741C75.9302 28.0474 76.0571 28.1483 76.145 28.2769C76.2345 28.4038 76.2793 28.5487 76.2793 28.7114H75.5762C75.5762 28.6431 75.5615 28.582 75.5322 28.5283C75.5046 28.473 75.4606 28.4299 75.4004 28.3989C75.3418 28.3664 75.2653 28.3501 75.1709 28.3501C75.0928 28.3501 75.0252 28.3639 74.9683 28.3916C74.9113 28.4176 74.8674 28.4535 74.8364 28.499C74.8071 28.543 74.7925 28.5918 74.7925 28.6455C74.7925 28.6862 74.8006 28.7228 74.8169 28.7554C74.8348 28.7863 74.8633 28.8148 74.9023 28.8408C74.9414 28.8669 74.9919 28.8913 75.0537 28.9141C75.1172 28.9352 75.1953 28.9548 75.2881 28.9727C75.4785 29.0117 75.6486 29.063 75.7983 29.1265C75.9481 29.1883 76.0669 29.2729 76.1548 29.3804C76.2427 29.4862 76.2866 29.6253 76.2866 29.7979C76.2866 29.915 76.2606 30.0225 76.2085 30.1201C76.1564 30.2178 76.0815 30.3032 75.9839 30.3765C75.8862 30.4481 75.769 30.5042 75.6323 30.5449C75.4972 30.584 75.3451 30.6035 75.1758 30.6035C74.93 30.6035 74.7217 30.5596 74.5508 30.4717C74.3815 30.3838 74.2529 30.2723 74.165 30.1372C74.0788 30.0005 74.0356 29.8605 74.0356 29.7173H74.7021C74.7054 29.8133 74.7298 29.8906 74.7754 29.9492C74.8226 30.0078 74.882 30.0501 74.9536 30.0762C75.0269 30.1022 75.1058 30.1152 75.1904 30.1152C75.2816 30.1152 75.3573 30.103 75.4175 30.0786C75.4777 30.0526 75.5233 30.0184 75.5542 29.9761C75.5868 29.9321 75.603 29.8817 75.603 29.8247Z" fill="white"/>
<path d="M78.0371 27.9131V28.4111H76.499V27.9131H78.0371ZM76.8799 27.2612H77.583V29.7588C77.583 29.8353 77.5928 29.8939 77.6123 29.9346C77.6335 29.9753 77.6644 30.0037 77.7051 30.02C77.7458 30.0347 77.797 30.042 77.8589 30.042C77.9028 30.042 77.9419 30.0404 77.9761 30.0371C78.0119 30.0322 78.042 30.0273 78.0664 30.0225L78.0688 30.54C78.0086 30.5596 77.9435 30.575 77.8735 30.5864C77.8035 30.5978 77.7262 30.6035 77.6416 30.6035C77.487 30.6035 77.3519 30.5783 77.2363 30.5278C77.1224 30.4757 77.0345 30.3927 76.9727 30.2788C76.9108 30.1649 76.8799 30.0151 76.8799 29.8296V27.2612Z" fill="white"/>
<path d="M79.1406 28.4893V30.5547H78.4375V27.9131H79.0991L79.1406 28.4893ZM79.9365 27.896L79.9243 28.5479C79.8901 28.543 79.8486 28.5389 79.7998 28.5356C79.7526 28.5308 79.7095 28.5283 79.6704 28.5283C79.5711 28.5283 79.4849 28.5413 79.4116 28.5674C79.34 28.5918 79.2798 28.6284 79.231 28.6772C79.1838 28.7261 79.1479 28.7855 79.1235 28.8555C79.1007 28.9255 79.0877 29.0052 79.0845 29.0947L78.9429 29.0508C78.9429 28.8799 78.96 28.7228 78.9941 28.5796C79.0283 28.4347 79.078 28.3086 79.1431 28.2012C79.2098 28.0938 79.2912 28.0107 79.3872 27.9521C79.4832 27.8936 79.5931 27.8643 79.7168 27.8643C79.7559 27.8643 79.7957 27.8675 79.8364 27.874C79.8771 27.8789 79.9105 27.8862 79.9365 27.896Z" fill="white"/>
<path d="M81.8311 29.9224V27.9131H82.5342V30.5547H81.8726L81.8311 29.9224ZM81.9092 29.3804L82.1167 29.3755C82.1167 29.5513 82.0964 29.7148 82.0557 29.8662C82.015 30.016 81.9539 30.1462 81.8726 30.2568C81.7912 30.3659 81.6886 30.4513 81.5649 30.5132C81.4412 30.5734 81.2956 30.6035 81.1279 30.6035C80.9993 30.6035 80.8805 30.5856 80.7715 30.5498C80.6641 30.5124 80.5713 30.4546 80.4932 30.3765C80.4167 30.2967 80.3564 30.195 80.3125 30.0713C80.2702 29.946 80.249 29.7954 80.249 29.6196V27.9131H80.9521V29.6245C80.9521 29.7026 80.9611 29.7686 80.979 29.8223C80.9985 29.876 81.0254 29.9199 81.0596 29.9541C81.0938 29.9883 81.1336 30.0127 81.1792 30.0273C81.2264 30.042 81.2785 30.0493 81.3354 30.0493C81.4803 30.0493 81.5942 30.02 81.6772 29.9614C81.7619 29.9028 81.8213 29.8231 81.8555 29.7222C81.8913 29.6196 81.9092 29.5057 81.9092 29.3804Z" fill="white"/>
<path d="M83.7744 28.46V30.5547H83.0688V27.9131H83.7305L83.7744 28.46ZM83.6768 29.1411H83.4814C83.4814 28.9572 83.5034 28.7879 83.5474 28.6333C83.5929 28.4771 83.6589 28.342 83.7451 28.228C83.833 28.1125 83.9412 28.0229 84.0698 27.9595C84.1984 27.896 84.3473 27.8643 84.5166 27.8643C84.6338 27.8643 84.7412 27.8822 84.8389 27.918C84.9365 27.9521 85.0203 28.0067 85.0903 28.0815C85.1619 28.1548 85.2173 28.2508 85.2563 28.3696C85.2954 28.4868 85.3149 28.6276 85.3149 28.792V30.5547H84.6118V28.8701C84.6118 28.7497 84.5955 28.6569 84.563 28.5918C84.5304 28.5267 84.484 28.4811 84.4238 28.4551C84.3652 28.429 84.2944 28.416 84.2114 28.416C84.1203 28.416 84.0405 28.4347 83.9722 28.4722C83.9054 28.5096 83.8501 28.5617 83.8062 28.6284C83.7622 28.6935 83.7297 28.77 83.7085 28.8579C83.6873 28.9458 83.6768 29.0402 83.6768 29.1411ZM85.249 29.0605L84.9976 29.0923C84.9976 28.9198 85.0187 28.7594 85.061 28.6113C85.105 28.4632 85.1693 28.333 85.2539 28.2207C85.3402 28.1084 85.4468 28.0213 85.5737 27.9595C85.7007 27.896 85.8472 27.8643 86.0132 27.8643C86.1401 27.8643 86.2557 27.883 86.3599 27.9204C86.464 27.9562 86.5527 28.014 86.626 28.0938C86.7008 28.1719 86.7578 28.2744 86.7969 28.4014C86.8376 28.5283 86.8579 28.6838 86.8579 28.8677V30.5547H86.1523V28.8677C86.1523 28.7456 86.1361 28.6528 86.1035 28.5894C86.0726 28.5243 86.027 28.4795 85.9668 28.4551C85.9082 28.429 85.8382 28.416 85.7568 28.416C85.6722 28.416 85.5981 28.4331 85.5347 28.4673C85.4712 28.4998 85.4183 28.5454 85.376 28.604C85.3337 28.6626 85.3019 28.731 85.2808 28.8091C85.2596 28.8856 85.249 28.9694 85.249 29.0605Z" fill="white"/>
<path d="M88.6182 30.6035C88.4131 30.6035 88.2292 30.571 88.0664 30.5059C87.9036 30.4391 87.7653 30.3472 87.6514 30.23C87.5391 30.1128 87.4528 29.9769 87.3926 29.8223C87.3324 29.666 87.3022 29.5 87.3022 29.3242V29.2266C87.3022 29.0264 87.3307 28.8433 87.3877 28.6772C87.4447 28.5112 87.526 28.3672 87.6318 28.2451C87.7393 28.123 87.8695 28.0295 88.0225 27.9644C88.1755 27.8976 88.348 27.8643 88.54 27.8643C88.7272 27.8643 88.8932 27.8952 89.0381 27.957C89.1829 28.0189 89.3042 28.1068 89.4019 28.2207C89.5011 28.3346 89.576 28.4714 89.6265 28.6309C89.6769 28.7887 89.7021 28.9645 89.7021 29.1582V29.4512H87.6025V28.9824H89.0112V28.9287C89.0112 28.8311 88.9933 28.744 88.9575 28.6675C88.9233 28.5894 88.8713 28.5275 88.8013 28.4819C88.7313 28.4364 88.6418 28.4136 88.5327 28.4136C88.4399 28.4136 88.3602 28.4339 88.2935 28.4746C88.2267 28.5153 88.1722 28.5723 88.1299 28.6455C88.0892 28.7188 88.0583 28.805 88.0371 28.9043C88.0176 29.002 88.0078 29.1094 88.0078 29.2266V29.3242C88.0078 29.43 88.0225 29.5277 88.0518 29.6172C88.0827 29.7067 88.1258 29.784 88.1812 29.8491C88.2381 29.9142 88.3065 29.9647 88.3862 30.0005C88.4676 30.0363 88.5596 30.0542 88.6621 30.0542C88.7891 30.0542 88.9071 30.0298 89.0161 29.981C89.1268 29.9305 89.222 29.8548 89.3018 29.7539L89.6436 30.125C89.5882 30.2048 89.5125 30.2812 89.4165 30.3545C89.3221 30.4277 89.2082 30.488 89.0747 30.5352C88.9412 30.5807 88.7891 30.6035 88.6182 30.6035Z" fill="white"/>
<path d="M90.791 28.4771V30.5547H90.0879V27.9131H90.7471L90.791 28.4771ZM90.6885 29.1411H90.498C90.498 28.9458 90.5233 28.77 90.5737 28.6138C90.6242 28.4559 90.695 28.3216 90.7861 28.2109C90.8773 28.0986 90.9855 28.0132 91.1108 27.9546C91.2378 27.8944 91.3794 27.8643 91.5356 27.8643C91.6593 27.8643 91.7725 27.8822 91.875 27.918C91.9775 27.9538 92.0654 28.0107 92.1387 28.0889C92.2135 28.167 92.2705 28.2703 92.3096 28.3989C92.3503 28.5275 92.3706 28.6846 92.3706 28.8701V30.5547H91.6626V28.8677C91.6626 28.7505 91.6463 28.6593 91.6138 28.5942C91.5812 28.5291 91.5332 28.4836 91.4697 28.4575C91.4079 28.4299 91.3314 28.416 91.2402 28.416C91.1458 28.416 91.0636 28.4347 90.9937 28.4722C90.9253 28.5096 90.8683 28.5617 90.8228 28.6284C90.7788 28.6935 90.7454 28.77 90.7227 28.8579C90.6999 28.9458 90.6885 29.0402 90.6885 29.1411Z" fill="white"/>
<path d="M94.1992 27.9131V28.4111H92.6611V27.9131H94.1992ZM93.042 27.2612H93.7451V29.7588C93.7451 29.8353 93.7549 29.8939 93.7744 29.9346C93.7956 29.9753 93.8265 30.0037 93.8672 30.02C93.9079 30.0347 93.9591 30.042 94.021 30.042C94.0649 30.042 94.104 30.0404 94.1382 30.0371C94.174 30.0322 94.2041 30.0273 94.2285 30.0225L94.231 30.54C94.1707 30.5596 94.1056 30.575 94.0356 30.5864C93.9657 30.5978 93.8883 30.6035 93.8037 30.6035C93.6491 30.6035 93.514 30.5783 93.3984 30.5278C93.2845 30.4757 93.1966 30.3927 93.1348 30.2788C93.0729 30.1649 93.042 30.0151 93.042 29.8296V27.2612Z" fill="white"/>
<path d="M29.0845 59.4453H29.7046L30.6177 62.0552L31.5308 59.4453H32.1509L30.8667 63H30.3687L29.0845 59.4453ZM28.75 59.4453H29.3677L29.48 61.9893V63H28.75V59.4453ZM31.8677 59.4453H32.4878V63H31.7554V61.9893L31.8677 59.4453Z" fill="white"/>
<path d="M34.3018 63.0488C34.0967 63.0488 33.9128 63.0163 33.75 62.9512C33.5872 62.8844 33.4489 62.7925 33.335 62.6753C33.2227 62.5581 33.1364 62.4222 33.0762 62.2676C33.016 62.1113 32.9858 61.9453 32.9858 61.7695V61.6719C32.9858 61.4717 33.0143 61.2886 33.0713 61.1226C33.1283 60.9565 33.2096 60.8125 33.3154 60.6904C33.4229 60.5684 33.5531 60.4748 33.7061 60.4097C33.859 60.3429 34.0316 60.3096 34.2236 60.3096C34.4108 60.3096 34.5768 60.3405 34.7217 60.4023C34.8665 60.4642 34.9878 60.5521 35.0854 60.666C35.1847 60.7799 35.2596 60.9167 35.3101 61.0762C35.3605 61.234 35.3857 61.4098 35.3857 61.6035V61.8965H33.2861V61.4277H34.6948V61.374C34.6948 61.2764 34.6769 61.1893 34.6411 61.1128C34.6069 61.0347 34.5549 60.9728 34.4849 60.9272C34.4149 60.8817 34.3254 60.8589 34.2163 60.8589C34.1235 60.8589 34.0438 60.8792 33.9771 60.9199C33.9103 60.9606 33.8558 61.0176 33.8135 61.0908C33.7728 61.1641 33.7419 61.2503 33.7207 61.3496C33.7012 61.4473 33.6914 61.5547 33.6914 61.6719V61.7695C33.6914 61.8753 33.7061 61.973 33.7354 62.0625C33.7663 62.152 33.8094 62.2293 33.8647 62.2944C33.9217 62.3595 33.9901 62.41 34.0698 62.4458C34.1512 62.4816 34.2432 62.4995 34.3457 62.4995C34.4727 62.4995 34.5907 62.4751 34.6997 62.4263C34.8104 62.3758 34.9056 62.3001 34.9854 62.1992L35.3271 62.5703C35.2718 62.6501 35.1961 62.7266 35.1001 62.7998C35.0057 62.873 34.8918 62.9333 34.7583 62.9805C34.6248 63.026 34.4727 63.0488 34.3018 63.0488Z" fill="white"/>
<path d="M37.2119 62.4043V61.2275C37.2119 61.1429 37.1981 61.0705 37.1704 61.0103C37.1427 60.9484 37.0996 60.9004 37.041 60.8662C36.984 60.832 36.91 60.8149 36.8188 60.8149C36.7407 60.8149 36.6732 60.8288 36.6162 60.8564C36.5592 60.8825 36.5153 60.9207 36.4844 60.9712C36.4535 61.02 36.438 61.0778 36.438 61.1445H35.7349C35.7349 61.0322 35.7609 60.9256 35.813 60.8247C35.8651 60.7238 35.9408 60.6351 36.04 60.5586C36.1393 60.4805 36.2573 60.4194 36.394 60.3755C36.5324 60.3315 36.687 60.3096 36.8579 60.3096C37.063 60.3096 37.2453 60.3438 37.4048 60.4121C37.5643 60.4805 37.6896 60.583 37.7808 60.7197C37.8735 60.8564 37.9199 61.0273 37.9199 61.2324V62.3628C37.9199 62.5076 37.9289 62.6265 37.9468 62.7192C37.9647 62.8104 37.9907 62.8901 38.0249 62.9585V63H37.3145C37.2803 62.9284 37.2542 62.8389 37.2363 62.7314C37.2201 62.6224 37.2119 62.5133 37.2119 62.4043ZM37.3047 61.3911L37.3096 61.7891H36.9165C36.8237 61.7891 36.7432 61.7996 36.6748 61.8208C36.6064 61.842 36.5503 61.8721 36.5063 61.9111C36.4624 61.9486 36.4299 61.9925 36.4087 62.043C36.3892 62.0934 36.3794 62.1488 36.3794 62.209C36.3794 62.2692 36.3932 62.3237 36.4209 62.3726C36.4486 62.4198 36.4884 62.4572 36.5405 62.4849C36.5926 62.5109 36.6536 62.5239 36.7236 62.5239C36.8294 62.5239 36.9214 62.5028 36.9995 62.4604C37.0776 62.4181 37.1379 62.366 37.1802 62.3042C37.2241 62.2424 37.2469 62.1838 37.2485 62.1284L37.4341 62.4263C37.408 62.493 37.3722 62.5622 37.3267 62.6338C37.2827 62.7054 37.2266 62.7729 37.1582 62.8364C37.0898 62.8983 37.0076 62.9495 36.9116 62.9902C36.8156 63.0293 36.7017 63.0488 36.5698 63.0488C36.4022 63.0488 36.25 63.0155 36.1133 62.9487C35.9782 62.8804 35.8708 62.7868 35.791 62.668C35.7129 62.5475 35.6738 62.4108 35.6738 62.2578C35.6738 62.1195 35.6999 61.9966 35.752 61.8892C35.804 61.7817 35.8805 61.6914 35.9814 61.6182C36.084 61.5433 36.2118 61.4871 36.3647 61.4497C36.5177 61.4106 36.6951 61.3911 36.897 61.3911H37.3047Z" fill="white"/>
<path d="M39.8901 62.27C39.8901 62.2196 39.8755 62.174 39.8462 62.1333C39.8169 62.0926 39.7624 62.0552 39.6826 62.021C39.6045 61.9852 39.4914 61.9526 39.3433 61.9233C39.2098 61.894 39.0853 61.8574 38.9697 61.8135C38.8558 61.7679 38.7565 61.7134 38.6719 61.6499C38.5889 61.5864 38.5238 61.5116 38.4766 61.4253C38.4294 61.3374 38.4058 61.2373 38.4058 61.125C38.4058 61.0143 38.4294 60.9102 38.4766 60.8125C38.5254 60.7148 38.5946 60.6286 38.6841 60.5537C38.7752 60.4772 38.8859 60.4178 39.0161 60.3755C39.1479 60.3315 39.2961 60.3096 39.4604 60.3096C39.6899 60.3096 39.8869 60.3462 40.0513 60.4194C40.2173 60.4927 40.3442 60.5936 40.4321 60.7222C40.5216 60.8491 40.5664 60.994 40.5664 61.1567H39.8633C39.8633 61.0884 39.8486 61.0273 39.8193 60.9736C39.7917 60.9183 39.7477 60.8752 39.6875 60.8442C39.6289 60.8117 39.5524 60.7954 39.458 60.7954C39.3799 60.7954 39.3123 60.8092 39.2554 60.8369C39.1984 60.863 39.1545 60.8988 39.1235 60.9443C39.0942 60.9883 39.0796 61.0371 39.0796 61.0908C39.0796 61.1315 39.0877 61.1681 39.104 61.2007C39.1219 61.2316 39.1504 61.2601 39.1895 61.2861C39.2285 61.3122 39.279 61.3366 39.3408 61.3594C39.4043 61.3805 39.4824 61.4001 39.5752 61.418C39.7656 61.457 39.9357 61.5083 40.0854 61.5718C40.2352 61.6336 40.354 61.7183 40.4419 61.8257C40.5298 61.9315 40.5737 62.0706 40.5737 62.2432C40.5737 62.3604 40.5477 62.4678 40.4956 62.5654C40.4435 62.6631 40.3687 62.7485 40.271 62.8218C40.1733 62.8934 40.0562 62.9495 39.9194 62.9902C39.7843 63.0293 39.6322 63.0488 39.4629 63.0488C39.2171 63.0488 39.0088 63.0049 38.8379 62.917C38.6686 62.8291 38.54 62.7176 38.4521 62.5825C38.3659 62.4458 38.3228 62.3058 38.3228 62.1626H38.9893C38.9925 62.2586 39.0169 62.3359 39.0625 62.3945C39.1097 62.4531 39.1691 62.4954 39.2407 62.5215C39.314 62.5475 39.3929 62.5605 39.4775 62.5605C39.5687 62.5605 39.6444 62.5483 39.7046 62.5239C39.7648 62.4979 39.8104 62.4637 39.8413 62.4214C39.8739 62.3774 39.8901 62.327 39.8901 62.27Z" fill="white"/>
<path d="M42.5928 62.3677V60.3584H43.2959V63H42.6343L42.5928 62.3677ZM42.6709 61.8257L42.8784 61.8208C42.8784 61.9966 42.8581 62.1602 42.8174 62.3115C42.7767 62.4613 42.7157 62.5915 42.6343 62.7021C42.5529 62.8112 42.4504 62.8966 42.3267 62.9585C42.203 63.0187 42.0573 63.0488 41.8896 63.0488C41.7611 63.0488 41.6423 63.0309 41.5332 62.9951C41.4258 62.9577 41.333 62.8999 41.2549 62.8218C41.1784 62.742 41.1182 62.6403 41.0742 62.5166C41.0319 62.3913 41.0107 62.2407 41.0107 62.0649V60.3584H41.7139V62.0698C41.7139 62.1479 41.7228 62.2139 41.7407 62.2676C41.7603 62.3213 41.7871 62.3652 41.8213 62.3994C41.8555 62.4336 41.8953 62.458 41.9409 62.4727C41.9881 62.4873 42.0402 62.4946 42.0972 62.4946C42.242 62.4946 42.356 62.4653 42.439 62.4067C42.5236 62.3481 42.583 62.2684 42.6172 62.1675C42.653 62.0649 42.6709 61.951 42.6709 61.8257Z" fill="white"/>
<path d="M44.5361 60.9346V63H43.833V60.3584H44.4946L44.5361 60.9346ZM45.332 60.3413L45.3198 60.9932C45.2856 60.9883 45.2441 60.9842 45.1953 60.981C45.1481 60.9761 45.105 60.9736 45.0659 60.9736C44.9666 60.9736 44.8804 60.9867 44.8071 61.0127C44.7355 61.0371 44.6753 61.0737 44.6265 61.1226C44.5793 61.1714 44.5435 61.2308 44.519 61.3008C44.4963 61.3708 44.4832 61.4505 44.48 61.54L44.3384 61.4961C44.3384 61.3252 44.3555 61.1681 44.3896 61.0249C44.4238 60.88 44.4735 60.7539 44.5386 60.6465C44.6053 60.5391 44.6867 60.4561 44.7827 60.3975C44.8787 60.3389 44.9886 60.3096 45.1123 60.3096C45.1514 60.3096 45.1912 60.3128 45.2319 60.3193C45.2726 60.3242 45.306 60.3315 45.332 60.3413Z" fill="white"/>
<path d="M46.8311 63.0488C46.626 63.0488 46.4421 63.0163 46.2793 62.9512C46.1165 62.8844 45.9782 62.7925 45.8643 62.6753C45.752 62.5581 45.6657 62.4222 45.6055 62.2676C45.5452 62.1113 45.5151 61.9453 45.5151 61.7695V61.6719C45.5151 61.4717 45.5436 61.2886 45.6006 61.1226C45.6576 60.9565 45.7389 60.8125 45.8447 60.6904C45.9521 60.5684 46.0824 60.4748 46.2354 60.4097C46.3883 60.3429 46.5609 60.3096 46.7529 60.3096C46.9401 60.3096 47.1061 60.3405 47.251 60.4023C47.3958 60.4642 47.5171 60.5521 47.6147 60.666C47.714 60.7799 47.7889 60.9167 47.8394 61.0762C47.8898 61.234 47.915 61.4098 47.915 61.6035V61.8965H45.8154V61.4277H47.2241V61.374C47.2241 61.2764 47.2062 61.1893 47.1704 61.1128C47.1362 61.0347 47.0841 60.9728 47.0142 60.9272C46.9442 60.8817 46.8547 60.8589 46.7456 60.8589C46.6528 60.8589 46.5731 60.8792 46.5063 60.9199C46.4396 60.9606 46.3851 61.0176 46.3428 61.0908C46.3021 61.1641 46.2712 61.2503 46.25 61.3496C46.2305 61.4473 46.2207 61.5547 46.2207 61.6719V61.7695C46.2207 61.8753 46.2354 61.973 46.2646 62.0625C46.2956 62.152 46.3387 62.2293 46.394 62.2944C46.451 62.3595 46.5194 62.41 46.5991 62.4458C46.6805 62.4816 46.7725 62.4995 46.875 62.4995C47.002 62.4995 47.12 62.4751 47.229 62.4263C47.3397 62.3758 47.4349 62.3001 47.5146 62.1992L47.8564 62.5703C47.8011 62.6501 47.7254 62.7266 47.6294 62.7998C47.535 62.873 47.4211 62.9333 47.2876 62.9805C47.1541 63.026 47.002 63.0488 46.8311 63.0488Z" fill="white"/>
<path d="M49.0186 60.9053V63H48.313V60.3584H48.9746L49.0186 60.9053ZM48.9209 61.5864H48.7256C48.7256 61.4025 48.7476 61.2332 48.7915 61.0786C48.8371 60.9224 48.903 60.7873 48.9893 60.6733C49.0771 60.5578 49.1854 60.4683 49.314 60.4048C49.4425 60.3413 49.5915 60.3096 49.7607 60.3096C49.8779 60.3096 49.9854 60.3275 50.083 60.3633C50.1807 60.3975 50.2645 60.452 50.3345 60.5269C50.4061 60.6001 50.4614 60.6961 50.5005 60.8149C50.5396 60.9321 50.5591 61.0729 50.5591 61.2373V63H49.856V61.3154C49.856 61.195 49.8397 61.1022 49.8071 61.0371C49.7746 60.972 49.7282 60.9264 49.668 60.9004C49.6094 60.8743 49.5386 60.8613 49.4556 60.8613C49.3644 60.8613 49.2847 60.88 49.2163 60.9175C49.1496 60.9549 49.0942 61.007 49.0503 61.0737C49.0063 61.1388 48.9738 61.2153 48.9526 61.3032C48.9315 61.3911 48.9209 61.4855 48.9209 61.5864ZM50.4932 61.5059L50.2417 61.5376C50.2417 61.3651 50.2629 61.2048 50.3052 61.0566C50.3491 60.9085 50.4134 60.7783 50.498 60.666C50.5843 60.5537 50.6909 60.4666 50.8179 60.4048C50.9448 60.3413 51.0913 60.3096 51.2573 60.3096C51.3843 60.3096 51.4998 60.3283 51.604 60.3657C51.7082 60.4015 51.7969 60.4593 51.8701 60.5391C51.945 60.6172 52.002 60.7197 52.041 60.8467C52.0817 60.9736 52.1021 61.1291 52.1021 61.313V63H51.3965V61.313C51.3965 61.1909 51.3802 61.0981 51.3477 61.0347C51.3167 60.9696 51.2712 60.9248 51.2109 60.9004C51.1523 60.8743 51.0824 60.8613 51.001 60.8613C50.9163 60.8613 50.8423 60.8784 50.7788 60.9126C50.7153 60.9451 50.6624 60.9907 50.6201 61.0493C50.5778 61.1079 50.5461 61.1763 50.5249 61.2544C50.5037 61.3309 50.4932 61.4147 50.4932 61.5059Z" fill="white"/>
<path d="M53.8623 63.0488C53.6572 63.0488 53.4733 63.0163 53.3105 62.9512C53.1478 62.8844 53.0094 62.7925 52.8955 62.6753C52.7832 62.5581 52.6969 62.4222 52.6367 62.2676C52.5765 62.1113 52.5464 61.9453 52.5464 61.7695V61.6719C52.5464 61.4717 52.5749 61.2886 52.6318 61.1226C52.6888 60.9565 52.7702 60.8125 52.876 60.6904C52.9834 60.5684 53.1136 60.4748 53.2666 60.4097C53.4196 60.3429 53.5921 60.3096 53.7842 60.3096C53.9714 60.3096 54.1374 60.3405 54.2822 60.4023C54.4271 60.4642 54.5483 60.5521 54.646 60.666C54.7453 60.7799 54.8201 60.9167 54.8706 61.0762C54.9211 61.234 54.9463 61.4098 54.9463 61.6035V61.8965H52.8467V61.4277H54.2554V61.374C54.2554 61.2764 54.2375 61.1893 54.2017 61.1128C54.1675 61.0347 54.1154 60.9728 54.0454 60.9272C53.9754 60.8817 53.8859 60.8589 53.7769 60.8589C53.6841 60.8589 53.6043 60.8792 53.5376 60.9199C53.4709 60.9606 53.4163 61.0176 53.374 61.0908C53.3333 61.1641 53.3024 61.2503 53.2812 61.3496C53.2617 61.4473 53.252 61.5547 53.252 61.6719V61.7695C53.252 61.8753 53.2666 61.973 53.2959 62.0625C53.3268 62.152 53.37 62.2293 53.4253 62.2944C53.4823 62.3595 53.5506 62.41 53.6304 62.4458C53.7118 62.4816 53.8037 62.4995 53.9062 62.4995C54.0332 62.4995 54.1512 62.4751 54.2603 62.4263C54.3709 62.3758 54.4661 62.3001 54.5459 62.1992L54.8877 62.5703C54.8324 62.6501 54.7567 62.7266 54.6606 62.7998C54.5662 62.873 54.4523 62.9333 54.3188 62.9805C54.1854 63.026 54.0332 63.0488 53.8623 63.0488Z" fill="white"/>
<path d="M56.0352 60.9224V63H55.332V60.3584H55.9912L56.0352 60.9224ZM55.9326 61.5864H55.7422C55.7422 61.3911 55.7674 61.2153 55.8179 61.0591C55.8683 60.9012 55.9391 60.7669 56.0303 60.6562C56.1214 60.5439 56.2297 60.4585 56.355 60.3999C56.4819 60.3397 56.6235 60.3096 56.7798 60.3096C56.9035 60.3096 57.0166 60.3275 57.1191 60.3633C57.2217 60.3991 57.3096 60.4561 57.3828 60.5342C57.4577 60.6123 57.5146 60.7157 57.5537 60.8442C57.5944 60.9728 57.6147 61.1299 57.6147 61.3154V63H56.9067V61.313C56.9067 61.1958 56.8905 61.1047 56.8579 61.0396C56.8254 60.9744 56.7773 60.9289 56.7139 60.9028C56.652 60.8752 56.5755 60.8613 56.4844 60.8613C56.39 60.8613 56.3078 60.88 56.2378 60.9175C56.1694 60.9549 56.1125 61.007 56.0669 61.0737C56.0229 61.1388 55.9896 61.2153 55.9668 61.3032C55.944 61.3911 55.9326 61.4855 55.9326 61.5864Z" fill="white"/>
<path d="M59.4434 60.3584V60.8564H57.9053V60.3584H59.4434ZM58.2861 59.7065H58.9893V62.2041C58.9893 62.2806 58.999 62.3392 59.0186 62.3799C59.0397 62.4206 59.0706 62.4491 59.1113 62.4653C59.152 62.48 59.2033 62.4873 59.2651 62.4873C59.3091 62.4873 59.3481 62.4857 59.3823 62.4824C59.4181 62.4775 59.4482 62.4727 59.4727 62.4678L59.4751 62.9854C59.4149 63.0049 59.3498 63.0203 59.2798 63.0317C59.2098 63.0431 59.1325 63.0488 59.0479 63.0488C58.8932 63.0488 58.7581 63.0236 58.6426 62.9731C58.5286 62.9211 58.4408 62.8381 58.3789 62.7241C58.3171 62.6102 58.2861 62.4604 58.2861 62.2749V59.7065Z" fill="white"/>
<path d="M39.8105 43.7627L38.6875 43.4941L39.0928 39.8906H43.0869V41.0283H40.25L40.0742 42.6055C40.1686 42.5501 40.3118 42.4915 40.5039 42.4297C40.696 42.3646 40.9108 42.332 41.1484 42.332C41.4935 42.332 41.7995 42.3857 42.0664 42.4932C42.3333 42.6006 42.5596 42.7568 42.7451 42.9619C42.9339 43.167 43.0771 43.4176 43.1748 43.7139C43.2725 44.0101 43.3213 44.3454 43.3213 44.7197C43.3213 45.0355 43.2725 45.3366 43.1748 45.623C43.0771 45.9062 42.929 46.1602 42.7305 46.3848C42.5319 46.6061 42.2829 46.7803 41.9834 46.9072C41.6839 47.0342 41.3291 47.0977 40.9189 47.0977C40.613 47.0977 40.3167 47.0521 40.0303 46.9609C39.7471 46.8698 39.4915 46.7347 39.2637 46.5557C39.0391 46.3766 38.8584 46.1602 38.7217 45.9062C38.5882 45.6491 38.5182 45.3561 38.5117 45.0273H39.9082C39.9277 45.2292 39.9798 45.4033 40.0645 45.5498C40.1523 45.693 40.2679 45.8037 40.4111 45.8818C40.5544 45.96 40.722 45.999 40.9141 45.999C41.0931 45.999 41.2461 45.9648 41.373 45.8965C41.5 45.8281 41.6025 45.7337 41.6807 45.6133C41.7588 45.4896 41.8158 45.3464 41.8516 45.1836C41.8906 45.0176 41.9102 44.8385 41.9102 44.6465C41.9102 44.4544 41.8874 44.2803 41.8418 44.124C41.7962 43.9678 41.7262 43.8327 41.6318 43.7188C41.5374 43.6048 41.417 43.5169 41.2705 43.4551C41.1273 43.3932 40.9596 43.3623 40.7676 43.3623C40.5072 43.3623 40.3053 43.403 40.1621 43.4844C40.0221 43.5658 39.9049 43.6585 39.8105 43.7627Z" fill="white"/>
<path d="M45.5527 43.7627L44.4297 43.4941L44.835 39.8906H48.8291V41.0283H45.9922L45.8164 42.6055C45.9108 42.5501 46.054 42.4915 46.2461 42.4297C46.4382 42.3646 46.653 42.332 46.8906 42.332C47.2357 42.332 47.5417 42.3857 47.8086 42.4932C48.0755 42.6006 48.3018 42.7568 48.4873 42.9619C48.6761 43.167 48.8193 43.4176 48.917 43.7139C49.0146 44.0101 49.0635 44.3454 49.0635 44.7197C49.0635 45.0355 49.0146 45.3366 48.917 45.623C48.8193 45.9062 48.6712 46.1602 48.4727 46.3848C48.2741 46.6061 48.0251 46.7803 47.7256 46.9072C47.4261 47.0342 47.0713 47.0977 46.6611 47.0977C46.3551 47.0977 46.0589 47.0521 45.7725 46.9609C45.4893 46.8698 45.2337 46.7347 45.0059 46.5557C44.7812 46.3766 44.6006 46.1602 44.4639 45.9062C44.3304 45.6491 44.2604 45.3561 44.2539 45.0273H45.6504C45.6699 45.2292 45.722 45.4033 45.8066 45.5498C45.8945 45.693 46.0101 45.8037 46.1533 45.8818C46.2965 45.96 46.4642 45.999 46.6562 45.999C46.8353 45.999 46.9883 45.9648 47.1152 45.8965C47.2422 45.8281 47.3447 45.7337 47.4229 45.6133C47.501 45.4896 47.5579 45.3464 47.5938 45.1836C47.6328 45.0176 47.6523 44.8385 47.6523 44.6465C47.6523 44.4544 47.6296 44.2803 47.584 44.124C47.5384 43.9678 47.4684 43.8327 47.374 43.7188C47.2796 43.6048 47.1592 43.5169 47.0127 43.4551C46.8695 43.3932 46.7018 43.3623 46.5098 43.3623C46.2493 43.3623 46.0475 43.403 45.9043 43.4844C45.7643 43.5658 45.6471 43.6585 45.5527 43.7627Z" fill="white"/>
</svg>
